<svg width="196" height="274" viewBox="0 0 196 274" fill="none" xmlns="http://www.w3.org/2000/svg">
<g clip-path="url(#clip0_261_802)">
<path d="M9.50286 209.178C9.50286 173.378 38.5247 144.356 74.325 144.356C110.125 144.356 139.147 173.378 139.147 209.178C139.147 244.978 110.125 274 74.325 274C38.5247 274 9.50287 244.978 9.50286 209.178Z" fill="white"/>
<path d="M-57.618 58.8457C-57.618 14.1588 -21.3921 -22.067 23.2948 -22.067C67.9817 -22.067 104.208 14.1588 104.208 58.8457C104.208 103.533 67.9817 139.758 23.2948 139.758C-21.3921 139.758 -57.618 103.533 -57.618 58.8457Z" fill="white"/>
<path d="M54.5565 84.5907C54.5565 57.1692 76.786 34.9397 104.208 34.9397C131.629 34.9397 153.859 57.1692 153.859 84.5907C153.859 112.012 131.629 134.242 104.208 134.242C76.786 134.242 54.5565 112.012 54.5565 84.5907Z" fill="white"/>
<path d="M153.859 35.3994C153.859 23.9738 163.121 14.7115 174.546 14.7115C185.972 14.7115 195.234 23.9738 195.234 35.3994C195.234 46.825 185.972 56.0873 174.546 56.0873C163.121 56.0873 153.859 46.825 153.859 35.3994Z" fill="white"/>
<path d="M163.053 73.0974C163.053 66.7498 168.199 61.6041 174.546 61.6041C180.894 61.6041 186.04 66.7498 186.04 73.0974C186.04 79.4449 180.894 84.5907 174.546 84.5907C168.199 84.5907 163.053 79.4449 163.053 73.0974Z" fill="white"/>
</g>
<defs>
<clipPath id="clip0_261_802">
<rect width="214.235" height="274" fill="white" transform="translate(195.236 274) rotate(180)"/>
</clipPath>
</defs>
</svg>
