<svg width="291" height="371" viewBox="0 0 291 371" fill="none" xmlns="http://www.w3.org/2000/svg">
<g clip-path="url(#clip0_260_803)">
<path d="M252.407 87.7701C252.407 136.244 213.111 175.54 164.637 175.54C116.163 175.54 76.8668 136.244 76.8668 87.7701C76.8668 39.296 116.163 0 164.637 0C213.111 0 252.407 39.296 252.407 87.7701Z" fill="white"/>
<path d="M343.29 291.322C343.29 351.829 294.239 400.879 233.733 400.879C173.226 400.879 124.175 351.829 124.175 291.322C124.175 230.815 173.226 181.765 233.733 181.765C294.239 181.765 343.29 230.815 343.29 291.322Z" fill="white"/>
<path d="M191.404 256.463C191.404 293.592 161.305 323.691 124.175 323.691C87.0464 323.691 56.9473 293.592 56.9473 256.463C56.9473 219.334 87.0464 189.235 124.175 189.235C161.305 189.235 191.404 219.334 191.404 256.463Z" fill="white"/>
<path d="M56.9473 323.069C56.9473 338.539 44.406 351.08 28.9356 351.08C13.4651 351.08 0.923828 338.539 0.923828 323.069C0.923828 307.598 13.4651 295.057 28.9356 295.057C44.406 295.057 56.9473 307.598 56.9473 323.069Z" fill="white"/>
<path d="M44.4976 272.025C44.4976 280.62 37.5303 287.587 28.9356 287.587C20.3409 287.587 13.3735 280.62 13.3735 272.025C13.3735 263.43 20.3409 256.463 28.9356 256.463C37.5303 256.463 44.4976 263.43 44.4976 272.025Z" fill="white"/>
</g>
<defs>
<clipPath id="clip0_260_803">
<rect width="290.077" height="371" fill="white" transform="translate(0.921875)"/>
</clipPath>
</defs>
</svg>
