<svg width="683" height="432" viewBox="0 0 683 432" fill="none" xmlns="http://www.w3.org/2000/svg">
<ellipse opacity="0.4" cx="359.693" cy="414.407" rx="245.861" ry="11.7285" fill="black"/>
<path d="M214.162 409.607C225.86 399.259 232.966 382.912 231.103 366.998C229.239 351.085 217.697 336.455 202.726 333.076C187.754 329.697 170.687 339.051 166.14 354.361C163.637 324.844 160.754 294.091 145.763 268.955C132.189 246.195 108.678 229.909 83.1981 226.995C57.7181 224.082 30.891 235.086 15 256.139C-0.890926 277.191 -4.78176 307.797 6.34785 331.968C14.5466 349.773 29.6517 363.024 45.478 373.804C95.9695 408.197 158.604 422.541 218.202 413.36" fill="#153C6B"/>
<path d="M40.1957 235.696C61.2199 253.622 80.5073 273.671 97.7791 295.553C115.054 317.413 130.262 340.975 143.19 365.908C150.417 379.895 156.909 394.284 162.637 409.011C163.804 412.007 159.157 413.311 158.002 410.349C147.857 384.384 135.305 359.523 120.526 336.122C105.819 312.806 88.9868 291.038 70.2647 271.124C59.6754 259.867 48.5028 249.227 36.7975 239.253C34.3982 237.208 37.8163 233.668 40.1957 235.696Z" fill="white"/>
<ellipse cx="465.307" cy="229.338" rx="132.672" ry="138.884" fill="#21A9D5"/>
<path d="M214 20C214 8.95432 222.954 0 234 0H394C405.046 0 414 8.9543 414 20V414H214V20Z" fill="#3FD4F8"/>
<rect x="262" y="84" width="105" height="227" fill="white"/>
<line x1="291" y1="81" x2="291" y2="312" stroke="#3FD4F8" stroke-width="4"/>
<path opacity="0.5" d="M233 32C233 25.9249 237.925 21 244 21H385C391.075 21 396 25.9249 396 32V415H233V32Z" stroke="#2C96AF" stroke-width="2"/>
<line x1="334" y1="81" x2="334" y2="312" stroke="#3FD4F8" stroke-width="4"/>
<line x1="255" y1="155.5" x2="374" y2="155.5" stroke="#3FD4F8" stroke-width="3"/>
<line x1="255" y1="240.5" x2="374" y2="240.5" stroke="#3FD4F8" stroke-width="3"/>
<path d="M509.348 411.654C500.831 404.12 495.657 392.218 497.014 380.632C498.371 369.046 506.774 358.395 517.674 355.934C528.575 353.474 541 360.285 544.311 371.431C546.133 349.941 548.233 327.551 559.147 309.25C569.03 292.679 586.147 280.822 604.698 278.7C623.249 276.579 642.781 284.591 654.351 299.919C665.921 315.246 668.753 337.53 660.65 355.127C654.681 368.091 643.684 377.738 632.161 385.587C594.927 410.736 550.27 420.963 506.406 414.386L509.348 411.654Z" fill="#4C73A4"/>
<path d="M636.006 285.035C620.699 298.086 606.656 312.684 594.081 328.615C574.401 353.463 558.476 381.321 546.861 411.22C546.01 413.401 549.394 414.351 550.235 412.194C569.24 363.602 599.58 320.773 638.48 287.625C640.227 286.136 637.738 283.558 636.006 285.035Z" fill="white"/>
<path d="M454.679 406.472H445.304L440.844 368.618L454.681 368.619L454.679 406.472Z" fill="#FFB8B8"/>
<path d="M438.606 403.667H456.686V415.584H427.223C427.223 414.019 427.517 412.47 428.089 411.024C428.661 409.578 429.5 408.264 430.557 407.158C431.614 406.051 432.869 405.173 434.25 404.574C435.631 403.976 437.111 403.667 438.606 403.667Z" fill="#2F2E41"/>
<path d="M501.324 406.472H491.949L487.488 368.618L501.325 368.619L501.324 406.472Z" fill="#FFB8B8"/>
<path d="M485.253 403.667H503.333V415.584H473.869C473.869 414.019 474.164 412.47 474.736 411.024C475.308 409.578 476.146 408.264 477.203 407.158C478.26 406.051 479.515 405.173 480.897 404.574C482.278 403.976 483.758 403.667 485.253 403.667Z" fill="#2F2E41"/>
<path d="M401.456 281.37C408.213 281.37 413.69 275.636 413.69 268.562C413.69 261.488 408.213 255.754 401.456 255.754C394.698 255.754 389.221 261.488 389.221 268.562C389.221 275.636 394.698 281.37 401.456 281.37Z" fill="#153C6B"/>
<path d="M407.648 271.099C406.974 270.059 406.525 268.877 406.335 267.635C406.144 266.394 406.216 265.124 406.544 263.915C406.873 262.706 407.451 261.587 408.238 260.637C409.025 259.687 410.001 258.929 411.097 258.417L442.966 166.468L458.647 175.427L422.26 263.296C422.96 265.282 422.94 267.468 422.204 269.439C421.468 271.41 420.066 273.03 418.265 273.992C416.464 274.954 414.388 275.19 412.432 274.657C410.475 274.124 408.773 272.858 407.648 271.099Z" fill="#FFB8B8"/>
<path d="M496.534 288.377C495.492 287.752 494.594 286.895 493.903 285.867C493.211 284.839 492.744 283.665 492.533 282.427C492.322 281.189 492.373 279.918 492.682 278.703C492.991 277.489 493.551 276.36 494.322 275.396L484.449 178.13L502.295 178.983L506.398 274.657C507.859 276.12 508.757 278.094 508.92 280.203C509.084 282.313 508.503 284.412 507.287 286.103C506.072 287.795 504.305 288.96 502.323 289.379C500.341 289.798 498.282 289.441 496.534 288.377Z" fill="#FFB8B8"/>
<path d="M468.064 149.437C478.437 149.437 486.846 140.635 486.846 129.776C486.846 118.918 478.437 110.116 468.064 110.116C457.692 110.116 449.283 118.918 449.283 129.776C449.283 140.635 457.692 149.437 468.064 149.437Z" fill="#FFB8B8"/>
<path d="M496.415 266.256H439.793L439.861 265.794C439.963 265.105 449.952 196.601 442.585 174.19C441.845 171.988 441.91 169.577 442.767 167.422C443.624 165.267 445.212 163.519 447.226 162.516C457.757 157.325 477.972 150.933 495.034 166.446C497.545 168.767 499.505 171.667 500.761 174.917C502.016 178.168 502.532 181.679 502.267 185.174L496.415 266.256Z" fill="#153C6B"/>
<path d="M450.668 206.725L425.176 201.311L437.125 171.67C437.84 168.799 439.614 166.342 442.057 164.838C444.5 163.334 447.413 162.906 450.157 163.648C452.902 164.389 455.253 166.24 456.695 168.794C458.138 171.348 458.554 174.396 457.852 177.271L450.668 206.725Z" fill="#153C6B"/>
<path d="M483.315 216.777L481.782 180.002C480.62 173.089 484.401 166.554 490.215 165.485C496.03 164.421 501.709 169.216 502.876 176.18L508.637 210.543L483.315 216.777Z" fill="#153C6B"/>
<path d="M494.531 261.853C503.642 298.176 504.636 344.358 502.178 394.733L489.943 393.132L467.767 297.074L455.532 394.733L441.768 393.932C437.656 341.077 433.652 295.701 440.238 265.855L494.531 261.853Z" fill="#2F2E41"/>
<path d="M480.44 144.971C476.936 148.878 470.429 146.78 469.972 141.443C469.937 141.028 469.939 140.611 469.98 140.197C470.216 137.833 471.521 135.687 471.208 133.19C471.137 132.569 470.916 131.977 470.566 131.47C467.774 127.556 461.22 133.221 458.585 129.678C456.969 127.505 458.868 124.085 457.628 121.656C455.992 118.452 451.145 120.033 448.105 118.277C444.723 116.325 444.925 110.893 447.151 107.589C449.867 103.56 454.627 101.41 459.328 101.1C464.029 100.79 468.697 102.12 473.086 103.91C478.073 105.945 483.018 108.756 486.086 113.346C489.818 118.928 490.177 126.432 488.311 132.959C487.175 136.93 483.301 141.78 480.44 144.971Z" fill="#2F2E41"/>
<path d="M642.316 415.966H77.7575C77.5164 415.965 77.2855 415.864 77.1154 415.686C76.9452 415.507 76.8496 415.265 76.8496 415.013C76.8496 414.76 76.9452 414.518 77.1154 414.34C77.2855 414.161 77.5164 414.06 77.7575 414.059H642.316C642.557 414.06 642.788 414.161 642.958 414.34C643.129 414.518 643.224 414.76 643.224 415.013C643.224 415.265 643.129 415.507 642.958 415.686C642.788 415.864 642.557 415.965 642.316 415.966Z" fill="#3F3D56"/>
<rect width="5.60524" height="177.683" transform="matrix(0.986056 0.166412 -0.15202 0.988377 507.537 233.593)" fill="#153C6B"/>
<rect width="12.3486" height="16.8279" rx="2.40168" transform="matrix(0.985438 0.170034 -0.155346 0.98786 506.467 217.955)" fill="#153C6B"/>
<path d="M447.867 412.546C447.867 410.335 449.659 408.543 451.87 408.543H511.045C513.255 408.543 515.048 410.335 515.048 412.546V414.407H447.867V412.546Z" fill="#153C6B"/>
</svg>
