<svg width="683" height="432" viewBox="0 0 683 432" fill="none" xmlns="http://www.w3.org/2000/svg">
<path opacity="0.4" d="M88 116.5C88 52.1588 140.159 0 204.5 0H321V415H88V116.5Z" fill="#153C6B"/>
<ellipse opacity="0.4" cx="360" cy="416" rx="246" ry="10" fill="black"/>
<ellipse cx="465.307" cy="266.884" rx="132.672" ry="138.884" fill="#57BED7"/>
<ellipse cx="621.5" cy="181" rx="29.5" ry="31" fill="#57BED7"/>
<path d="M214 100C214 44.7715 258.772 0 314 0V0C369.228 0 414 44.7715 414 100V414H214V100Z" fill="#81E6FF"/>
<rect x="262" y="106" width="105" height="227" fill="white"/>
<line x1="291" y1="103" x2="291" y2="334" stroke="#81E6FF" stroke-width="4"/>
<path opacity="0.5" d="M394.5 102.5V413.5H234.5V102.5C234.5 58.3172 270.317 22.5 314.5 22.5C358.683 22.5 394.5 58.3172 394.5 102.5Z" stroke="#2C96AF" stroke-width="5"/>
<line x1="334" y1="103" x2="334" y2="334" stroke="#81E6FF" stroke-width="4"/>
<line x1="255" y1="177.5" x2="374" y2="177.5" stroke="#81E6FF" stroke-width="3"/>
<line x1="255" y1="262.5" x2="374" y2="262.5" stroke="#81E6FF" stroke-width="3"/>
<path d="M454.678 406.471H445.303L440.843 368.618L454.68 368.619L454.678 406.471Z" fill="#FFB8B8"/>
<path d="M438.606 403.667H456.686V415.584H427.223C427.223 414.019 427.517 412.47 428.089 411.024C428.661 409.578 429.5 408.264 430.557 407.158C431.614 406.051 432.869 405.173 434.25 404.575C435.631 403.976 437.111 403.667 438.606 403.667Z" fill="#2F2E41"/>
<path d="M501.324 406.471H491.949L487.488 368.618L501.325 368.619L501.324 406.471Z" fill="#FFB8B8"/>
<path d="M485.253 403.667H503.333V415.584H473.869C473.869 414.019 474.164 412.47 474.736 411.024C475.308 409.578 476.146 408.264 477.203 407.158C478.26 406.051 479.515 405.173 480.897 404.575C482.278 403.976 483.758 403.667 485.253 403.667Z" fill="#2F2E41"/>
<path d="M401.457 281.37C408.214 281.37 413.691 275.636 413.691 268.562C413.691 261.489 408.214 255.754 401.457 255.754C394.699 255.754 389.222 261.489 389.222 268.562C389.222 275.636 394.699 281.37 401.457 281.37Z" fill="#153C6B"/>
<path d="M407.649 271.099C406.975 270.059 406.526 268.877 406.336 267.635C406.145 266.394 406.217 265.124 406.545 263.915C406.874 262.706 407.452 261.587 408.239 260.637C409.026 259.687 410.002 258.929 411.098 258.417L442.967 166.468L458.648 175.427L422.261 263.296C422.961 265.282 422.941 267.468 422.205 269.439C421.469 271.41 420.067 273.03 418.266 273.992C416.465 274.954 414.389 275.19 412.433 274.657C410.476 274.124 408.774 272.858 407.649 271.099Z" fill="#FFB8B8"/>
<path d="M496.534 288.377C495.492 287.751 494.594 286.895 493.903 285.867C493.211 284.839 492.744 283.664 492.533 282.427C492.322 281.189 492.373 279.918 492.682 278.703C492.991 277.489 493.551 276.359 494.322 275.396L484.449 178.129L502.295 178.983L506.398 274.657C507.859 276.12 508.757 278.094 508.92 280.203C509.084 282.313 508.503 284.412 507.287 286.103C506.072 287.794 504.305 288.96 502.323 289.379C500.341 289.798 498.282 289.441 496.534 288.377Z" fill="#FFB8B8"/>
<path d="M468.065 149.437C478.438 149.437 486.847 140.635 486.847 129.776C486.847 118.918 478.438 110.116 468.065 110.116C457.693 110.116 449.284 118.918 449.284 129.776C449.284 140.635 457.693 149.437 468.065 149.437Z" fill="#FFB8B8"/>
<path d="M496.415 266.255H439.793L439.861 265.794C439.963 265.105 449.952 196.601 442.585 174.19C441.845 171.988 441.91 169.577 442.767 167.422C443.624 165.267 445.212 163.519 447.226 162.516C457.757 157.325 477.972 150.932 495.034 166.446C497.545 168.767 499.505 171.667 500.761 174.917C502.016 178.167 502.532 181.679 502.267 185.174L496.415 266.255Z" fill="#153C6B"/>
<path d="M450.668 206.725L425.176 201.311L437.125 171.67C437.84 168.799 439.614 166.342 442.057 164.838C444.5 163.334 447.413 162.906 450.157 163.648C452.902 164.389 455.253 166.24 456.695 168.794C458.138 171.348 458.554 174.397 457.852 177.271L450.668 206.725Z" fill="#153C6B"/>
<path d="M483.316 216.777L481.783 180.002C480.621 173.089 484.401 166.554 490.216 165.485C496.031 164.421 501.71 169.216 502.877 176.18L508.638 210.543L483.316 216.777Z" fill="#153C6B"/>
<path d="M494.531 261.853C503.642 298.176 504.636 344.358 502.178 394.733L489.943 393.132L467.767 297.074L455.532 394.733L441.768 393.932C437.656 341.077 433.652 295.701 440.238 265.855L494.531 261.853Z" fill="#2F2E41"/>
<path d="M480.44 144.971C476.936 148.878 470.429 146.78 469.972 141.443C469.937 141.028 469.939 140.611 469.98 140.197C470.216 137.833 471.521 135.687 471.208 133.19C471.137 132.569 470.916 131.977 470.566 131.47C467.774 127.556 461.22 133.221 458.585 129.678C456.969 127.505 458.868 124.085 457.628 121.656C455.992 118.452 451.145 120.033 448.105 118.277C444.723 116.325 444.925 110.893 447.151 107.589C449.867 103.56 454.627 101.41 459.328 101.1C464.029 100.79 468.697 102.12 473.086 103.91C478.073 105.945 483.018 108.756 486.086 113.346C489.818 118.928 490.177 126.432 488.311 132.959C487.175 136.93 483.301 141.78 480.44 144.971Z" fill="#2F2E41"/>
<path d="M642.316 415.966H77.7575C77.5164 415.965 77.2855 415.864 77.1154 415.686C76.9452 415.507 76.8496 415.265 76.8496 415.013C76.8496 414.76 76.9452 414.518 77.1154 414.34C77.2855 414.161 77.5164 414.06 77.7575 414.06H642.316C642.557 414.06 642.788 414.161 642.958 414.34C643.129 414.518 643.224 414.76 643.224 415.013C643.224 415.265 643.129 415.507 642.958 415.686C642.788 415.864 642.557 415.965 642.316 415.966Z" fill="#3F3D56"/>
<path fill-rule="evenodd" clip-rule="evenodd" d="M506.094 220.327C506.3 219.017 507.526 218.137 508.833 218.363L516.269 219.646C517.576 219.871 518.469 221.116 518.263 222.427L516.395 234.305C516.189 235.616 514.962 236.495 513.655 236.27L512.818 236.125L486.299 408.543H511.045C513.255 408.543 515.048 410.335 515.048 412.546V414.407H447.867V412.546C447.867 410.335 449.659 408.543 451.87 408.543H480.628L507.294 235.172L506.219 234.987C504.912 234.761 504.02 233.516 504.226 232.206L506.094 220.327Z" fill="white"/>
<g filter="url(#filter0_d_345_2426)">
<path d="M188.977 412.752C189.047 413.342 189.067 413.892 189.027 414.432H159.337C159.067 413.892 158.837 413.332 158.637 412.752C155.007 402.322 160.977 384.962 153.407 359.222C147.787 340.122 137.297 325.182 132.407 318.222C126.397 309.662 119.587 301.762 111.697 289.142C109.987 286.412 108.227 283.452 106.407 280.222C105.797 279.142 98.7668 266.612 99.4068 266.222C99.7068 266.042 101.567 268.572 102.197 269.422C107.757 276.942 110.987 280.232 115.617 285.642C118.427 288.922 121.747 292.972 126.407 299.222C138.357 315.232 144.327 323.232 146.407 329.222C146.957 330.822 149.887 339.482 155.407 350.222C158.227 355.702 159.637 358.442 160.407 358.222C162.587 357.592 159.647 334.902 150.407 312.222C148.827 308.362 147.647 305.892 145.407 301.222C141.767 293.602 121.497 251.252 106.597 225.902C104.727 222.712 102.937 219.802 101.287 217.252C100.967 216.772 100.657 216.302 100.357 215.852C98.2768 212.752 96.4368 210.302 94.9068 208.722C94.0968 207.882 92.0368 205.502 87.9068 200.722C86.2668 198.822 85.0668 197.412 84.2568 196.382C84.1368 196.232 84.0268 196.082 83.9368 195.952C82.9568 194.672 82.6768 194.052 82.9068 193.722C83.2368 193.252 84.5068 193.522 85.8968 194.012C86.0468 194.062 86.2068 194.122 86.3568 194.182C87.8668 194.742 89.3968 195.472 89.9068 195.722C94.5868 197.972 99.1568 202.002 103.387 206.792C104.957 208.562 106.467 210.432 107.927 212.352C112.627 218.552 116.727 225.302 119.827 230.852C123.627 237.692 125.907 242.722 125.907 242.722C136.517 266.152 148.287 292.952 148.907 292.722C149.587 292.472 136.537 259.112 132.737 240.992C131.467 234.922 131.237 230.562 132.907 229.722C132.967 229.692 133.027 229.662 133.097 229.642C133.357 229.552 133.597 229.562 133.727 229.572C133.727 229.572 135.277 229.372 136.907 229.722C138.937 230.162 141.247 235.812 143.497 243.742C149.347 264.182 154.907 299.722 154.907 299.722C160.467 335.272 168.907 364.042 170.907 363.722C172.017 363.542 170.427 354.612 171.907 339.722C172.947 329.282 174.127 329.602 177.907 310.722C183.907 280.772 186.907 265.802 186.907 265.722C186.877 265.092 186.797 263.822 186.987 262.502C187.187 261.072 187.697 259.572 188.907 258.722C190.747 257.422 193.707 257.982 194.907 258.722C195.867 259.322 196.357 260.422 196.467 262.002C197.127 271.942 182.847 300.762 177.907 339.722C175.447 359.132 174.097 369.722 177.907 383.722C181.677 397.602 188.247 406.442 188.977 412.752Z" fill="#3F3D56"/>
<path d="M229.407 162.222C221.203 160.73 211.014 166.221 210.407 172.222C209.907 177.162 215.979 181.673 215.407 182.222C214.872 182.736 211.11 177.316 206.407 177.222C199.3 177.081 190.771 189.117 193.407 196.222C195.522 201.926 204.586 203.792 204.407 204.222C204.237 204.628 197.331 200.201 190.407 201.222C180.492 202.684 170.998 215.247 173.407 223.222C176.098 232.134 193.522 234.894 193.407 235.222C193.284 235.57 175.87 226.654 169.407 232.222C165.072 235.957 165.693 244.663 168.407 250.222C174.07 261.826 191.737 265.938 200.407 260.222C207.148 255.778 202.602 249.248 209.407 235.222C217.763 217.999 232.297 212.024 232.407 199.222C232.417 198.058 232.449 194.31 230.407 193.222C227.145 191.485 220.85 197.737 220.407 197.222C219.927 196.666 228.353 190.579 233.407 180.222C234.996 176.965 238.613 169.554 235.407 165.222C233.775 163.017 231.048 162.521 229.407 162.222Z" fill="#59DD8E"/>
<path d="M183.407 143.222C175.203 141.73 165.014 147.221 164.407 153.222C163.907 158.162 169.979 162.673 169.407 163.222C168.872 163.736 165.11 158.316 160.407 158.222C153.3 158.081 144.771 170.117 147.407 177.222C149.522 182.926 158.586 184.792 158.407 185.222C158.237 185.628 151.331 181.201 144.407 182.222C134.492 183.684 124.998 196.247 127.407 204.222C130.098 213.134 147.522 215.894 147.407 216.222C147.284 216.57 129.87 207.654 123.407 213.222C119.072 216.957 119.693 225.663 122.407 231.222C128.07 242.826 145.737 246.938 154.407 241.222C161.148 236.778 156.602 230.248 163.407 216.222C171.763 198.999 186.297 193.024 186.407 180.222C186.417 179.058 186.449 175.31 184.407 174.222C181.145 172.485 174.85 178.737 174.407 178.222C173.927 177.666 182.353 171.579 187.407 161.222C188.996 157.965 192.613 150.554 189.407 146.222C187.775 144.017 185.048 143.521 183.407 143.222Z" fill="#59DD8E"/>
<path d="M127.705 121.018C135.481 124.029 141.303 134.033 138.687 139.468C136.534 143.942 129 144.618 129.202 145.385C129.389 146.103 135.428 143.445 139.488 145.821C145.622 149.411 146.612 164.129 140.654 168.813C135.871 172.573 127.167 169.431 127.095 169.892C127.028 170.326 135.229 170.157 140.602 174.644C148.294 181.068 149.831 196.739 143.612 202.283C136.664 208.478 120.362 201.733 120.29 202.074C120.212 202.434 139.72 203.924 142.324 212.047C144.071 217.496 138.995 224.596 133.778 227.921C122.889 234.86 105.675 229.142 101.266 219.74C97.8368 212.43 105.124 209.234 106.644 193.719C108.511 174.667 99.236 161.982 105.826 151.007C106.426 150.009 108.355 146.796 110.665 146.934C114.354 147.156 116.458 155.774 117.105 155.567C117.805 155.344 113.797 145.752 114.895 134.281C115.24 130.673 116.025 122.464 121.021 120.444C123.565 119.415 126.149 120.416 127.705 121.018Z" fill="#29AF5F"/>
<path d="M39.3981 126.457C34.4953 133.202 35.0244 144.765 40.1687 147.915C44.4034 150.507 51.1008 146.992 51.3478 147.746C51.5787 148.451 45.0631 149.49 42.9393 153.687C39.7303 160.029 46.8761 172.934 54.4217 173.641C60.4789 174.209 66.0909 166.85 66.4008 167.199C66.6929 167.527 59.7091 171.83 57.626 178.513C54.6435 188.08 61.8457 202.083 70.0769 203.372C79.2742 204.811 89.3173 190.308 89.5633 190.555C89.8234 190.816 74.2374 202.641 76.4517 210.879C77.9369 216.405 86.0511 219.62 92.2372 219.586C105.149 219.516 116.516 205.38 115.126 195.089C114.045 187.087 106.189 188.352 96.5022 176.138C84.6068 161.138 85.5256 145.451 74.0385 139.8C72.9939 139.287 69.6306 137.632 67.7648 139.001C64.785 141.186 67.6879 149.569 67.0322 149.746C66.3229 149.937 64.492 139.705 57.3519 130.659C55.1061 127.814 49.9967 121.342 44.7033 122.352C42.0083 122.866 40.379 125.108 39.3981 126.457Z" fill="#59DD8E"/>
<path d="M46.3981 200.457C41.4953 207.202 42.0244 218.765 47.1687 221.914C51.4034 224.507 58.1008 220.992 58.3478 221.746C58.5787 222.451 52.0631 223.49 49.9393 227.687C46.7303 234.029 53.8761 246.934 61.4217 247.641C67.4789 248.209 73.0909 240.85 73.4008 241.199C73.6929 241.527 66.7091 245.83 64.626 252.513C61.6434 262.08 68.8457 276.083 77.0769 277.372C86.2742 278.811 96.3173 264.308 96.5633 264.555C96.8234 264.816 81.2374 276.641 83.4517 284.879C84.9369 290.405 93.0511 293.62 99.2372 293.586C112.149 293.516 123.516 279.38 122.126 269.089C121.045 261.087 113.189 262.352 103.502 250.138C91.6068 235.138 92.5256 219.451 81.0385 213.8C79.9939 213.287 76.6306 211.632 74.7648 213.001C71.785 215.186 74.6879 223.569 74.0322 223.746C73.3229 223.937 71.4921 213.704 64.352 204.659C62.1061 201.814 56.9967 195.342 51.7033 196.352C49.0083 196.866 47.379 199.108 46.3981 200.457Z" fill="#29AF5F"/>
</g>
<path fill-rule="evenodd" clip-rule="evenodd" d="M591.064 349C591.064 349 591.064 349 591.064 349H581.668C581.986 347.963 581.927 344.642 579.149 339.661C576.371 334.681 569.685 330.302 566.689 328.736C568.777 328.451 575.486 329.408 580.303 332.468C584.798 335.324 587.883 341.376 589.898 346.13C589.529 337.781 588.584 323.913 586.956 318.218C585.123 311.805 581.396 306.04 579.761 303.959C582.307 304.898 588.243 308.476 591.619 315.281C595.84 323.787 596.965 335.537 597.206 339.392C597.318 341.182 597.535 343.485 597.742 345.478C599.534 340.548 602.382 334.186 606.298 331.131C610.195 328.09 614.79 328.397 616.5 328.683L616.378 328.761C613.848 330.38 607.835 334.227 606.298 339.637C604.922 344.476 605.005 346.586 605.066 348.153C605.077 348.45 605.088 348.727 605.088 349H596.541L591.064 349Z" fill="#29AF5F"/>
<path fill-rule="evenodd" clip-rule="evenodd" d="M554.148 349H569.841L585.793 349C585.183 347.498 585.296 342.691 590.631 335.48C595.965 328.27 608.804 321.931 614.557 319.663C610.548 319.251 597.665 320.636 588.416 325.067C579.841 329.174 573.939 337.844 570.068 344.705C570.789 332.64 572.613 312.761 575.745 304.577C579.288 295.322 586.492 287.003 589.651 284C584.731 285.354 573.259 290.518 566.734 300.338C558.576 312.614 556.401 329.571 555.935 335.134C555.717 337.738 555.293 341.094 554.891 343.984C551.467 336.857 546.012 327.624 538.502 323.198C531.053 318.807 522.268 319.251 519 319.663L519.234 319.776L519.234 319.776C524.07 322.113 535.563 327.668 538.502 335.48C541.131 342.467 540.974 345.514 540.857 347.777L540.857 347.777C540.835 348.205 540.814 348.606 540.814 349L554.148 349Z" fill="#59DD8E"/>
<path fill-rule="evenodd" clip-rule="evenodd" d="M533 349C531.895 349 531 349.895 531 351V356C531 357.105 531.895 358 533 358H535.614L547.153 414.401C547.343 415.332 548.162 416 549.112 416H598.128C599.069 416 599.883 415.344 600.082 414.425L612.348 358H615C616.105 358 617 357.105 617 356V351C617 349.895 616.105 349 615 349H533Z" fill="#153C6B"/>
<defs>
<filter id="filter0_d_345_2426" x="36" y="120" width="200.69" height="294.432" filterUnits="userSpaceOnUse" color-interpolation-filters="sRGB">
<feFlood flood-opacity="0" result="BackgroundImageFix"/>
<feColorMatrix in="SourceAlpha" type="matrix" values="0 0 0 0 0 0 0 0 0 0 0 0 0 0 0 0 0 0 127 0" result="hardAlpha"/>
<feOffset/>
<feComposite in2="hardAlpha" operator="out"/>
<feColorMatrix type="matrix" values="0 0 0 0 0.247059 0 0 0 0 0.831373 0 0 0 0 0.972549 0 0 0 1 0"/>
<feBlend mode="normal" in2="BackgroundImageFix" result="effect1_dropShadow_345_2426"/>
<feBlend mode="normal" in="SourceGraphic" in2="effect1_dropShadow_345_2426" result="shape"/>
</filter>
</defs>
</svg>
