<svg width="563" height="354" viewBox="0 0 563 354" fill="none" xmlns="http://www.w3.org/2000/svg">
<g clip-path="url(#clip0_334_2205)">
<path d="M563.001 145.391H562.05V119.334C562.05 117.353 561.66 115.392 560.902 113.563C560.144 111.733 559.034 110.07 557.634 108.67C556.234 107.269 554.572 106.159 552.743 105.401C550.914 104.643 548.954 104.253 546.974 104.253H491.789C489.809 104.253 487.848 104.643 486.019 105.401C484.19 106.159 482.528 107.269 481.128 108.67C479.729 110.07 478.618 111.733 477.86 113.563C477.103 115.392 476.713 117.353 476.713 119.334V262.287C476.713 264.267 477.103 266.229 477.86 268.058C478.618 269.888 479.729 271.551 481.128 272.951C482.528 274.352 484.19 275.462 486.019 276.22C487.848 276.978 489.809 277.368 491.789 277.368H546.974C548.954 277.368 550.914 276.978 552.743 276.22C554.572 275.462 556.234 274.352 557.634 272.951C559.034 271.551 560.144 269.888 560.902 268.058C561.66 266.229 562.05 264.267 562.05 262.287V163.94H563.001V145.391Z" fill="#153C6B"/>
<path d="M558.842 120.22V262.965C558.841 265.952 557.655 268.817 555.543 270.93C553.432 273.042 550.568 274.229 547.582 274.229H492.131C490.652 274.229 489.189 273.938 487.823 273.371C486.457 272.805 485.216 271.975 484.171 270.929C483.126 269.883 482.297 268.642 481.732 267.275C481.166 265.909 480.875 264.444 480.876 262.965V120.22C480.876 117.234 482.062 114.37 484.172 112.259C486.283 110.147 489.146 108.961 492.131 108.961H498.858C498.528 109.773 498.403 110.654 498.493 111.527C498.583 112.399 498.885 113.236 499.374 113.964C499.864 114.691 500.524 115.288 501.297 115.701C502.071 116.113 502.934 116.33 503.81 116.331H535.426C536.304 116.332 537.168 116.118 537.943 115.706C538.718 115.294 539.38 114.697 539.869 113.968C540.359 113.24 540.661 112.402 540.75 111.528C540.839 110.655 540.711 109.773 540.378 108.961H547.582C550.567 108.961 553.43 110.147 555.542 112.258C557.653 114.37 558.84 117.233 558.842 120.22Z" fill="#CAE2FF"/>
<path d="M548.344 182.043H483.884V199.443H548.344V182.043Z" fill="#3FD4F8"/>
<path d="M550.901 196.372H488.488C488.081 196.372 487.691 196.21 487.403 195.922C487.115 195.634 486.954 195.244 486.953 194.837V179.484C486.954 179.077 487.115 178.687 487.403 178.399C487.691 178.111 488.081 177.949 488.488 177.948H550.901C551.308 177.949 551.698 178.111 551.986 178.399C552.274 178.687 552.436 179.077 552.436 179.484V194.837C552.436 195.244 552.274 195.634 551.986 195.922C551.698 196.21 551.308 196.372 550.901 196.372ZM488.488 178.972C488.352 178.972 488.222 179.026 488.126 179.122C488.03 179.218 487.976 179.348 487.976 179.484V194.837C487.976 194.973 488.03 195.103 488.126 195.199C488.222 195.295 488.352 195.349 488.488 195.349H550.901C551.037 195.349 551.167 195.295 551.263 195.199C551.359 195.103 551.413 194.973 551.413 194.837V179.484C551.413 179.348 551.359 179.218 551.263 179.122C551.167 179.026 551.037 178.972 550.901 178.972H488.488Z" fill="#153C6B"/>
<path d="M499.231 191.767H491.046V192.79H499.231V191.767Z" fill="#153C6B"/>
<path d="M510.486 191.767H502.301V192.79H510.486V191.767Z" fill="#153C6B"/>
<path d="M521.741 191.767H513.556V192.79H521.741V191.767Z" fill="#153C6B"/>
<path d="M532.996 191.767H524.811V192.79H532.996V191.767Z" fill="#153C6B"/>
<path d="M544.251 191.767H536.065V192.79H544.251V191.767Z" fill="#153C6B"/>
<path opacity="0.1" d="M558.842 248.451V262.965C558.841 265.952 557.655 268.817 555.543 270.93C553.432 273.042 550.568 274.229 547.582 274.229H492.131C490.652 274.229 489.189 273.938 487.823 273.371C486.457 272.805 485.216 271.975 484.171 270.929C483.126 269.883 482.297 268.642 481.732 267.275C481.166 265.908 480.875 264.444 480.876 262.965V196.198L558.842 248.451Z" fill="black"/>
<path d="M293.062 235.268H51.082V354H293.062V235.268Z" fill="#CAE2FF"/>
<path opacity="0.1" d="M231.544 354H52.1052C51.8341 353.999 51.5743 353.891 51.3826 353.699C51.1909 353.508 51.0828 353.248 51.082 352.976V236.291C51.0828 236.02 51.1909 235.76 51.3826 235.568C51.5743 235.376 51.8341 235.268 52.1052 235.268H54.3766L231.544 354Z" fill="black"/>
<path d="M538.112 251.133H163.12V252.156H538.112V251.133Z" fill="#153C6B"/>
<path d="M281.676 2.20973H174.504V0H125.908V2.20973H18.2943C17.3423 2.20973 16.3996 2.39731 15.5201 2.76176C14.6405 3.12622 13.8414 3.6604 13.1682 4.33382C12.495 5.00724 11.9611 5.8067 11.5967 6.68657C11.2324 7.56643 11.0449 8.50946 11.0449 9.46182V156.268C11.0449 158.192 11.8087 160.036 13.1682 161.396C14.5277 162.756 16.3716 163.52 18.2943 163.52H281.676C283.598 163.52 285.442 162.756 286.802 161.396C288.161 160.036 288.925 158.192 288.925 156.268V9.46182C288.925 8.50946 288.738 7.56643 288.373 6.68657C288.009 5.8067 287.475 5.00724 286.802 4.33382C286.129 3.6604 285.329 3.12622 284.45 2.76176C283.57 2.39731 282.628 2.20973 281.676 2.20973Z" fill="#153C6B"/>
<path d="M279.203 15.0242H20.7656V160.871H279.203V15.0242Z" fill="#CAE2FF"/>
<path d="M149.764 11.0487C151.228 11.0487 152.415 9.86153 152.415 8.39704C152.415 6.93256 151.228 5.74536 149.764 5.74536C148.3 5.74536 147.113 6.93256 147.113 8.39704C147.113 9.86153 148.3 11.0487 149.764 11.0487Z" fill="#3FD4F8"/>
<path d="M97.6367 69.4517H91.4976C91.0907 69.4513 90.7006 69.2894 90.4129 69.0016C90.1252 68.7137 89.9633 68.3235 89.9629 67.9164V61.7751C89.9633 61.368 90.1252 60.9778 90.4129 60.6899C90.7006 60.4021 91.0907 60.2402 91.4976 60.2397H97.6367C98.0436 60.2402 98.4337 60.4021 98.7214 60.6899C99.0091 60.9778 99.171 61.368 99.1714 61.7751V67.9164C99.171 68.3235 99.0091 68.7137 98.7214 69.0016C98.4337 69.2894 98.0436 69.4513 97.6367 69.4517ZM91.4976 61.2633C91.362 61.2635 91.232 61.3175 91.1361 61.4134C91.0402 61.5093 90.9862 61.6394 90.9861 61.7751V67.9164C90.9862 68.0521 91.0402 68.1822 91.1361 68.2781C91.232 68.374 91.362 68.428 91.4976 68.4282H97.6367C97.7723 68.428 97.9023 68.374 97.9982 68.2781C98.0941 68.1822 98.1481 68.0521 98.1483 67.9164V61.7751C98.1481 61.6394 98.0941 61.5093 97.9982 61.4134C97.9023 61.3175 97.7723 61.2635 97.6367 61.2633H91.4976Z" fill="#153C6B"/>
<path d="M207.116 68.4282H90.4746V69.4518H207.116V68.4282Z" fill="#153C6B"/>
<path d="M204.047 96.5759H176.933V104.764H204.047V96.5759Z" fill="#3FD4F8"/>
<path d="M206.093 102.717H181.025C180.618 102.717 180.228 102.555 179.94 102.267C179.653 101.979 179.491 101.589 179.49 101.182V95.0405C179.491 94.6334 179.653 94.2431 179.94 93.9553C180.228 93.6675 180.618 93.5056 181.025 93.5051H206.093C206.5 93.5056 206.89 93.6675 207.177 93.9553C207.465 94.2431 207.627 94.6334 207.627 95.0405V101.182C207.627 101.589 207.465 101.979 207.177 102.267C206.89 102.555 206.5 102.717 206.093 102.717ZM181.025 94.5287C180.889 94.5289 180.759 94.5828 180.663 94.6788C180.568 94.7747 180.514 94.9048 180.513 95.0405V101.182C180.514 101.317 180.568 101.448 180.663 101.543C180.759 101.639 180.889 101.693 181.025 101.694H206.093C206.228 101.693 206.358 101.639 206.454 101.543C206.55 101.448 206.604 101.317 206.604 101.182V95.0405C206.604 94.9048 206.55 94.7747 206.454 94.6788C206.358 94.5828 206.228 94.5289 206.093 94.5287H181.025Z" fill="#153C6B"/>
<path d="M411.239 105.788H360.08V141.612H411.239V105.788Z" fill="#3FD4F8"/>
<path d="M416.355 138.798H367.243C366.7 138.797 366.18 138.581 365.796 138.197C365.413 137.814 365.197 137.293 365.196 136.75V102.973C365.197 102.43 365.413 101.91 365.796 101.526C366.18 101.142 366.7 100.927 367.243 100.926H416.355C416.897 100.927 417.418 101.142 417.801 101.526C418.185 101.91 418.401 102.43 418.401 102.973V136.75C418.401 137.293 418.185 137.814 417.801 138.197C417.418 138.581 416.897 138.797 416.355 138.798ZM367.243 102.973V136.75H416.356L416.355 102.973H367.243Z" fill="#153C6B"/>
<path d="M410.727 101.694H408.681C408.681 97.2144 406.902 92.9187 403.736 89.7515C400.57 86.5843 396.276 84.8049 391.799 84.8049C387.321 84.8049 383.027 86.5843 379.861 89.7515C376.695 92.9187 374.916 97.2144 374.916 101.694H372.87C372.87 96.6715 374.864 91.8551 378.414 88.304C381.964 84.7528 386.779 82.7578 391.799 82.7578C396.819 82.7578 401.634 84.7528 405.183 88.304C408.733 91.8551 410.727 96.6715 410.727 101.694Z" fill="#153C6B"/>
<path d="M396.915 115.768C396.916 114.876 396.684 114 396.243 113.226C395.801 112.452 395.165 111.807 394.398 111.354C393.631 110.901 392.759 110.656 391.868 110.644C390.977 110.632 390.099 110.853 389.319 111.285C388.54 111.717 387.887 112.345 387.425 113.107C386.963 113.868 386.707 114.738 386.684 115.629C386.661 116.52 386.871 117.401 387.293 118.186C387.715 118.971 388.335 119.632 389.09 120.104V125.597C389.09 125.953 389.16 126.305 389.296 126.634C389.433 126.962 389.632 127.261 389.884 127.513C390.135 127.764 390.434 127.964 390.762 128.1C391.091 128.236 391.443 128.306 391.799 128.306C392.517 128.306 393.206 128.021 393.714 127.513C394.222 127.004 394.507 126.315 394.507 125.597V120.104C395.243 119.645 395.851 119.006 396.272 118.247C396.693 117.489 396.914 116.635 396.915 115.768Z" fill="#153C6B"/>
<path d="M153.655 287.981H145.47V289.004H153.655V287.981Z" fill="#153C6B"/>
<path d="M164.91 287.981H156.725V289.004H164.91V287.981Z" fill="#153C6B"/>
<path d="M176.165 287.981H167.979V289.004H176.165V287.981Z" fill="#153C6B"/>
<path d="M187.42 287.981H179.234V289.004H187.42V287.981Z" fill="#153C6B"/>
<path d="M198.675 287.981H190.489V289.004H198.675V287.981Z" fill="#153C6B"/>
<path d="M303.806 345.3H63.8725C63.33 345.299 62.8098 345.083 62.4262 344.7C62.0425 344.316 61.8268 343.795 61.8262 343.253V226.567C61.8268 226.025 62.0425 225.504 62.4262 225.121C62.8098 224.737 63.33 224.521 63.8725 224.52H303.806C304.348 224.521 304.869 224.737 305.252 225.12C305.636 225.504 305.852 226.025 305.852 226.567V343.253C305.852 343.795 305.636 344.316 305.252 344.7C304.869 345.083 304.348 345.299 303.806 345.3ZM63.8725 226.567V343.253H303.807L303.806 226.567H63.8725Z" fill="#153C6B"/>
<path d="M74.6154 243.968C76.3107 243.968 77.6849 242.593 77.6849 240.897C77.6849 239.201 76.3107 237.826 74.6154 237.826C72.9202 237.826 71.5459 239.201 71.5459 240.897C71.5459 242.593 72.9202 243.968 74.6154 243.968Z" fill="#153C6B"/>
<path d="M85.3586 243.968C87.0538 243.968 88.4281 242.593 88.4281 240.897C88.4281 239.201 87.0538 237.826 85.3586 237.826C83.6633 237.826 82.2891 239.201 82.2891 240.897C82.2891 242.593 83.6633 243.968 85.3586 243.968Z" fill="#153C6B"/>
<path d="M96.1017 243.968C97.797 243.968 99.1713 242.593 99.1713 240.897C99.1713 239.201 97.797 237.826 96.1017 237.826C94.4065 237.826 93.0322 239.201 93.0322 240.897C93.0322 242.593 94.4065 243.968 96.1017 243.968Z" fill="#153C6B"/>
<path d="M206.605 295.145H137.541C137.134 295.145 136.744 294.983 136.456 294.695C136.168 294.407 136.006 294.017 136.006 293.61V276.21C136.006 275.803 136.168 275.412 136.456 275.124C136.744 274.837 137.134 274.675 137.541 274.674H206.605C207.012 274.675 207.402 274.837 207.689 275.124C207.977 275.412 208.139 275.803 208.139 276.21V293.61C208.139 294.017 207.977 294.407 207.689 294.695C207.402 294.983 207.012 295.145 206.605 295.145ZM137.541 275.698C137.405 275.698 137.275 275.752 137.179 275.848C137.083 275.944 137.029 276.074 137.029 276.21V293.61C137.029 293.746 137.083 293.876 137.179 293.972C137.275 294.068 137.405 294.122 137.541 294.122H206.605C206.74 294.122 206.87 294.068 206.966 293.972C207.062 293.876 207.116 293.746 207.116 293.61V276.21C207.116 276.074 207.062 275.944 206.966 275.848C206.87 275.752 206.74 275.698 206.605 275.698H137.541Z" fill="#153C6B"/>
<path d="M223.999 295.657C229.084 295.657 233.207 291.533 233.207 286.445C233.207 281.358 229.084 277.233 223.999 277.233C218.913 277.233 214.79 281.358 214.79 286.445C214.79 291.533 218.913 295.657 223.999 295.657Z" fill="#3FD4F8"/>
<path d="M227.068 294.634C225.145 294.634 223.266 294.064 221.668 292.995C220.069 291.927 218.823 290.408 218.088 288.631C217.352 286.854 217.159 284.899 217.534 283.013C217.909 281.127 218.835 279.394 220.195 278.034C221.554 276.674 223.286 275.748 225.171 275.373C227.057 274.998 229.011 275.19 230.788 275.926C232.564 276.662 234.082 277.909 235.15 279.508C236.218 281.107 236.788 282.987 236.788 284.91C236.785 287.488 235.76 289.96 233.938 291.783C232.115 293.605 229.645 294.631 227.068 294.634ZM227.068 276.21C225.348 276.21 223.666 276.72 222.236 277.676C220.806 278.632 219.691 279.991 219.033 281.581C218.375 283.17 218.202 284.92 218.538 286.607C218.874 288.295 219.702 289.845 220.918 291.062C222.134 292.279 223.684 293.107 225.371 293.443C227.058 293.779 228.807 293.607 230.396 292.948C231.985 292.29 233.343 291.174 234.299 289.744C235.255 288.313 235.765 286.631 235.765 284.91C235.762 282.603 234.845 280.392 233.215 278.761C231.584 277.13 229.374 276.212 227.068 276.21Z" fill="#153C6B"/>
<path d="M227.205 288.542L222.252 283.587L223.699 282.139L226.931 285.373L235.952 272.55L237.625 273.728L227.205 288.542Z" fill="#153C6B"/>
<path opacity="0.1" d="M221.906 160.871H20.7656V26.0735L221.906 160.871Z" fill="black"/>
<path d="M296.181 158.217H270.959V156.399C270.959 156.352 270.95 156.305 270.932 156.261C270.913 156.217 270.887 156.178 270.853 156.144C270.82 156.111 270.78 156.084 270.737 156.066C270.693 156.048 270.646 156.039 270.599 156.039H261.951C261.904 156.039 261.857 156.048 261.813 156.066C261.769 156.084 261.73 156.111 261.696 156.144C261.663 156.178 261.636 156.217 261.618 156.261C261.6 156.305 261.591 156.352 261.591 156.399V158.217H256.186V156.399C256.186 156.352 256.177 156.305 256.159 156.261C256.14 156.217 256.114 156.178 256.08 156.144C256.047 156.111 256.007 156.084 255.964 156.066C255.92 156.048 255.873 156.039 255.826 156.039H247.178C247.131 156.039 247.084 156.048 247.04 156.066C246.996 156.084 246.957 156.111 246.923 156.144C246.89 156.178 246.863 156.217 246.845 156.261C246.827 156.305 246.818 156.352 246.818 156.399V158.217H241.413V156.399C241.413 156.352 241.404 156.305 241.385 156.261C241.367 156.217 241.341 156.178 241.307 156.144C241.274 156.111 241.234 156.084 241.19 156.066C241.147 156.048 241.1 156.039 241.053 156.039H232.405C232.358 156.039 232.311 156.048 232.267 156.066C232.223 156.084 232.184 156.111 232.15 156.144C232.117 156.178 232.09 156.217 232.072 156.261C232.054 156.305 232.045 156.352 232.045 156.399V158.217H226.64V156.399C226.64 156.352 226.631 156.305 226.612 156.261C226.594 156.217 226.568 156.178 226.534 156.144C226.501 156.111 226.461 156.084 226.417 156.066C226.374 156.048 226.327 156.039 226.28 156.039H217.632C217.585 156.039 217.538 156.048 217.494 156.066C217.45 156.084 217.411 156.111 217.377 156.144C217.344 156.178 217.317 156.217 217.299 156.261C217.281 156.305 217.272 156.352 217.272 156.399V158.217H211.867V156.399C211.867 156.352 211.858 156.305 211.839 156.261C211.821 156.217 211.795 156.178 211.761 156.144C211.728 156.111 211.688 156.084 211.644 156.066C211.601 156.048 211.554 156.039 211.507 156.039H202.859C202.812 156.039 202.765 156.048 202.721 156.066C202.677 156.084 202.638 156.111 202.604 156.144C202.571 156.178 202.544 156.217 202.526 156.261C202.508 156.305 202.499 156.352 202.499 156.399V158.217H197.094V156.399C197.094 156.352 197.085 156.305 197.066 156.261C197.048 156.217 197.022 156.178 196.988 156.144C196.955 156.111 196.915 156.084 196.871 156.066C196.828 156.048 196.781 156.039 196.734 156.039H188.086C188.039 156.039 187.992 156.048 187.948 156.066C187.904 156.084 187.865 156.111 187.831 156.144C187.798 156.178 187.771 156.217 187.753 156.261C187.735 156.305 187.726 156.352 187.726 156.399V158.217H182.321V156.399C182.321 156.352 182.311 156.305 182.293 156.261C182.275 156.217 182.249 156.178 182.215 156.144C182.182 156.111 182.142 156.084 182.098 156.066C182.055 156.048 182.008 156.039 181.96 156.039H114.221C114.173 156.039 114.127 156.048 114.083 156.066C114.039 156.084 113.999 156.111 113.966 156.144C113.932 156.178 113.906 156.217 113.888 156.261C113.87 156.305 113.86 156.352 113.86 156.399V158.217H108.456V156.399C108.456 156.352 108.446 156.305 108.428 156.261C108.41 156.217 108.384 156.178 108.35 156.144C108.317 156.111 108.277 156.084 108.233 156.066C108.19 156.048 108.143 156.039 108.095 156.039H99.4477C99.4004 156.039 99.3535 156.048 99.3098 156.066C99.2661 156.084 99.2264 156.111 99.1929 156.144C99.1595 156.178 99.1329 156.217 99.1148 156.261C99.0967 156.305 99.0874 156.352 99.0874 156.399V158.217H93.6826V156.399C93.6826 156.352 93.6733 156.305 93.6552 156.261C93.6371 156.217 93.6105 156.178 93.5771 156.144C93.5436 156.111 93.5039 156.084 93.4602 156.066C93.4165 156.048 93.3696 156.039 93.3223 156.039H84.6747C84.6274 156.039 84.5805 156.048 84.5368 156.066C84.4931 156.084 84.4534 156.111 84.4199 156.144C84.3864 156.178 84.3599 156.217 84.3418 156.261C84.3237 156.305 84.3144 156.352 84.3144 156.399V158.217H78.9096V156.399C78.9096 156.352 78.9003 156.305 78.8822 156.261C78.8641 156.217 78.8375 156.178 78.8041 156.144C78.7706 156.111 78.7309 156.084 78.6872 156.066C78.6434 156.048 78.5966 156.039 78.5493 156.039H69.9017C69.8543 156.039 69.8075 156.048 69.7638 156.066C69.7201 156.084 69.6803 156.111 69.6469 156.144C69.6134 156.178 69.5869 156.217 69.5688 156.261C69.5507 156.305 69.5413 156.352 69.5413 156.399V158.217H64.1366V156.399C64.1366 156.352 64.1272 156.305 64.1091 156.261C64.091 156.217 64.0645 156.178 64.031 156.144C63.9976 156.111 63.9579 156.084 63.9141 156.066C63.8704 156.048 63.8236 156.039 63.7762 156.039H55.1286C55.0813 156.039 55.0344 156.048 54.9907 156.066C54.947 156.084 54.9073 156.111 54.8738 156.144C54.8404 156.178 54.8138 156.217 54.7957 156.261C54.7776 156.305 54.7683 156.352 54.7683 156.399V158.217H49.3636V156.399C49.3636 156.352 49.3542 156.305 49.3361 156.261C49.318 156.217 49.2915 156.178 49.258 156.144C49.2246 156.111 49.1848 156.084 49.1411 156.066C49.0974 156.048 49.0506 156.039 49.0032 156.039H40.3556C40.3083 156.039 40.2614 156.048 40.2177 156.066C40.174 156.084 40.1343 156.111 40.1008 156.144C40.0673 156.178 40.0408 156.217 40.0227 156.261C40.0046 156.305 39.9953 156.352 39.9953 156.399V158.217H34.5905V156.399C34.5905 156.352 34.5812 156.305 34.5631 156.261C34.545 156.217 34.5184 156.178 34.485 156.144C34.4515 156.111 34.4118 156.084 34.3681 156.066C34.3244 156.048 34.2775 156.039 34.2302 156.039H25.5826C25.5352 156.039 25.4884 156.048 25.4447 156.066C25.401 156.084 25.3612 156.111 25.3278 156.144C25.2943 156.178 25.2678 156.217 25.2497 156.261C25.2316 156.305 25.2222 156.352 25.2222 156.399V158.217H8.64762C7.512 158.217 6.3875 158.441 5.33832 158.875C4.28914 159.31 3.33583 159.947 2.53283 160.751C1.72982 161.554 1.09284 162.508 0.65826 163.557C0.223676 164.607 -6.71822e-07 165.732 0 166.868V170.78C5.42723e-06 173.074 0.911094 175.274 2.53284 176.897C4.15458 178.519 6.35414 179.43 8.64762 179.43H296.181C297.317 179.43 298.441 179.207 299.491 178.772C300.54 178.337 301.493 177.7 302.296 176.897C303.099 176.093 303.736 175.14 304.171 174.09C304.605 173.041 304.829 171.916 304.829 170.78V166.868C304.829 165.732 304.605 164.607 304.171 163.557C303.736 162.508 303.099 161.554 302.296 160.751C301.493 159.947 300.54 159.31 299.491 158.875C298.441 158.441 297.317 158.217 296.181 158.217Z" fill="#153C6B"/>
<path d="M217.348 111.417H82.2896C81.8827 111.417 81.4926 111.255 81.2049 110.967C80.9172 110.679 80.7553 110.289 80.7549 109.882V53.5866C80.7553 53.1795 80.9172 52.7893 81.2049 52.5014C81.4926 52.2136 81.8827 52.0517 82.2896 52.0513H217.348C217.755 52.0517 218.145 52.2136 218.433 52.5014C218.721 52.7893 218.882 53.1795 218.883 53.5866V109.882C218.882 110.289 218.721 110.679 218.433 110.967C218.145 111.255 217.755 111.417 217.348 111.417ZM82.2896 53.0748C82.154 53.075 82.024 53.129 81.9281 53.2249C81.8322 53.3209 81.7782 53.4509 81.7781 53.5866V109.882C81.7782 110.018 81.8322 110.148 81.9281 110.244C82.024 110.34 82.154 110.394 82.2896 110.394H217.348C217.484 110.394 217.614 110.34 217.71 110.244C217.806 110.148 217.86 110.018 217.86 109.882V53.5866C217.86 53.4509 217.806 53.3209 217.71 53.2249C217.614 53.129 217.484 53.075 217.348 53.0748H82.2896Z" fill="#153C6B"/>
<path d="M97.6367 84.805H91.4976C91.0907 84.8046 90.7006 84.6427 90.4129 84.3548C90.1252 84.067 89.9633 83.6767 89.9629 83.2697V77.1284C89.9633 76.7213 90.1252 76.331 90.4129 76.0432C90.7006 75.7554 91.0907 75.5935 91.4976 75.593H97.6367C98.0436 75.5935 98.4337 75.7554 98.7214 76.0432C99.0091 76.331 99.171 76.7213 99.1714 77.1284V83.2697C99.171 83.6767 99.0091 84.067 98.7214 84.3548C98.4337 84.6427 98.0436 84.8046 97.6367 84.805ZM91.4976 76.6166C91.362 76.6167 91.232 76.6707 91.1361 76.7667C91.0402 76.8626 90.9862 76.9927 90.9861 77.1284V83.2697C90.9862 83.4054 91.0402 83.5354 91.1361 83.6314C91.232 83.7273 91.362 83.7813 91.4976 83.7815H97.6367C97.7723 83.7813 97.9023 83.7273 97.9982 83.6314C98.0941 83.5354 98.1481 83.4054 98.1483 83.2697V77.1284C98.1481 76.9927 98.0941 76.8626 97.9982 76.7667C97.9023 76.6707 97.7723 76.6167 97.6367 76.6166H91.4976Z" fill="#153C6B"/>
<path d="M207.116 83.7815H90.4746V84.805H207.116V83.7815Z" fill="#153C6B"/>
<path d="M510.486 138.03H135.494V139.053H510.486V138.03Z" fill="#153C6B"/>
<path d="M135.494 145.195C139.45 145.195 142.656 141.987 142.656 138.03C142.656 134.073 139.45 130.865 135.494 130.865C131.539 130.865 128.332 134.073 128.332 138.03C128.332 141.987 131.539 145.195 135.494 145.195Z" fill="#153C6B"/>
<path d="M510.486 144.683C513.594 144.683 516.113 142.162 516.113 139.053C516.113 135.944 513.594 133.424 510.486 133.424C507.378 133.424 504.858 135.944 504.858 139.053C504.858 142.162 507.378 144.683 510.486 144.683Z" fill="#153C6B"/>
<path d="M538.112 257.786C541.22 257.786 543.739 255.265 543.739 252.156C543.739 249.047 541.22 246.527 538.112 246.527C535.004 246.527 532.484 249.047 532.484 252.156C532.484 255.265 535.004 257.786 538.112 257.786Z" fill="#153C6B"/>
<path d="M164.655 257.786C167.763 257.786 170.282 255.265 170.282 252.156C170.282 249.047 167.763 246.527 164.655 246.527C161.547 246.527 159.027 249.047 159.027 252.156C159.027 255.265 161.547 257.786 164.655 257.786Z" fill="#153C6B"/>
</g>
<defs>
<clipPath id="clip0_334_2205">
<rect width="563" height="354" fill="white"/>
</clipPath>
</defs>
</svg>
