<svg width="269" height="153" viewBox="0 0 269 153" fill="none" xmlns="http://www.w3.org/2000/svg">
<g clip-path="url(#clip0_333_2854)">
<path opacity="0.1" d="M269 100.9C269.015 108.655 266.89 116.266 262.858 122.9C262.858 131.013 259.063 138.366 252.907 143.725C251.366 145.067 249.707 146.268 247.95 147.313C247.88 147.358 247.807 147.4 247.734 147.442C247.602 147.519 247.471 147.597 247.337 147.676L247.212 147.749C241.385 150.986 234.818 152.666 228.147 152.628H51.0654C38.8546 152.628 27.8007 148.391 19.7918 141.544C11.7829 134.696 6.84736 125.22 6.84736 114.768C2.36264 107.886 -0.0164304 99.8519 8.54101e-05 91.6457C8.54101e-05 68.4132 18.6326 49.5793 41.6198 49.5793C42.4334 49.5793 43.24 49.6075 44.0418 49.652C58.4653 25.14 90.9992 8.04724 128.796 8.04724C152.032 8.04724 173.272 14.5033 189.542 25.1705C195.705 21.6985 202.665 19.8778 209.745 19.8861C232.727 19.8861 251.365 38.72 251.365 61.9525C251.361 63.4225 251.283 64.8913 251.129 66.3534C256.669 70.2617 261.185 75.4406 264.295 81.4531C267.405 87.4656 269.019 94.1354 269 100.9Z" fill="#153C6B"/>
<path opacity="0.1" d="M97.1128 114.185C148.02 114.185 189.288 113.083 189.288 111.724C189.288 110.365 148.02 109.263 97.1128 109.263C46.2061 109.263 4.93799 110.365 4.93799 111.724C4.93799 113.083 46.2061 114.185 97.1128 114.185Z" fill="#153C6B"/>
<g opacity="0.7">
<path d="M62.7824 93.5627H33.3899V109.732H62.7824V93.5627Z" fill="#65617D"/>
<path opacity="0.1" d="M52.6714 96.3749H43.7361V98.2497H52.6714V96.3749Z" fill="black"/>
<path opacity="0.1" d="M51.5545 96.6092H44.853V98.0152H51.5545V96.6092Z" fill="black"/>
<path d="M92.6452 93.5627H63.2527V109.732H92.6452V93.5627Z" fill="#65617D"/>
<path opacity="0.1" d="M82.5342 96.3749H73.5989V98.2497H82.5342V96.3749Z" fill="black"/>
<path opacity="0.1" d="M81.4173 96.6092H74.7158V98.0152H81.4173V96.6092Z" fill="black"/>
<path d="M62.7824 76.9247H33.3899V93.0942H62.7824V76.9247Z" fill="#65617D"/>
<path opacity="0.1" d="M52.6714 79.7367H43.7361V81.6114H52.6714V79.7367Z" fill="black"/>
<path opacity="0.1" d="M51.5545 79.9709H44.853V81.377H51.5545V79.9709Z" fill="black"/>
<path d="M92.6452 76.9247H63.2527V93.0942H92.6452V76.9247Z" fill="#65617D"/>
<path opacity="0.1" d="M82.5342 79.7367H73.5989V81.6114H82.5342V79.7367Z" fill="black"/>
<path opacity="0.1" d="M81.4173 79.9709H74.7158V81.377H81.4173V79.9709Z" fill="black"/>
<path d="M62.7824 60.0522H33.3899V76.2217H62.7824V60.0522Z" fill="#65617D"/>
<path opacity="0.1" d="M52.6714 62.8641H43.7361V64.7389H52.6714V62.8641Z" fill="black"/>
<path opacity="0.1" d="M51.5545 63.0987H44.853V64.5047H51.5545V63.0987Z" fill="black"/>
<path d="M92.6452 60.0522H63.2527V76.2217H92.6452V60.0522Z" fill="#65617D"/>
<path opacity="0.1" d="M82.5342 62.8641H73.5989V64.7389H82.5342V62.8641Z" fill="black"/>
<path opacity="0.1" d="M81.4173 63.0987H74.7158V64.5047H81.4173V63.0987Z" fill="black"/>
<path d="M92.6452 43.1797H63.2527V59.3492H92.6452V43.1797Z" fill="#65617D"/>
<path opacity="0.1" d="M82.5342 45.9918H73.5989V47.8665H82.5342V45.9918Z" fill="black"/>
<path opacity="0.1" d="M81.4173 46.2261H74.7158V47.6322H81.4173V46.2261Z" fill="black"/>
</g>
<g opacity="0.7">
<path d="M122.508 93.328H93.1155V109.497H122.508V93.328Z" fill="#65617D"/>
<path opacity="0.1" d="M112.397 96.1402H103.462V98.0149H112.397V96.1402Z" fill="black"/>
<path opacity="0.1" d="M111.28 96.3745H104.579V97.7806H111.28V96.3745Z" fill="black"/>
<path d="M152.371 93.328H122.978V109.497H152.371V93.328Z" fill="#65617D"/>
<path opacity="0.1" d="M142.26 96.1402H133.324V98.0149H142.26V96.1402Z" fill="black"/>
<path opacity="0.1" d="M141.143 96.3745H134.441V97.7806H141.143V96.3745Z" fill="black"/>
<path d="M122.508 76.69H93.1155V92.8595H122.508V76.69Z" fill="#65617D"/>
<path opacity="0.1" d="M112.397 79.502H103.462V81.3767H112.397V79.502Z" fill="black"/>
<path opacity="0.1" d="M111.28 79.7362H104.579V81.1422H111.28V79.7362Z" fill="black"/>
<path d="M152.371 76.69H122.978V92.8595H152.371V76.69Z" fill="#65617D"/>
<path opacity="0.1" d="M142.26 79.502H133.324V81.3767H142.26V79.502Z" fill="black"/>
<path opacity="0.1" d="M141.143 79.7362H134.441V81.1422H141.143V79.7362Z" fill="black"/>
<path d="M122.508 59.8175H93.1155V75.987H122.508V59.8175Z" fill="#65617D"/>
<path opacity="0.1" d="M112.397 62.6294H103.462V64.5041H112.397V62.6294Z" fill="black"/>
<path opacity="0.1" d="M111.28 62.864H104.579V64.27H111.28V62.864Z" fill="black"/>
<path d="M152.371 59.8175H122.978V75.987H152.371V59.8175Z" fill="#65617D"/>
<path opacity="0.1" d="M142.26 62.6294H133.324V64.5041H142.26V62.6294Z" fill="black"/>
<path opacity="0.1" d="M141.143 62.864H134.441V64.27H141.143V62.864Z" fill="black"/>
<path d="M152.371 42.9449H122.978V59.1144H152.371V42.9449Z" fill="#65617D"/>
<path opacity="0.1" d="M142.26 45.7571H133.324V47.6319H142.26V45.7571Z" fill="black"/>
<path opacity="0.1" d="M141.143 45.9914H134.441V47.3974H141.143V45.9914Z" fill="black"/>
</g>
<path opacity="0.1" d="M206.521 0.0256305C206.521 0.0256305 186.724 -1.16482 189.052 12.6612C189.052 12.6612 188.582 15.1054 190.811 16.2138C190.811 16.2138 190.846 15.1898 192.843 15.5389C193.554 15.6564 194.276 15.691 194.994 15.6421C195.965 15.5752 196.888 15.1952 197.623 14.5594C197.623 14.5594 203.189 12.2676 205.352 3.20328C205.352 3.20328 206.954 1.22545 206.89 0.716933L203.549 2.13938C203.549 2.13938 204.692 4.54136 203.784 6.53794C203.784 6.53794 203.676 2.22608 203.034 2.31982C202.904 2.34091 201.298 3.15173 201.298 3.15173C201.298 3.15173 203.262 7.3347 201.78 10.3764C201.78 10.3764 202.342 5.22095 200.685 3.45403L198.333 4.82257C198.333 4.82257 200.628 9.1438 199.072 12.6706C199.072 12.6706 199.471 7.26205 197.837 5.15533L195.707 6.81212C195.707 6.81212 197.863 11.0724 196.549 13.997C196.549 13.997 196.377 7.70027 195.246 7.22456C195.246 7.22456 193.381 8.86494 193.097 9.53515C193.097 9.53515 194.573 12.6284 193.656 14.2594C193.656 14.2594 193.094 10.0648 192.634 10.0413C192.634 10.0413 190.776 12.8206 190.583 14.7281C190.583 14.7281 190.663 11.8926 192.184 9.77652C192.184 9.77652 190.388 10.0835 189.339 11.2458C189.339 11.2458 189.628 9.27972 192.643 9.10865C192.643 9.10865 194.178 6.99959 194.588 6.8707C194.588 6.8707 191.592 6.6223 189.774 7.42375C189.774 7.42375 191.373 5.57012 195.138 6.41374L197.242 4.70071C197.242 4.70071 193.297 4.16408 191.622 4.75696C191.622 4.75696 193.548 3.11658 197.809 4.31405L200.104 2.95957C200.104 2.95957 196.739 2.2378 194.736 2.49089C194.736 2.49089 196.852 1.35434 200.776 2.58697L202.422 1.85348C202.422 1.85348 199.958 1.37074 199.236 1.29341C198.514 1.21608 198.477 1.01923 198.477 1.01923C200.038 0.759783 201.641 0.937451 203.107 1.53244C203.107 1.53244 206.582 0.243567 206.521 0.0256305Z" fill="#153C6B"/>
<path opacity="0.1" d="M182.104 3.54328C182.104 3.54328 173.169 3.0043 174.215 9.25415C174.215 9.25415 174.006 10.3579 175.008 10.8594C175.008 10.8594 175.024 10.3907 175.927 10.5524C176.248 10.6062 176.574 10.6219 176.898 10.5993C177.337 10.5695 177.754 10.3975 178.085 10.1095C178.085 10.1095 180.601 9.07605 181.58 4.97978C181.58 4.97978 182.302 4.08461 182.273 3.85495L180.764 4.49704C180.764 4.49704 181.281 5.58438 180.874 6.48659C180.874 6.48659 180.825 4.53688 180.536 4.58375C180.477 4.58375 179.75 4.95869 179.75 4.95869C179.75 4.95869 180.639 6.84982 179.969 8.22539C179.969 8.22539 180.223 5.89605 179.473 5.09695L178.41 5.71561C178.41 5.71561 179.449 7.66766 178.744 9.26118C178.744 9.26118 178.925 6.81701 178.187 5.86559L177.225 6.61313C177.225 6.61313 178.198 8.53941 177.606 9.86109C177.606 9.86109 177.528 7.01386 177.016 6.80061C177.016 6.80061 176.174 7.54112 176.044 7.84576C176.044 7.84576 176.712 9.2518 176.298 9.97826C176.298 9.97826 176.044 8.08245 175.828 8.07542C175.828 8.07542 174.991 9.33148 174.902 10.1845C174.944 9.3884 175.193 8.61701 175.626 7.94653C175.142 8.03797 174.694 8.26848 174.34 8.60971C174.34 8.60971 174.471 7.72391 175.833 7.64423C175.833 7.64423 176.538 6.69281 176.712 6.63422C176.712 6.63422 175.358 6.52174 174.537 6.88497C174.537 6.88497 175.259 6.04603 176.962 6.42801L177.902 5.65468C177.902 5.65468 176.12 5.42034 175.363 5.68046C175.363 5.68046 176.233 4.93995 178.158 5.47893L179.193 4.86261C179.193 4.86261 177.674 4.53454 176.766 4.65405C176.766 4.65405 177.723 4.1385 179.496 4.69623L180.237 4.36581C180.237 4.36581 179.122 4.14553 178.796 4.11272C178.469 4.07992 178.452 3.98852 178.452 3.98852C179.158 3.8715 179.883 3.95264 180.545 4.22286C180.545 4.22286 182.132 3.6417 182.104 3.54328Z" fill="#153C6B"/>
<path d="M52.716 151.093C57.9378 151.093 62.1709 150.38 62.1709 149.5C62.1709 148.619 57.9378 147.906 52.716 147.906C47.4941 147.906 43.261 148.619 43.261 149.5C43.261 150.38 47.4941 151.093 52.716 151.093Z" fill="#153C6B"/>
<path d="M56.6263 146.894C57.058 146.543 57.3721 146.07 57.5269 145.537C57.6444 145 57.414 144.365 56.8967 144.157C56.3182 143.936 55.6998 144.337 55.2319 144.74C54.764 145.143 54.2255 145.605 53.6141 145.518C53.9292 145.233 54.1649 144.871 54.2984 144.469C54.4319 144.066 54.4586 143.635 54.376 143.219C54.3492 143.047 54.2761 142.885 54.1644 142.751C53.8422 142.408 53.2614 142.554 52.8758 142.823C51.6531 143.681 51.3121 145.338 51.3051 146.826C51.1828 146.289 51.2863 145.729 51.2839 145.185C51.2816 144.642 51.1287 144.014 50.6608 143.725C50.3722 143.571 50.0477 143.495 49.7202 143.505C49.1723 143.484 48.5586 143.54 48.1848 143.941C47.7145 144.438 47.8391 145.272 48.2435 145.816C48.648 146.359 49.2664 146.709 49.8354 147.086C50.2906 147.356 50.6788 147.726 50.9712 148.166C51.0064 148.228 51.0348 148.293 51.0558 148.361H54.503C55.2739 147.969 55.9882 147.476 56.6263 146.894Z" fill="#153C6B"/>
<path d="M168.68 80.1465C168.661 79.969 168.597 79.7991 168.495 79.6525C168.392 79.506 168.255 79.3873 168.094 79.3075C167.959 79.2502 167.814 79.2205 167.668 79.2203C167.521 79.22 167.376 79.2492 167.241 79.306C167.105 79.3629 166.983 79.4463 166.881 79.5512C166.779 79.6561 166.699 79.7805 166.646 79.9168L161.424 90.8675L160.248 133.986H162.129L162.834 90.9636L168.581 80.8261C168.685 80.6156 168.72 80.3777 168.68 80.1465Z" fill="#3F3D56"/>
<path opacity="0.1" d="M252.907 143.725C251.366 145.067 249.707 146.268 247.95 147.313C247.923 147.352 247.892 147.388 247.858 147.421C247.672 147.579 247.45 147.69 247.212 147.744C241.385 150.981 234.817 152.661 228.147 152.623H98.8621C84.0483 151.105 75.0095 149.092 75.0095 146.882C75.0095 145.169 80.4366 143.573 89.781 142.237C90.7498 142.097 91.7601 141.961 92.812 141.83C93.4594 141.748 94.1217 141.67 94.7989 141.595L95.9487 141.462C96.8015 141.365 97.677 141.27 98.5752 141.178H98.6481L99.5887 141.084C100.383 141.002 101.195 140.925 102.022 140.85L102.624 140.796L104.16 140.66C105.157 140.571 106.176 140.486 107.217 140.405C108.08 140.338 108.958 140.27 109.85 140.203C118.894 139.535 129.32 139.032 140.665 138.706L143.906 138.596L144.997 138.572L147.301 138.521L148.225 138.502L149.196 138.483L149.887 138.472L153.132 138.42L154.8 138.397H155.14C159.083 138.35 163.099 138.325 167.189 138.324C175.273 138.324 183.113 138.42 190.583 138.603C194.872 138.706 199.03 138.837 203.057 138.996H203.095C214.706 139.451 225.099 140.121 233.701 140.953L233.858 140.97C236.066 141.183 238.157 141.41 240.118 141.645C241.964 141.865 243.697 142.097 245.305 142.333C245.862 142.415 246.403 142.5 246.93 142.582L247.064 142.605C249.293 142.964 251.249 143.329 252.907 143.725Z" fill="#153C6B"/>
<path d="M247.95 147.313C247.923 147.352 247.892 147.388 247.859 147.421C247.672 147.579 247.45 147.69 247.212 147.744C246.737 147.877 246.247 147.956 245.754 147.979H245.606C245.324 147.988 245.042 147.979 244.762 147.951C244.557 147.921 244.35 147.908 244.143 147.911H244.115C243.815 147.953 243.519 148.026 243.233 148.129C242.597 148.303 241.941 148.395 241.282 148.405H241.047C240.308 148.405 239.561 148.379 238.82 148.384C238.7 148.384 238.585 148.384 238.46 148.384C237.19 148.417 235.928 148.618 234.658 148.64H234.251C233.007 148.609 231.735 148.344 230.745 147.594C230.546 147.463 230.384 147.282 230.275 147.07C230.191 146.845 230.162 146.604 230.193 146.366C230.216 145.942 230.298 145.481 230.618 145.195C230.819 145.041 231.05 144.93 231.295 144.869C231.726 144.731 232.158 144.597 232.589 144.464C233.019 144.33 233.51 144.187 233.974 144.051L234.063 144.023L234.322 143.946L234.489 143.89C234.691 143.825 234.885 143.737 235.067 143.627C235.307 143.476 235.51 143.273 235.662 143.034C235.688 142.992 235.716 142.947 235.74 142.903C235.763 142.858 235.74 142.83 235.723 142.793C235.683 142.5 235.653 142.2 235.601 141.914C234.939 141.761 234.336 141.421 233.863 140.934C233.457 140.533 233.115 140.073 232.85 139.568C232.264 138.472 231.963 137.246 231.526 136.081C230.856 134.31 229.88 132.674 228.897 131.052C227.999 129.557 227.096 128.057 226.075 126.644C225.396 125.707 224.664 124.814 223.992 123.875C222.09 121.252 220.725 118.282 219.976 115.134C219.861 114.53 219.698 113.936 219.489 113.357C219.085 112.373 218.344 111.572 217.77 110.672C217.153 109.702 216.731 108.622 216.526 107.492C216.409 106.85 216.211 106.156 215.569 106.086L215.501 106.219C214.17 108.797 212.804 111.422 210.798 113.526C210.477 113.835 210.184 114.172 209.921 114.531C209.71 114.88 209.522 115.242 209.357 115.614C209.039 116.283 208.618 116.897 208.108 117.435C207.957 117.588 207.791 117.727 207.614 117.85C207.38 118.02 207.118 118.15 206.841 118.236C206.732 118.27 206.62 118.295 206.507 118.311C206.507 118.339 206.519 118.365 206.521 118.393C206.523 118.421 206.535 118.454 206.54 118.485C206.886 120.36 206.738 122.292 206.11 124.092C206.093 124.149 206.074 124.203 206.053 124.259C205.956 124.521 205.85 124.779 205.736 125.032C205.449 125.653 205.108 126.248 204.84 126.879C204.795 126.987 204.75 127.094 204.71 127.202C203.77 129.712 204.005 132.515 203.883 135.212C203.872 135.802 203.802 136.389 203.674 136.965C203.514 137.614 203.257 138.284 203.116 138.954C202.988 139.457 202.977 139.982 203.086 140.489L203.029 140.51C202.778 140.604 202.521 140.688 202.265 140.768V140.803C202.357 141.328 202.446 141.853 202.538 142.376C202.615 142.826 202.707 143.313 203.022 143.632C203.108 143.702 203.187 143.781 203.257 143.866C203.443 144.157 203.278 144.541 203.314 144.885C203.365 145.373 203.817 145.788 203.746 146.273C203.715 146.418 203.648 146.553 203.552 146.666C203.456 146.78 203.334 146.868 203.196 146.924C203.08 146.976 202.959 147.015 202.834 147.039L202.756 147.055C202.615 147.081 202.474 147.095 202.333 147.109C200.581 147.283 198.806 147.456 197.071 147.161C196.727 147.102 196.387 147.025 196.039 146.997C195.599 146.977 195.158 146.995 194.722 147.051C191.503 147.355 188.265 147.417 185.036 147.238C184.197 147.191 183.233 147.055 182.788 146.341C182.419 145.748 182.553 144.982 182.739 144.304C182.792 144.055 182.888 143.817 183.024 143.601C183.039 143.578 183.056 143.556 183.075 143.536C183.508 142.999 184.322 142.966 185.022 142.987L187.312 143.055C187.538 143.074 187.765 143.056 187.985 143.004C188.357 142.896 188.639 142.601 188.987 142.434C189.424 142.226 189.974 142.2 190.289 141.844L190.329 141.792C190.385 141.717 190.437 141.638 190.485 141.558C190.485 141.541 190.506 141.525 190.517 141.509C190.526 141.494 190.535 141.48 190.546 141.466C190.835 141.087 191.34 140.96 191.752 140.719C191.814 140.683 191.873 140.641 191.928 140.595L191.975 140.553C191.532 140.238 191.146 139.85 190.833 139.407C190.712 139.277 190.622 139.121 190.572 138.952C190.543 138.825 190.553 138.692 190.6 138.57C190.61 138.54 190.622 138.511 190.637 138.483L190.649 138.46C190.809 138.146 191.138 137.862 191.319 137.541C191.326 137.531 191.332 137.52 191.336 137.508C191.585 137.04 191.634 136.313 191.265 135.936C191.453 132.85 192.305 129.843 192.493 126.748C192.568 125.522 192.537 124.292 192.594 123.061C192.65 121.831 192.782 120.638 192.921 119.431C193.231 116.673 193.983 113.971 193.878 111.201C193.869 110.943 193.88 110.685 193.911 110.428C193.909 110.409 193.909 110.391 193.911 110.372C193.986 109.804 194.163 109.255 194.435 108.75C194.776 108.18 195.162 107.638 195.589 107.129C197.036 105.254 198.773 103.379 199.288 101.073C199.554 99.8828 200.142 98.7931 200.727 97.7222C201.073 97.0848 201.433 96.431 201.985 95.9623C202.284 95.7557 202.562 95.5203 202.815 95.2593C203.201 94.7625 203.215 94.0758 203.443 93.4853C203.561 93.1783 203.742 92.8971 203.831 92.5808C203.831 92.5479 203.848 92.5175 203.855 92.4847C203.907 92.1654 203.934 91.8426 203.937 91.5192C203.937 91.4254 203.951 91.3341 203.963 91.2427C204.1 90.3162 204.37 89.4142 204.765 88.5642C204.814 88.4564 204.861 88.3462 204.908 88.2384C203.823 87.6077 202.866 86.7803 202.086 85.799C201.822 85.4814 201.593 85.1365 201.402 84.7702C200.918 83.8117 200.807 82.7197 200.579 81.6699C200.034 79.1671 198.785 76.8097 198.611 74.2507C198.559 73.4703 198.611 72.6642 198.338 71.926C198.263 71.7264 198.174 71.5323 198.072 71.3449C198.03 71.2652 197.99 71.1855 197.948 71.1105L197.901 71.0215L197.781 70.7871L197.588 70.9371C192.778 74.691 187.727 78.129 182.469 81.2293L182.017 81.4965C181.782 81.6095 181.577 81.7765 181.42 81.9839C181.401 82.0144 181.385 82.0448 181.368 82.0753C181.26 82.2979 181.232 82.544 181.133 82.7783C180.921 83.3149 180.378 83.6571 179.823 83.8164C178.819 84.0737 177.755 83.937 176.849 83.4345C176.734 83.3759 176.614 83.3149 176.51 83.247C176.235 83.3989 175.945 83.5222 175.645 83.6149C174.704 83.8867 173.719 83.875 172.746 83.8727C171.772 83.8703 170.777 83.8727 169.856 84.1914C169.24 84.3999 168.642 84.7444 168.003 84.7772C167.929 84.7819 167.855 84.7819 167.782 84.7772C167.417 84.7355 167.062 84.6317 166.733 84.4702L166.54 84.3835C166.44 84.3363 166.343 84.2839 166.249 84.2265C166.146 84.1632 166.05 84.0885 165.964 84.0039C165.84 83.8794 165.749 83.7254 165.701 83.5563C165.669 83.4341 165.669 83.3059 165.701 83.1837C165.71 83.1289 165.738 83.079 165.781 83.0431C165.823 83.0184 165.871 83.0062 165.919 83.008C166.189 83.005 166.458 83.0278 166.724 83.0759C166.879 83.0972 167.037 83.1058 167.194 83.1017H167.279C167.417 83.0868 167.551 83.0438 167.673 82.9753C167.794 82.9068 167.9 82.8142 167.984 82.7033C168.01 82.669 168.03 82.6311 168.045 82.5908C168.074 82.525 168.088 82.454 168.087 82.3823C168.089 82.3643 168.089 82.3463 168.087 82.3284C167.989 82.2838 167.89 82.2393 167.796 82.1854C167.746 82.1596 167.699 82.1315 167.652 82.1034L167.624 82.0847C167.54 82.0274 167.461 81.9623 167.389 81.8902C167.343 81.845 167.303 81.7947 167.269 81.7402C167.207 81.6553 167.16 81.5601 167.13 81.459C166.937 81.4186 166.736 81.4242 166.545 81.4754C166.289 81.5457 166.03 81.6957 165.776 81.7472C165.648 81.7793 165.513 81.7736 165.388 81.7308C165.021 81.5996 164.892 81.1543 164.814 80.7724C164.8 80.6997 164.784 80.6247 164.772 80.5497C164.745 80.4057 164.745 80.2579 164.772 80.1139C164.886 79.7864 165.103 79.5045 165.39 79.3101L166.162 78.6656L166.218 78.6188C166.218 78.5555 166.192 78.4922 166.183 78.429C166.156 78.2841 166.156 78.1356 166.183 77.9907C166.297 77.6639 166.514 77.3827 166.801 77.1893L168.508 75.7575C168.828 75.4903 169.176 75.2091 169.592 75.181C170.211 75.1388 170.705 75.6497 171.168 76.0598C171.751 76.5753 172.459 76.9971 173.237 77.0487C173.608 77.0656 173.978 77.0148 174.33 76.8987L174.53 76.8331C174.488 76.7464 174.446 76.6597 174.406 76.573C174.337 76.43 174.269 76.2847 174.203 76.1395C175.205 76.0762 176.115 75.5278 176.875 74.8717C177.634 74.2155 178.285 73.4399 179.052 72.7954C179.88 72.0924 180.83 71.5698 181.669 70.8926C183.621 69.3155 184.916 66.9978 187.004 65.6082C187.729 65.1231 188.566 64.7365 189.06 64.0147C189.212 63.7804 189.328 63.546 189.485 63.3117C189.986 62.6087 190.844 62.2853 191.552 61.7978C192.26 61.3104 192.876 60.5957 193.452 59.9091C193.861 59.4193 194.273 58.9295 194.663 58.4257C195.023 57.7578 195.326 57.0595 195.702 56.401C196.022 55.8447 196.394 55.3204 196.814 54.8356C196.911 54.6481 197.01 54.4606 197.115 54.2779C197.221 54.0951 197.299 53.9709 197.398 53.8092C197.466 53.7037 197.536 53.603 197.609 53.4999C197.395 53.1226 197.191 52.7968 197.094 52.6539L197.047 52.5906C196.84 52.3704 196.618 52.1638 196.384 51.972C196.138 51.9349 195.895 51.8832 195.655 51.8173C194.204 51.4209 192.924 50.56 192.012 49.3671C191.1 48.1742 190.607 46.7155 190.609 45.2159C190.608 45.209 190.608 45.2018 190.609 45.1948C190.61 44.1209 190.866 43.0624 191.357 42.1062C191.456 41.9141 191.561 41.729 191.677 41.5485C191.569 41.5147 191.465 41.4724 191.364 41.422C191.192 41.3377 191.043 41.215 190.927 41.0634C190.831 40.9284 190.769 40.7726 190.746 40.6088C190.706 40.2226 190.764 39.8326 190.915 39.4746C190.979 39.3023 191.052 39.1333 191.134 38.9684C191.14 38.9588 191.145 38.9486 191.15 38.938C192.201 36.8289 194.442 35.533 196.68 35.4416C199.095 35.3455 201.447 36.4751 203.351 38.092C203.92 38.5567 204.428 39.0896 204.866 39.6785C205.86 41.0564 206.309 42.8186 206.441 44.5645C206.491 45.1044 206.481 45.6482 206.413 46.1861C206.388 46.3778 206.349 46.5674 206.295 46.7532C206.265 46.8633 206.225 46.9735 206.182 47.0836C206.14 47.1938 206.114 47.243 206.077 47.318V47.3297C206.041 47.4047 206.001 47.475 205.961 47.5453L205.94 47.5757L205.91 47.625C205.929 47.6695 205.95 47.7163 205.971 47.7609C205.992 47.8054 206.011 47.8476 206.034 47.8898H206.063C206.533 47.9273 206.968 47.9929 207.448 48.0304C207.673 48.041 207.897 48.0756 208.115 48.1335C208.586 48.2741 208.941 48.6162 209.336 48.8927C210.314 49.5817 211.518 49.9027 212.48 50.6151C213.89 51.665 214.596 53.3991 215.452 54.9528C216.58 57.0337 218.419 58.8053 219.23 61.0315C219.597 62.0423 219.966 63.0516 220.336 64.0592C221.057 66.0347 221.779 68.0196 222.76 69.8826C224.124 72.4744 225.969 74.8037 227.063 77.5267C227.171 77.7996 227.375 78.0243 227.637 78.1595C229.127 80.2562 230.451 82.4648 231.599 84.7655C232.203 85.9817 232.774 87.2448 232.951 88.5923C233.088 89.792 232.989 91.0069 232.657 92.1683C232.469 92.8583 232.239 93.536 231.968 94.1977C231.862 94.4294 231.783 94.6723 231.733 94.9218C231.733 94.9476 231.733 94.9734 231.733 94.9991C231.686 95.4491 231.857 95.8943 231.904 96.3443C231.944 96.7064 231.903 97.0728 231.784 97.4175C231.766 97.4714 231.745 97.5253 231.723 97.5792C231.578 97.8532 231.454 98.1385 231.354 98.4322C231.346 98.4677 231.339 98.5037 231.335 98.54C231.258 99.0485 231.46 99.5618 231.571 100.07C231.984 101.907 231.909 103.82 231.806 105.694C231.752 106.632 232.511 107.384 233.146 108.075C234.322 109.371 235.241 110.887 236.128 112.397C236.611 113.163 237.018 113.974 237.343 114.82C237.679 115.785 237.813 116.807 237.999 117.807C238.599 120.901 240.558 123.633 241.089 126.733C241.335 128.153 241.964 129.48 242.907 130.572C243.191 130.864 243.452 131.178 243.69 131.509C243.853 131.773 243.984 132.057 244.078 132.353C244.309 133.042 244.418 133.766 244.4 134.492C244.362 134.84 244.382 135.192 244.459 135.533C244.68 136.252 245.47 136.648 245.796 137.326C246.123 138.003 245.898 138.87 246.032 139.639C246.137 140.258 246.473 140.816 246.972 141.199C246.784 141.363 246.587 141.513 246.384 141.668C246.571 141.813 246.736 141.985 246.871 142.179C246.964 142.309 247.042 142.448 247.106 142.594C247.417 143.313 247.426 144.168 247.68 144.937C247.788 145.256 247.941 145.593 247.847 145.917C247.807 146.009 247.78 146.107 247.767 146.207C247.767 146.418 247.988 146.556 248.073 146.748C248.103 146.845 248.108 146.948 248.087 147.047C248.065 147.146 248.018 147.238 247.95 147.313Z" fill="url(#paint0_linear_333_2854)"/>
<path d="M198.185 55.9206C199.624 55.5339 200.906 54.7254 202.162 53.9263L206.538 51.1494C205.35 51.0557 204.325 50.212 203.716 49.1903C203.107 48.1686 202.855 46.9805 202.648 45.8135C200.767 46.5446 199.138 47.7843 197.619 49.0942C197.017 49.6121 195.738 50.3948 195.552 51.2033C195.366 52.0118 196.551 52.6679 197.01 53.2092C197.167 53.3897 198.651 55.7917 198.185 55.9206Z" fill="#FBBEBE"/>
<path opacity="0.1" d="M198.185 55.9206C199.624 55.5339 200.906 54.7254 202.162 53.9263L206.538 51.1494C205.35 51.0557 204.325 50.212 203.716 49.1903C203.107 48.1686 202.855 46.9805 202.648 45.8135C200.767 46.5446 199.138 47.7843 197.619 49.0942C197.017 49.6121 195.738 50.3948 195.552 51.2033C195.366 52.0118 196.551 52.6679 197.01 53.2092C197.167 53.3897 198.651 55.7917 198.185 55.9206Z" fill="black"/>
<path d="M174.274 78.8577C173.503 79.2514 172.682 79.6545 171.819 79.5982C171.043 79.549 170.335 79.1296 169.752 78.6164C169.282 78.2086 168.798 77.7001 168.179 77.7423C167.765 77.7704 167.417 78.0493 167.098 78.3141L165.393 79.7365C165.106 79.9287 164.889 80.2082 164.774 80.5333C164.741 80.7539 164.754 80.9791 164.814 81.1941C164.892 81.5737 165.021 82.0166 165.388 82.1455C165.755 82.2744 166.155 81.9979 166.543 81.8924C166.78 81.832 167.029 81.8365 167.263 81.9054C167.498 81.9743 167.71 82.105 167.876 82.2838C168.014 82.4196 168.098 82.6014 168.111 82.7946C168.111 83.2188 167.641 83.4977 167.208 83.5187C166.775 83.5398 166.362 83.3992 165.934 83.425C165.908 83.4218 165.882 83.4237 165.856 83.4307C165.831 83.4377 165.808 83.4496 165.788 83.4658C165.767 83.4819 165.75 83.502 165.738 83.5248C165.725 83.5476 165.718 83.5726 165.715 83.5984C165.688 83.7464 165.7 83.8988 165.748 84.0413C165.796 84.1838 165.879 84.312 165.99 84.4139C166.213 84.6172 166.474 84.7762 166.757 84.8826C167.086 85.0447 167.441 85.1478 167.805 85.1873C168.527 85.2341 169.19 84.8357 169.875 84.6037C170.796 84.2944 171.789 84.285 172.762 84.2874C173.736 84.2897 174.723 84.3038 175.657 84.032C176.59 83.7601 177.477 83.1579 177.841 82.2603C177.884 82.1766 177.898 82.081 177.881 81.9885C177.845 81.8898 177.775 81.8069 177.684 81.7542C176.371 80.7863 175.84 79.61 174.363 78.914L174.274 78.8577Z" fill="#FBBEBE"/>
<path opacity="0.1" d="M174.274 78.8577C173.503 79.2514 172.682 79.6545 171.819 79.5982C171.043 79.549 170.335 79.1296 169.752 78.6164C169.282 78.2086 168.798 77.7001 168.179 77.7423C167.765 77.7704 167.417 78.0493 167.098 78.3141L165.393 79.7365C165.106 79.9287 164.889 80.2082 164.774 80.5333C164.741 80.7539 164.754 80.9791 164.814 81.1941C164.892 81.5737 165.021 82.0166 165.388 82.1455C165.755 82.2744 166.155 81.9979 166.543 81.8924C166.78 81.832 167.029 81.8365 167.263 81.9054C167.498 81.9743 167.71 82.105 167.876 82.2838C168.014 82.4196 168.098 82.6014 168.111 82.7946C168.111 83.2188 167.641 83.4977 167.208 83.5187C166.775 83.5398 166.362 83.3992 165.934 83.425C165.908 83.4218 165.882 83.4237 165.856 83.4307C165.831 83.4377 165.808 83.4496 165.788 83.4658C165.767 83.4819 165.75 83.502 165.738 83.5248C165.725 83.5476 165.718 83.5726 165.715 83.5984C165.688 83.7464 165.7 83.8988 165.748 84.0413C165.796 84.1838 165.879 84.312 165.99 84.4139C166.213 84.6172 166.474 84.7762 166.757 84.8826C167.086 85.0447 167.441 85.1478 167.805 85.1873C168.527 85.2341 169.19 84.8357 169.875 84.6037C170.796 84.2944 171.789 84.285 172.762 84.2874C173.736 84.2897 174.723 84.3038 175.657 84.032C176.59 83.7601 177.477 83.1579 177.841 82.2603C177.884 82.1766 177.898 82.081 177.881 81.9885C177.845 81.8898 177.775 81.8069 177.684 81.7542C176.371 80.7863 175.84 79.61 174.363 78.914L174.274 78.8577Z" fill="black"/>
<path d="M201.809 53.8653C201.444 53.6306 201.03 53.4826 200.598 53.4326C200.167 53.3826 199.73 53.432 199.321 53.577C198.502 53.8711 197.767 54.3593 197.179 54.9995C196.592 55.5959 196.084 56.2644 195.667 56.989C195.267 57.692 194.961 58.4279 194.562 59.1285C193.856 60.3823 192.935 61.4883 192.008 62.5851C191.432 63.267 190.849 63.9583 190.111 64.4598C189.372 64.9613 188.547 65.2683 188.046 65.9642C187.888 66.1845 187.776 66.4329 187.62 66.6555C187.129 67.3726 186.294 67.7569 185.568 68.2373C183.484 69.6199 182.189 71.9212 180.242 73.4889C179.402 74.1638 178.455 74.6934 177.629 75.3824C176.86 76.0221 176.218 76.7884 175.452 77.4446C174.685 78.1007 173.785 78.642 172.785 78.703C173.453 80.1863 174.25 81.6416 175.395 82.7969C176.541 83.9522 178.257 84.6904 179.821 84.2381C180.376 84.0787 180.919 83.7413 181.131 83.207C181.197 82.9324 181.29 82.6648 181.408 82.4079C181.565 82.2017 181.769 82.0354 182.003 81.9228C188.28 78.2712 194.263 74.1399 199.899 69.5661C201.411 68.3381 202.912 67.2391 204.463 66.051C205.02 65.6576 205.534 65.2085 205.999 64.7105C206.646 63.9403 207.05 62.9965 207.161 61.9979C207.271 60.9992 207.083 59.9903 206.62 59.0981C206.204 58.4155 205.727 57.7716 205.195 57.1741C204.227 55.9186 203.087 54.8048 201.809 53.8653Z" fill="#153C6B"/>
<path opacity="0.1" d="M201.809 53.8653C201.444 53.6306 201.03 53.4826 200.598 53.4326C200.167 53.3826 199.73 53.432 199.321 53.577C198.502 53.8711 197.767 54.3593 197.179 54.9995C196.592 55.5959 196.084 56.2644 195.667 56.989C195.267 57.692 194.961 58.4279 194.562 59.1285C193.856 60.3823 192.935 61.4883 192.008 62.5851C191.432 63.267 190.849 63.9583 190.111 64.4598C189.372 64.9613 188.547 65.2683 188.046 65.9642C187.888 66.1845 187.776 66.4329 187.62 66.6555C187.129 67.3726 186.294 67.7569 185.568 68.2373C183.484 69.6199 182.189 71.9212 180.242 73.4889C179.402 74.1638 178.455 74.6934 177.629 75.3824C176.86 76.0221 176.218 76.7884 175.452 77.4446C174.685 78.1007 173.785 78.642 172.785 78.703C173.453 80.1863 174.25 81.6416 175.395 82.7969C176.541 83.9522 178.257 84.6904 179.821 84.2381C180.376 84.0787 180.919 83.7413 181.131 83.207C181.197 82.9324 181.29 82.6648 181.408 82.4079C181.565 82.2017 181.769 82.0354 182.003 81.9228C188.28 78.2712 194.263 74.1399 199.899 69.5661C201.411 68.3381 202.912 67.2391 204.463 66.051C205.02 65.6576 205.534 65.2085 205.999 64.7105C206.646 63.9403 207.05 62.9965 207.161 61.9979C207.271 60.9992 207.083 59.9903 206.62 59.0981C206.204 58.4155 205.727 57.7716 205.195 57.1741C204.227 55.9186 203.087 54.8048 201.809 53.8653Z" fill="black"/>
<path d="M191.705 140.799C191.293 141.033 190.788 141.164 190.498 141.544C190.404 141.666 190.341 141.809 190.24 141.926C189.927 142.291 189.372 142.308 188.937 142.516C188.589 142.68 188.307 142.985 187.938 143.081C187.717 143.133 187.489 143.151 187.263 143.133L184.977 143.065C184.253 143.043 183.404 143.081 182.983 143.669C182.847 143.885 182.749 144.123 182.696 144.372C182.52 145.045 182.377 145.806 182.746 146.397C183.188 147.1 184.157 147.243 184.991 147.29C188.216 147.468 191.45 147.405 194.665 147.102C195.1 147.047 195.539 147.029 195.977 147.048C196.325 147.076 196.666 147.154 197.009 147.212C198.742 147.505 200.515 147.334 202.265 147.161C202.561 147.147 202.852 147.085 203.128 146.978C203.265 146.922 203.387 146.834 203.482 146.721C203.578 146.608 203.644 146.473 203.676 146.329C203.749 145.846 203.295 145.436 203.245 144.951C203.21 144.609 203.375 144.227 203.187 143.936C203.116 143.851 203.037 143.772 202.951 143.702C202.636 143.376 202.545 142.901 202.467 142.455L202.056 140.049C202.044 139.879 201.974 139.718 201.858 139.594C201.772 139.532 201.672 139.491 201.566 139.474C199.775 139.071 197.938 139.439 196.158 139.664C195.242 139.798 194.316 139.844 193.391 139.803C192.991 139.777 192.836 139.73 192.537 139.99C192.238 140.25 192.079 140.581 191.705 140.799Z" fill="#3F3D56"/>
<path d="M234.973 143.695C234.658 143.87 234.321 144.002 233.971 144.086C233.048 144.355 232.126 144.636 231.206 144.928C230.961 144.988 230.731 145.098 230.531 145.251C230.211 145.532 230.129 145.992 230.105 146.423C230.075 146.66 230.103 146.902 230.188 147.126C230.298 147.336 230.46 147.515 230.658 147.646C231.711 148.44 233.087 148.686 234.408 148.686C235.73 148.686 237.042 148.464 238.363 148.429C239.96 148.387 241.599 148.611 243.134 148.166C243.428 148.058 243.732 147.984 244.042 147.946C244.248 147.943 244.454 147.956 244.658 147.986C245.482 148.067 246.313 147.991 247.108 147.763C247.348 147.71 247.57 147.6 247.757 147.442C247.85 147.362 247.916 147.256 247.947 147.139C247.978 147.021 247.973 146.896 247.931 146.781C247.847 146.591 247.63 146.453 247.628 146.245C247.639 146.144 247.665 146.047 247.706 145.954C247.802 145.633 247.647 145.298 247.539 144.982C247.235 144.077 247.285 143.037 246.742 142.251C246.198 141.466 245.201 141.143 244.254 141.019C243.484 140.91 242.7 140.933 241.938 141.084C241.079 141.267 240.278 141.649 239.436 141.893C238.459 142.173 237.438 142.269 236.426 142.177C235.753 142.12 235.984 142.226 235.756 142.788C235.594 143.163 235.321 143.48 234.973 143.695Z" fill="#3F3D56"/>
<path d="M197.4 52.6703C201.166 52.6703 204.219 49.6277 204.219 45.8744C204.219 42.1212 201.166 39.0786 197.4 39.0786C193.634 39.0786 190.581 42.1212 190.581 45.8744C190.581 49.6277 193.634 52.6703 197.4 52.6703Z" fill="#FBBEBE"/>
<path d="M246.836 141.265C244.719 143.076 241.862 143.868 239.076 143.896C237.9 143.908 236.68 143.782 235.678 143.175C235.608 142.79 235.579 142.376 235.509 141.991C234.293 141.738 233.35 140.752 232.763 139.66C232.175 138.568 231.876 137.354 231.439 136.196C230.771 134.434 229.793 132.81 228.815 131.198C227.916 129.712 227.016 128.221 225.993 126.818C225.316 125.88 224.582 124.999 223.912 124.064C222.013 121.462 220.651 118.51 219.903 115.38C219.788 114.779 219.626 114.189 219.416 113.615C219.012 112.636 218.271 111.839 217.699 110.946C217.083 109.982 216.661 108.909 216.456 107.785C216.34 107.147 216.143 106.458 215.501 106.393C214.151 109.006 212.776 111.661 210.735 113.786C210.414 114.093 210.12 114.427 209.858 114.784C209.647 115.132 209.458 115.492 209.293 115.862C208.977 116.527 208.556 117.138 208.047 117.672C207.62 118.126 207.058 118.432 206.443 118.543C206.897 120.795 206.627 123.132 205.672 125.222C205.388 125.841 205.047 126.431 204.779 127.057C203.683 129.635 203.937 132.543 203.821 135.338C203.811 135.924 203.742 136.508 203.615 137.08C203.33 138.223 202.742 139.439 203.027 140.583C200.078 141.705 196.803 141.635 193.68 141.162C193.069 141.106 192.476 140.927 191.938 140.634C191.495 140.322 191.108 139.937 190.795 139.496C190.674 139.367 190.585 139.212 190.534 139.043C190.411 138.509 191.004 138.106 191.279 137.637C191.554 137.169 191.604 136.426 191.225 136.041C191.413 132.974 192.264 129.979 192.452 126.902C192.528 125.684 192.497 124.46 192.554 123.239C192.61 122.019 192.742 120.83 192.878 119.631C193.188 116.891 193.941 114.206 193.835 111.452C193.803 110.605 193.999 109.764 194.402 109.017C194.742 108.45 195.127 107.911 195.554 107.405C196.998 105.547 198.733 103.684 199.248 101.39C199.514 100.206 200.102 99.1235 200.685 98.0596C201.03 97.4245 201.39 96.7754 201.94 96.3091C202.24 96.1027 202.518 95.8672 202.77 95.606C203.156 95.1116 203.17 94.4343 203.398 93.8438C203.516 93.5392 203.697 93.2579 203.784 92.9439C203.856 92.597 203.891 92.2436 203.89 91.8894C203.965 90.7552 204.402 89.6585 204.863 88.6204C203.779 87.995 202.822 87.1732 202.041 86.1973C201.779 85.8804 201.551 85.5372 201.36 85.1732C200.875 84.2218 200.765 83.1368 200.537 82.094C199.993 79.6053 198.745 77.2642 198.571 74.7216C198.519 73.946 198.571 73.1445 198.3 72.4111C198.176 72.1006 198.029 71.7992 197.863 71.5088C197.699 71.2236 197.574 70.9178 197.492 70.5996C197.341 69.9083 197.548 69.1936 197.492 68.4905C197.435 67.8695 197.169 67.2884 197.038 66.6814C196.903 65.8918 196.88 65.0872 196.97 64.2912C197.028 63.3538 197.233 62.386 197.153 61.4603C197.023 59.9287 197.219 58.387 197.728 56.9358C198.236 55.4846 199.046 54.1565 200.104 53.0382L200.158 52.9843C200.607 52.5156 201.099 52.1008 201.503 51.604C202.053 50.9385 202.444 50.1558 203.024 49.509C203.278 49.2208 203.565 48.963 203.817 48.6724C204.048 48.3676 204.303 48.0823 204.581 47.8194C204.722 47.6893 204.892 47.5955 205.077 47.5461C205.262 47.4967 205.457 47.4931 205.644 47.5359C205.691 47.8853 205.801 48.2235 205.968 48.5341C206.457 48.5716 206.892 48.6396 207.379 48.6771C207.605 48.6878 207.829 48.7223 208.047 48.7802C208.505 48.9185 208.872 49.2489 209.265 49.5324C210.243 50.219 211.445 50.5377 212.406 51.2455C213.817 52.2883 214.523 54.0107 215.374 55.555C216.5 57.6242 218.337 59.3841 219.136 61.5963L220.239 64.6052C220.961 66.569 221.683 68.5398 222.661 70.391C224.022 72.9688 225.866 75.2911 226.959 77.9884C227.069 78.2589 227.271 78.4816 227.531 78.6164C229.019 80.6974 230.343 82.8912 231.488 85.1779C232.092 86.3871 232.664 87.6432 232.838 88.9812C233.094 90.8724 232.577 92.7846 231.857 94.5515C231.741 94.8045 231.662 95.0728 231.622 95.3483C231.575 95.7959 231.747 96.2364 231.794 96.684C231.839 97.102 231.777 97.5246 231.613 97.9119C231.466 98.1841 231.343 98.4679 231.243 98.7603C231.117 99.2992 231.342 99.8476 231.465 100.387C231.878 102.212 231.803 104.103 231.7 105.973C231.646 106.911 232.405 107.653 233.038 108.34C234.213 109.627 235.13 111.131 236.017 112.633C236.499 113.395 236.905 114.202 237.23 115.042C237.566 116.001 237.7 117.015 237.886 118.011C238.483 121.083 240.44 123.799 240.971 126.881C241.217 128.293 241.845 129.611 242.787 130.694C243.07 130.987 243.332 131.3 243.57 131.631C243.732 131.894 243.862 132.176 243.955 132.47C244.186 133.154 244.295 133.874 244.277 134.596C244.24 134.941 244.26 135.29 244.336 135.629C244.557 136.344 245.347 136.737 245.672 137.41C245.996 138.083 245.773 138.945 245.907 139.709C246.008 140.326 246.34 140.882 246.836 141.265Z" fill="#153C6B"/>
<path d="M175.685 76.7487C174.913 77.1424 174.093 77.5454 173.23 77.4892C172.454 77.44 171.746 77.0205 171.163 76.5073C170.693 76.0995 170.208 75.591 169.59 75.6332C169.176 75.6613 168.828 75.9402 168.508 76.205L166.803 77.6274C166.517 77.8196 166.3 78.0991 166.185 78.4242C166.151 78.6448 166.165 78.87 166.225 79.085C166.303 79.4647 166.432 79.9076 166.799 80.0365C167.166 80.1653 167.565 79.8888 167.953 79.7834C168.19 79.723 168.439 79.7275 168.674 79.7963C168.909 79.8652 169.12 79.9959 169.287 80.1747C169.425 80.3105 169.509 80.4923 169.522 80.6856C169.522 81.1097 169.051 81.3886 168.619 81.4097C168.186 81.4308 167.772 81.2902 167.344 81.3159C167.318 81.3127 167.292 81.3146 167.267 81.3216C167.242 81.3286 167.219 81.3405 167.198 81.3567C167.178 81.3729 167.161 81.3929 167.148 81.4157C167.136 81.4385 167.128 81.4635 167.126 81.4894C167.099 81.6374 167.11 81.7897 167.158 81.9322C167.206 82.0747 167.29 82.2029 167.401 82.3049C167.624 82.5081 167.884 82.6671 168.167 82.7735C168.496 82.9356 168.851 83.0387 169.216 83.0782C169.938 83.1251 170.601 82.7267 171.285 82.4947C172.207 82.1853 173.199 82.176 174.173 82.1783C175.146 82.1807 176.134 82.1947 177.067 81.9229C178.001 81.6511 178.887 81.0488 179.252 80.1513C179.295 80.0675 179.309 79.972 179.292 79.8794C179.255 79.7807 179.185 79.6978 179.094 79.6451C177.782 78.6773 177.251 77.5009 175.774 76.8049L175.685 76.7487Z" fill="#FBBEBE"/>
<path d="M194.082 41.6984C193.675 41.764 193.33 42.0382 192.944 42.1905C192.685 42.2907 192.408 42.335 192.131 42.3205C191.853 42.3059 191.582 42.2328 191.336 42.1061C191.163 42.0228 191.013 41.9009 190.896 41.7499C190.581 41.3141 190.691 40.6813 190.884 40.1705C191.796 37.7544 194.232 36.2593 196.645 36.1633C199.058 36.0672 201.404 37.1897 203.307 38.7949C203.872 39.2581 204.38 39.7876 204.818 40.372C205.811 41.7429 206.26 43.4934 206.392 45.2275C206.47 45.9552 206.422 46.691 206.248 47.4022C206.165 47.7478 206.012 48.0731 205.8 48.3585C205.587 48.644 205.319 48.8838 205.011 49.0637C204.339 49.4058 203.532 49.298 202.853 48.9699C202.173 48.6419 201.59 48.124 201.007 47.6295C200.743 47.3757 200.43 47.1772 200.087 47.046C199.917 46.9854 199.732 46.9752 199.555 47.0168C199.379 47.0584 199.218 47.1499 199.093 47.2804C198.778 47.6576 198.858 48.2763 198.571 48.6864C198.284 49.0965 197.687 49.1551 197.184 49.1551C196.68 49.1551 196.17 49.1129 195.869 48.7145C195.594 48.3536 195.634 47.8264 195.737 47.3717C195.841 46.9171 196.017 46.4672 195.973 46.0009C195.876 45.0635 195.053 44.487 194.797 43.6246C194.63 43.0599 194.997 42.8209 194.959 42.31C194.931 41.8601 194.446 41.6398 194.082 41.6984Z" fill="#3F3D56"/>
<path opacity="0.1" d="M215.506 106.334V106.393C214.156 109.006 212.78 111.661 210.739 113.786C210.419 114.093 210.125 114.427 209.862 114.784C209.652 115.132 209.463 115.492 209.298 115.862C208.981 116.527 208.561 117.138 208.052 117.672L206.349 118.52L211.758 90.399L215.506 106.334Z" fill="black"/>
<path opacity="0.1" d="M207.645 63.7732C207.181 64.2711 206.666 64.7203 206.11 65.1136C204.558 66.2853 203.053 67.3914 201.546 68.6287C200.331 69.6145 199.098 70.58 197.849 71.5251C197.685 71.2399 197.56 70.9341 197.478 70.6159C197.327 69.9246 197.534 69.2099 197.478 68.5068C197.421 67.8858 197.155 67.3047 197.024 66.6977C196.889 65.908 196.866 65.1035 196.956 64.3075C197.014 63.3701 197.219 62.4023 197.139 61.4766C197.009 59.9413 197.206 58.3958 197.717 56.9416C198.228 55.4873 199.041 54.1571 200.104 53.038L200.158 52.9841C200.411 52.8375 200.679 52.7181 200.958 52.628C201.368 52.4847 201.805 52.4372 202.237 52.4892C202.668 52.5412 203.082 52.6913 203.445 52.9279C204.724 53.8674 205.864 54.9813 206.831 56.2368C207.363 56.8342 207.84 57.4781 208.256 58.1607C208.721 59.0521 208.911 60.0605 208.802 61.0591C208.693 62.0577 208.291 63.0019 207.645 63.7732Z" fill="black"/>
<path d="M203.22 51.7562C202.855 51.5215 202.441 51.3735 202.009 51.3235C201.578 51.2736 201.141 51.323 200.732 51.468C199.913 51.762 199.177 52.2502 198.59 52.8904C198.003 53.4868 197.495 54.1554 197.078 54.8799C196.678 55.583 196.372 56.3188 195.973 57.0195C195.267 58.2732 194.345 59.3793 193.419 60.476C192.843 61.1579 192.26 61.8492 191.521 62.3507C190.783 62.8522 189.958 63.1592 189.457 63.8552C189.299 64.0755 189.186 64.3239 189.031 64.5465C188.54 65.2636 187.705 65.6479 186.978 66.1283C184.895 67.5109 183.6 69.8121 181.653 71.3798C180.813 72.0547 179.866 72.5843 179.04 73.2733C178.271 73.913 177.629 74.6793 176.863 75.3355C176.096 75.9916 175.196 76.533 174.196 76.5939C174.864 78.0773 175.661 79.5325 176.806 80.6878C177.951 81.8431 179.668 82.5813 181.232 82.129C181.787 81.9697 182.33 81.6322 182.541 81.0979C182.608 80.8233 182.701 80.5557 182.819 80.2988C182.976 80.0926 183.18 79.9264 183.414 79.8137C189.691 76.1621 195.674 72.0308 201.31 67.457C202.822 66.229 204.322 65.13 205.874 63.9419C206.431 63.5486 206.945 63.0994 207.41 62.6015C208.057 61.8312 208.461 60.8874 208.572 59.8888C208.682 58.8902 208.494 57.8813 208.031 56.989C207.614 56.3064 207.138 55.6625 206.606 55.0651C205.638 53.8096 204.498 52.6957 203.22 51.7562Z" fill="#153C6B"/>
<g opacity="0.1">
<path d="M197.654 48.2108C197.184 48.2108 196.64 48.1686 196.339 47.7702C196.067 47.4093 196.104 46.8821 196.208 46.4275C196.311 45.9728 196.488 45.5229 196.443 45.0566C196.347 44.1192 195.524 43.5427 195.267 42.6804C195.1 42.1156 195.467 41.8766 195.43 41.3657C195.397 40.9228 194.915 40.7025 194.55 40.7611C194.143 40.8267 193.798 41.1009 193.412 41.2532C193.153 41.3534 192.876 41.3977 192.599 41.3832C192.321 41.3687 192.05 41.2956 191.804 41.1689C191.631 41.0855 191.481 40.9636 191.364 40.8127C191.049 40.3768 191.159 39.7441 191.352 39.2332C191.352 39.2145 191.369 39.1981 191.376 39.1793C191.179 39.4929 191.014 39.8249 190.882 40.1706C190.689 40.6814 190.579 41.3142 190.894 41.75C191.011 41.901 191.161 42.0229 191.333 42.1062C191.58 42.233 191.851 42.306 192.128 42.3206C192.406 42.3351 192.683 42.2908 192.942 42.1906C193.327 42.0383 193.673 41.7641 194.08 41.6985C194.444 41.6399 194.926 41.8602 194.959 42.3031C194.997 42.8139 194.63 43.053 194.797 43.6177C195.049 44.4801 195.872 45.0659 195.973 45.9939C196.02 46.4626 195.848 46.9125 195.738 47.3648C195.627 47.8171 195.596 48.3467 195.869 48.7076C196.17 49.106 196.709 49.1435 197.184 49.1481C197.659 49.1528 198.27 49.12 198.571 48.6795C198.701 48.4582 198.786 48.2139 198.823 47.96C198.503 48.1874 198.056 48.2155 197.654 48.2108Z" fill="black"/>
<path d="M205.482 48.1264C204.809 48.4685 204.003 48.3607 203.323 48.0326C202.644 47.7045 202.06 47.1866 201.477 46.6922C201.213 46.4383 200.9 46.2399 200.558 46.1087C200.387 46.048 200.202 46.0379 200.026 46.0795C199.849 46.121 199.689 46.2126 199.563 46.343C199.403 46.5783 199.303 46.8483 199.269 47.1304C199.392 47.0586 199.528 47.0137 199.669 46.9988C199.81 46.9838 199.953 46.9991 200.088 47.0437C200.43 47.1749 200.743 47.3733 201.007 47.6272C201.59 48.1217 202.183 48.6419 202.853 48.9676C203.523 49.2934 204.339 49.4035 205.011 49.0614C205.606 48.7145 206.04 48.1477 206.218 47.4843C206.024 47.7512 205.773 47.9708 205.482 48.1264Z" fill="black"/>
</g>
<path d="M146.962 148.867C150.858 148.867 154.017 145.719 154.017 141.837C154.017 137.954 150.858 134.806 146.962 134.806C143.066 134.806 139.908 137.954 139.908 141.837C139.908 145.719 143.066 148.867 146.962 148.867Z" fill="#3F3D56"/>
<path opacity="0.1" d="M146.962 148.867C150.858 148.867 154.017 145.719 154.017 141.837C154.017 137.954 150.858 134.806 146.962 134.806C143.066 134.806 139.908 137.954 139.908 141.837C139.908 145.719 143.066 148.867 146.962 148.867Z" fill="black"/>
<path d="M146.962 146.289C149.43 146.289 151.43 144.296 151.43 141.837C151.43 139.378 149.43 137.384 146.962 137.384C144.495 137.384 142.495 139.378 142.495 141.837C142.495 144.296 144.495 146.289 146.962 146.289Z" fill="#65617D"/>
<path opacity="0.1" d="M146.962 146.289C149.43 146.289 151.43 144.296 151.43 141.837C151.43 139.378 149.43 137.384 146.962 137.384C144.495 137.384 142.495 139.378 142.495 141.837C142.495 144.296 144.495 146.289 146.962 146.289Z" fill="black"/>
<path d="M141.554 130.823L146.182 141.251C146.251 141.407 146.363 141.541 146.505 141.635C146.648 141.73 146.815 141.782 146.986 141.786C147.157 141.789 147.326 141.744 147.472 141.655C147.618 141.566 147.736 141.437 147.811 141.284L153.311 130.12L141.554 130.823Z" fill="#3F3D56"/>
<path opacity="0.1" d="M141.554 130.823L146.182 141.251C146.251 141.407 146.363 141.541 146.505 141.635C146.648 141.73 146.815 141.782 146.986 141.786C147.157 141.789 147.326 141.744 147.472 141.655C147.618 141.566 147.736 141.437 147.811 141.284L153.311 130.12L141.554 130.823Z" fill="black"/>
<path d="M102.991 148.867C106.887 148.867 110.045 145.719 110.045 141.837C110.045 137.954 106.887 134.806 102.991 134.806C99.0953 134.806 95.937 137.954 95.937 141.837C95.937 145.719 99.0953 148.867 102.991 148.867Z" fill="#3F3D56"/>
<path opacity="0.1" d="M102.991 148.867C106.887 148.867 110.045 145.719 110.045 141.837C110.045 137.954 106.887 134.806 102.991 134.806C99.0953 134.806 95.937 137.954 95.937 141.837C95.937 145.719 99.0953 148.867 102.991 148.867Z" fill="black"/>
<path d="M102.991 146.289C105.459 146.289 107.459 144.296 107.459 141.837C107.459 139.378 105.459 137.384 102.991 137.384C100.524 137.384 98.5237 139.378 98.5237 141.837C98.5237 144.296 100.524 146.289 102.991 146.289Z" fill="#65617D"/>
<path opacity="0.1" d="M102.991 146.289C105.459 146.289 107.459 144.296 107.459 141.837C107.459 139.378 105.459 137.384 102.991 137.384C100.524 137.384 98.5237 139.378 98.5237 141.837C98.5237 144.296 100.524 146.289 102.991 146.289Z" fill="black"/>
<path d="M97.583 130.823L102.211 141.251C102.279 141.407 102.392 141.541 102.534 141.635C102.677 141.73 102.844 141.782 103.015 141.786C103.186 141.789 103.355 141.744 103.501 141.655C103.647 141.566 103.765 141.437 103.84 141.284L109.34 130.12L97.583 130.823Z" fill="#3F3D56"/>
<path opacity="0.1" d="M97.583 130.823L102.211 141.251C102.279 141.407 102.392 141.541 102.534 141.635C102.677 141.73 102.844 141.782 103.015 141.786C103.186 141.789 103.355 141.744 103.501 141.655C103.647 141.566 103.765 141.437 103.84 141.284L109.34 130.12L97.583 130.823Z" fill="black"/>
<path d="M169.856 80.6153C169.836 80.4378 169.773 80.2679 169.67 80.1214C169.568 79.9748 169.43 79.8561 169.27 79.7763C169.135 79.719 168.99 79.6893 168.843 79.6891C168.697 79.6888 168.551 79.718 168.416 79.7748C168.281 79.8317 168.159 79.9151 168.057 80.02C167.954 80.1249 167.875 80.2493 167.822 80.3856L163.775 90.399L162.599 135.392H164.48L165.186 90.4951L169.757 81.2949C169.861 81.0844 169.895 80.8465 169.856 80.6153Z" fill="#3F3D56"/>
<path d="M86.6489 131.877L92.9977 127.893L161.541 127.308L163.305 131.877H86.6489Z" fill="#153C6B"/>
<path d="M86.6489 136.095V131.877L164.546 131.127L164.471 133.986H88.0598V136.095H86.6489Z" fill="#3F3D56"/>
<path d="M96.5249 151.327C100.421 151.327 103.579 148.18 103.579 144.297C103.579 140.414 100.421 137.267 96.5249 137.267C92.629 137.267 89.4707 140.414 89.4707 144.297C89.4707 148.18 92.629 151.327 96.5249 151.327Z" fill="#3F3D56"/>
<path d="M96.525 148.75C98.9924 148.75 100.993 146.756 100.993 144.297C100.993 141.838 98.9924 139.845 96.525 139.845C94.0576 139.845 92.0574 141.838 92.0574 144.297C92.0574 146.756 94.0576 148.75 96.525 148.75Z" fill="#65617D"/>
<path d="M91.1167 133.283L95.7442 143.711C95.8132 143.868 95.9255 144.001 96.068 144.096C96.2105 144.191 96.3772 144.243 96.5485 144.246C96.7198 144.25 96.8885 144.204 97.0347 144.115C97.1809 144.026 97.2986 143.898 97.3738 143.744L102.874 132.58L91.1167 133.283Z" fill="#3F3D56"/>
<path d="M151.312 151.327C155.208 151.327 158.367 148.18 158.367 144.297C158.367 140.414 155.208 137.267 151.312 137.267C147.417 137.267 144.258 140.414 144.258 144.297C144.258 148.18 147.417 151.327 151.312 151.327Z" fill="#3F3D56"/>
<path d="M151.312 148.75C153.78 148.75 155.78 146.756 155.78 144.297C155.78 141.838 153.78 139.845 151.312 139.845C148.845 139.845 146.845 141.838 146.845 144.297C146.845 146.756 148.845 148.75 151.312 148.75Z" fill="#65617D"/>
<path d="M145.904 133.283L150.532 143.711C150.601 143.868 150.713 144.001 150.856 144.096C150.998 144.191 151.165 144.243 151.336 144.246C151.507 144.25 151.676 144.204 151.822 144.115C151.969 144.026 152.086 143.898 152.161 143.744L157.661 132.58L145.904 133.283Z" fill="#3F3D56"/>
<path d="M124.859 113.482H95.4668V129.651H124.859V113.482Z" fill="#65617D"/>
<path opacity="0.1" d="M114.748 116.294H105.813V118.168H114.748V116.294Z" fill="black"/>
<path opacity="0.1" d="M113.631 116.528H106.93V117.934H113.631V116.528Z" fill="black"/>
<path d="M154.722 113.482H125.33V129.651H154.722V113.482Z" fill="#65617D"/>
<path opacity="0.1" d="M144.611 116.294H135.676V118.168H144.611V116.294Z" fill="black"/>
<path opacity="0.1" d="M143.494 116.528H136.793V117.934H143.494V116.528Z" fill="black"/>
<path d="M124.859 96.8434H95.4668V113.013H124.859V96.8434Z" fill="#65617D"/>
<path opacity="0.1" d="M114.748 99.6554H105.813V101.53H114.748V99.6554Z" fill="black"/>
<path opacity="0.1" d="M113.631 99.8897H106.93V101.296H113.631V99.8897Z" fill="black"/>
<path d="M154.722 96.8434H125.33V113.013H154.722V96.8434Z" fill="#65617D"/>
<path opacity="0.1" d="M144.611 99.6554H135.676V101.53H144.611V99.6554Z" fill="black"/>
<path opacity="0.1" d="M143.494 99.8897H136.793V101.296H143.494V99.8897Z" fill="black"/>
<path d="M124.859 79.9708H95.4668V96.1403H124.859V79.9708Z" fill="#65617D"/>
<path opacity="0.1" d="M114.748 82.783H105.813V84.6577H114.748V82.783Z" fill="black"/>
<path opacity="0.1" d="M113.631 83.0173H106.93V84.4233H113.631V83.0173Z" fill="black"/>
<path d="M154.722 79.9708H125.33V96.1403H154.722V79.9708Z" fill="#65617D"/>
<path opacity="0.1" d="M144.611 82.783H135.676V84.6577H144.611V82.783Z" fill="black"/>
<path opacity="0.1" d="M143.494 83.0173H136.793V84.4233H143.494V83.0173Z" fill="black"/>
<path d="M154.722 63.0983H125.33V79.2677H154.722V63.0983Z" fill="#65617D"/>
<path opacity="0.1" d="M144.611 65.9105H135.676V67.7852H144.611V65.9105Z" fill="black"/>
<path opacity="0.1" d="M143.494 66.1448H136.793V67.5508H143.494V66.1448Z" fill="black"/>
</g>
<defs>
<linearGradient id="paint0_linear_333_2854" x1="206.413" y1="148.665" x2="206.413" y2="35.4463" gradientUnits="userSpaceOnUse">
<stop stop-color="#808080" stop-opacity="0.25"/>
<stop offset="0.54" stop-color="#808080" stop-opacity="0.12"/>
<stop offset="1" stop-color="#808080" stop-opacity="0.1"/>
</linearGradient>
<clipPath id="clip0_333_2854">
<rect width="269" height="152.616" fill="white"/>
</clipPath>
</defs>
</svg>
