<svg width="243" height="197" viewBox="0 0 243 197" fill="none" xmlns="http://www.w3.org/2000/svg">
<g clip-path="url(#clip0_333_2662)">
<path d="M159.894 109.857C154.767 112.932 145.634 116.784 136.301 112.825L130.268 110.266L142.358 96.7132C132.71 86.0757 127.373 72.2248 127.388 57.864C127.402 43.5032 132.768 29.6633 142.438 19.0456C152.107 8.42789 165.386 1.79454 179.683 0.440294C193.98 -0.913952 208.268 3.10811 219.759 11.7214C231.25 20.3347 239.119 32.921 241.83 47.0237C244.541 61.1263 241.899 75.733 234.42 87.9927C226.942 100.252 215.163 109.285 201.383 113.328C187.603 117.371 172.811 116.133 159.894 109.857ZM136.729 57.8317C136.703 64.4517 138.046 71.0056 140.675 77.0812C143.304 83.1568 147.162 88.6226 152.006 93.1349L155.341 96.2687L147.734 104.797C151.696 103.993 155.148 101.849 156.898 100.604L159.299 98.8952L161.882 100.314C169.021 104.223 177.029 106.271 185.168 106.271C211.878 106.271 233.607 84.5411 233.607 57.8317C233.607 31.1224 211.878 9.39268 185.168 9.39268C158.459 9.39268 136.729 31.1224 136.729 57.8317Z" fill="white"/>
<path d="M132.033 57.8316C132.033 28.4858 155.822 4.69629 185.168 4.69629C214.514 4.69629 238.304 28.4858 238.304 57.8316C238.304 87.1774 214.514 110.967 185.168 110.967C176.237 110.98 167.448 108.731 159.62 104.43C155.947 107.044 146.987 112.256 138.135 108.502L148.79 96.5573C143.494 91.5944 139.273 85.5961 136.39 78.9345C133.508 72.2729 132.025 65.0901 132.033 57.8316Z" fill="#3FD4F8"/>
<path opacity="0.1" d="M229.252 57.9468C229.252 30.1839 207.958 7.3983 180.813 5.02045C182.361 4.88488 183.926 4.81152 185.509 4.81152C214.855 4.81152 238.644 28.601 238.644 57.9468C238.644 87.2926 214.855 111.082 185.509 111.082C183.929 111.082 182.366 111.008 180.82 110.873C207.962 108.491 229.252 85.7071 229.252 57.9468Z" fill="black"/>
<path d="M62.7239 183.674C49.4471 183.68 36.5715 179.122 26.255 170.765C15.9385 162.408 8.80804 150.758 6.05855 137.769C3.30906 124.78 5.10765 111.241 11.1529 99.4203C17.1982 87.5995 27.1227 78.2159 39.2633 72.8418C51.4039 67.4677 65.0228 66.4299 77.8375 69.9022C90.6522 73.3745 101.884 81.1459 109.651 91.9141C117.417 102.682 121.247 115.793 120.497 129.048C119.748 142.304 114.465 154.899 105.534 164.723L117.624 178.276L111.591 180.835C102.258 184.794 93.1247 180.942 87.9985 177.868C80.1202 181.687 71.4791 183.672 62.7239 183.674ZM62.7239 77.4029C36.0147 77.4029 14.285 99.1326 14.285 125.842C14.285 152.551 36.0147 174.281 62.7239 174.281C70.863 174.282 78.8713 172.233 86.0103 168.325L88.593 166.905L90.9944 168.614C92.7445 169.859 96.196 172.003 100.159 172.807L92.5509 164.279L95.8858 161.145C100.73 156.633 104.588 151.167 107.217 145.091C109.846 139.016 111.19 132.462 111.163 125.842C111.163 99.1326 89.4332 77.4029 62.7239 77.4029Z" fill="white"/>
<path d="M115.859 125.842C115.859 96.496 92.0697 72.7065 62.7239 72.7065C33.3781 72.7065 9.58862 96.496 9.58862 125.842C9.58862 155.188 33.3781 178.977 62.7239 178.977C71.6551 178.99 80.4443 176.742 88.2718 172.441C91.9448 175.054 100.905 180.267 109.757 176.512L99.1018 164.568C104.399 159.605 108.619 153.606 111.502 146.945C114.384 140.283 115.868 133.1 115.859 125.842Z" fill="#3FD4F8"/>
<path opacity="0.1" d="M18.9812 125.574C18.9812 97.8107 40.2746 75.025 67.4202 72.6472C65.8725 72.5116 64.3069 72.4382 62.7239 72.4382C33.3781 72.4382 9.58862 96.2277 9.58862 125.574C9.58862 154.919 33.3781 178.709 62.7239 178.709C64.3045 178.709 65.8673 178.634 67.4128 178.499C40.2708 176.118 18.9812 153.334 18.9812 125.574Z" fill="black"/>
<path d="M197.642 40.9505C194.166 35.0762 187.288 34.8024 187.288 34.8024C187.288 34.8024 180.586 33.9453 176.286 42.892C172.279 51.231 166.748 59.2825 175.396 61.2346L176.958 56.3727L177.925 61.5965C179.156 61.6851 180.392 61.7062 181.625 61.6597C190.886 61.3607 199.706 61.7472 199.422 58.4239C199.045 54.0061 200.988 46.6028 197.642 40.9505Z" fill="#2F2E41"/>
<path d="M174.902 92.3947C174.8 93.0408 174.652 93.6788 174.458 94.3038C174.241 94.9155 173.905 95.4813 173.706 96.0993C173.072 98.0694 173.951 100.266 175.355 101.787C176.572 103.1 178.144 104.033 179.88 104.473C181.158 104.747 182.461 104.884 183.768 104.882C187.382 105.005 191.089 105.114 194.514 103.953C195.596 103.577 196.641 103.102 197.636 102.535C197.95 102.385 198.227 102.167 198.446 101.897C198.675 101.501 198.777 101.044 198.738 100.588C198.73 99.056 198.42 97.5318 198.494 96.0014C198.534 95.1538 198.693 94.3068 198.615 93.4617C198.507 92.502 198.105 91.5991 197.464 90.8767C196.823 90.1542 195.974 89.6475 195.034 89.4259C194.063 89.2173 193.055 89.331 192.066 89.4261C189.499 89.6728 186.921 89.788 184.341 89.7715C181.706 89.7547 179.087 89.3524 176.465 89.3104C175.69 89.298 175.706 89.537 175.459 90.2875C175.231 90.9782 175.045 91.6818 174.902 92.3947Z" fill="#2F2E41"/>
<path d="M182.38 54.5634C182.254 55.2265 182.117 55.9138 181.718 56.4587C181.26 57.0857 180.512 57.4439 180.019 58.0439C179.277 58.947 179.234 60.2178 179.231 61.3868C179.228 62.4638 179.25 63.6125 179.851 64.5064C180.278 65.0617 180.809 65.5294 181.413 65.8839C183.665 67.4018 186.099 68.9468 188.815 68.9969C189.94 69.0176 191.146 68.7271 191.887 67.8796C192.206 67.4815 192.458 67.0331 192.63 66.5527C193.325 64.8411 193.746 63.031 193.878 61.1886C193.978 60.3225 193.897 59.4451 193.64 58.6119C193.31 57.6921 192.643 56.9353 192.202 56.0633C191.681 55.0264 191.491 53.8546 191.656 52.7059C191.678 52.625 191.671 52.539 191.637 52.4626C191.601 52.4217 191.556 52.3897 191.505 52.3692C191.454 52.3486 191.4 52.3401 191.345 52.3442L185.961 51.9566C185.459 51.9317 184.96 51.8746 184.466 51.7856C184.176 51.7266 183.409 51.3143 183.132 51.424C182.62 51.6269 182.485 54.0136 182.38 54.5634Z" fill="#A0616A"/>
<path opacity="0.1" d="M182.38 54.7316C182.254 55.3947 182.117 56.082 181.718 56.6269C181.26 57.2539 180.512 57.6121 180.019 58.2121C179.277 59.1152 179.234 60.386 179.231 61.555C179.228 62.632 179.25 63.7807 179.851 64.6746C180.278 65.2299 180.809 65.6977 181.413 66.0522C183.665 67.57 186.099 69.115 188.815 69.1651C189.94 69.1858 191.146 68.8953 191.887 68.0478C192.206 67.6497 192.458 67.2013 192.63 66.7209C193.325 65.0093 193.746 63.1992 193.878 61.3568C193.978 60.4907 193.897 59.6133 193.64 58.7801C193.31 57.8603 192.643 57.1035 192.202 56.2315C191.681 55.1946 191.491 54.0228 191.656 52.8741C191.678 52.7932 191.671 52.7073 191.637 52.6308C191.601 52.5899 191.556 52.5579 191.505 52.5374C191.454 52.5169 191.4 52.5083 191.345 52.5125L185.961 52.1248C185.459 52.0999 184.96 52.0428 184.466 51.9538C184.176 51.8948 183.409 51.4826 183.132 51.5922C182.62 51.7951 182.485 54.1818 182.38 54.7316Z" fill="black"/>
<path d="M187.529 55.2856C191.892 55.2856 195.429 51.7489 195.429 47.3861C195.429 43.0233 191.892 39.4866 187.529 39.4866C183.167 39.4866 179.63 43.0233 179.63 47.3861C179.63 51.7489 183.167 55.2856 187.529 55.2856Z" fill="#A0616A"/>
<path d="M183.488 65.0789C183.878 65.5308 184.349 65.9067 184.876 66.1876C185.425 66.4146 186.015 66.5269 186.609 66.5176C188.033 66.5577 189.577 66.2968 190.567 65.2731C191.844 63.9534 191.802 61.8249 192.803 60.2854C192.884 60.1458 192.994 60.0255 193.126 59.9327C193.293 59.8413 193.483 59.7977 193.674 59.8066C194.938 59.7947 196.039 60.6146 197.033 61.3959C197.501 61.7178 197.902 62.1267 198.215 62.6003C198.412 62.9837 198.546 63.3958 198.614 63.8212C199.107 66.2286 199.267 68.69 199.425 71.1423C199.513 72.4967 199.601 73.8525 199.594 75.2098C199.573 79.6815 198.533 84.0784 197.5 88.4291C197.367 88.9897 197.184 89.6163 196.674 89.8848C196.447 89.987 196.203 90.0465 195.954 90.0605C192.994 90.4082 190.028 90.7563 187.047 90.8022C185.884 90.8201 184.721 90.792 183.559 90.7177C183.359 90.7151 183.161 90.6805 182.972 90.6153C182.715 90.4921 182.495 90.3047 182.331 90.0714C180.719 88.0399 180.624 85.2314 180.634 82.638C180.66 76.2973 180.886 69.9617 181.314 63.6312C181.349 63.1087 181.357 62.4741 180.981 62.0631C181.714 63.1495 182.554 64.1599 183.488 65.0789Z" fill="white"/>
<path d="M181.815 55.9577C181.548 56.4407 179.581 57.6399 179.201 58.0402C177.08 60.2767 173.207 60.1927 171.267 62.5881C170.584 63.4309 170.229 64.4898 169.968 65.5426C169.599 67.0316 169.402 68.6554 170.02 70.0594C170.615 71.4103 171.867 72.3443 172.717 73.551C173.651 74.876 174.07 76.4848 174.472 78.0548C174.769 79.214 175.069 80.4019 174.953 81.593C174.822 82.9472 174.166 84.1872 173.779 85.4916C173.392 86.7959 173.326 88.3495 174.22 89.3746C174.877 90.1277 175.908 90.4263 176.894 90.5942C178.156 90.7838 179.428 90.8946 180.704 90.9259C181.831 90.9757 183.072 90.9854 183.938 90.2633C184.621 89.6935 184.918 88.7689 184.957 87.8801C184.995 86.9913 184.81 86.1103 184.694 85.2283C184.574 84.3139 184.528 83.3915 184.49 82.47C184.316 78.3356 184.293 74.1986 184.419 70.0589C184.482 69.1985 184.44 68.3335 184.293 67.4834C184.052 66.376 183.453 65.3864 182.954 64.3689C181.956 62.4525 181.504 60.2986 181.647 58.1427C181.798 55.9271 182.764 54.2391 181.815 55.9577Z" fill="white"/>
<path d="M192.908 56.1259C193.314 56.5436 194.695 56.6813 195.212 56.9503C195.698 57.1749 196.206 57.3506 196.727 57.4747C198.612 58.0187 200.406 58.8419 202.048 59.917C202.389 60.1166 202.691 60.3771 202.938 60.6856C203.198 61.109 203.366 61.5827 203.43 62.0756C203.683 63.3295 203.938 64.5985 203.881 65.8763C203.82 67.2328 203.412 68.5465 203.006 69.8424L201.492 74.6845C200.361 78.2988 199.224 81.9487 198.905 85.7223C198.729 87.8137 198.808 89.9188 199.138 91.9914C199.17 92.0922 199.179 92.1985 199.166 92.3032C199.152 92.4079 199.117 92.5086 199.062 92.5986C198.962 92.6972 198.831 92.7576 198.691 92.7692C197.96 92.8835 197.253 92.5108 196.59 92.181C194.566 91.1736 192.406 90.4667 190.177 90.0826C191.048 88.8243 191.72 87.4394 192.169 85.9766C192.424 85.0478 192.625 84.1049 192.771 83.1527L193.476 79.0777C193.762 77.5883 193.964 76.0838 194.08 74.5715C194.133 74.0039 194.1 73.4316 193.982 72.8739C193.82 72.3433 193.604 71.8304 193.339 71.3431C192.177 68.9278 191.633 66.1715 192.089 63.5307C192.289 62.3751 192.678 61.2179 192.516 60.0563C192.36 58.9395 192.522 58.0716 192.235 56.9663C191.059 52.4283 192.143 55.3401 192.908 56.1259Z" fill="white"/>
<path d="M171.247 66.407C170.717 67.5055 169.832 68.4413 169.531 69.6229C169.414 70.1752 169.364 70.7395 169.381 71.3038C169.329 72.1541 169.413 73.0074 169.631 73.8311C169.799 74.3522 170.072 74.8328 170.269 75.3436C170.544 76.0573 170.667 76.8205 170.629 77.5843C170.576 78.6424 170.216 79.6695 170.188 80.7286C170.144 82.3941 170.914 83.9598 171.666 85.4467C171.855 84.9782 172.144 84.5566 172.513 84.2116C172.883 83.8665 173.323 83.6063 173.803 83.4491C174.283 83.2919 174.792 83.2415 175.293 83.3014C175.795 83.3614 176.278 83.5302 176.707 83.7962C176.88 83.5847 176.961 83.3139 176.935 83.0425C176.99 81.1103 177.044 79.178 177.095 77.2456C177.177 74.2571 177.254 71.2287 176.567 68.3192C176.256 67.0055 175.773 65.697 174.888 64.6781C174.422 64.1416 172.839 62.7284 172.074 63.3294C171.73 63.5997 171.81 64.3355 171.756 64.708C171.673 65.2969 171.502 65.8699 171.247 66.407Z" fill="white"/>
<path d="M204.035 63.2413C204.248 64.0334 204.339 64.8533 204.306 65.6729C204.316 67.3432 204.294 69.0134 204.239 70.6833C204.248 71.5398 204.138 72.3934 203.914 73.22C203.743 73.7576 203.479 74.2617 203.303 74.7974C202.773 76.4031 203.063 78.1445 203.108 79.8344C203.14 80.3814 203.093 80.9302 202.969 81.4639C202.69 82.5115 201.94 83.358 201.416 84.3073C200.919 85.2089 200.618 86.2195 200.024 87.0605C199.43 87.9016 198.402 88.568 197.405 88.3098C196.65 88.1142 196.113 87.4457 195.742 86.7594C194.932 85.2506 194.655 83.5126 194.956 81.8267C195.328 79.7756 196.533 77.956 196.968 75.9171C197.564 73.1173 196.657 70.228 196.684 67.3654C196.672 66.9167 196.733 66.4689 196.865 66.0398C197.093 65.3859 197.582 64.8637 198.034 64.3393C198.599 63.684 199.124 62.995 199.606 62.2763C199.93 61.7935 200.37 60.5517 200.944 60.4485C202.225 60.218 203.717 62.2513 204.035 63.2413Z" fill="white"/>
<path d="M164.597 91.1495C163.889 90.9714 163.159 90.8938 162.428 90.9189C161.661 90.9613 160.912 91.1666 160.23 91.5211C159.548 91.8755 158.95 92.3711 158.474 92.9747C157.999 93.5784 157.657 94.2764 157.473 95.0222C157.288 95.768 157.264 96.5447 157.403 97.3005C157.579 98.1192 157.869 98.9095 158.262 99.649C158.837 100.816 159.527 101.981 160.592 102.729C161.234 103.14 161.924 103.469 162.648 103.708L168.257 105.821C169.082 106.131 169.907 106.442 170.74 106.731C174.926 108.177 179.29 109.045 183.712 109.309C185.057 109.435 186.413 109.367 187.739 109.105C188.06 109.063 188.353 108.905 188.564 108.66C188.671 108.473 188.734 108.265 188.748 108.051L189.093 105.635C189.171 105.298 189.161 104.948 189.064 104.616C188.906 104.21 188.51 103.955 188.132 103.738C184.445 101.62 180.14 100.452 177.036 97.5453C176.305 96.8611 175.694 95.7765 174.806 95.3117C173.8 94.7846 172.614 94.4838 171.574 93.9981C169.299 92.9363 167.063 91.7162 164.597 91.1495Z" fill="#2F2E41"/>
<path opacity="0.1" d="M170.197 94.4065C172.179 95.0277 180.549 99.3311 181.983 100.834C181.791 100.903 175.267 97.2467 175.071 97.188C173.276 96.6951 171.519 96.0758 169.812 95.3347C169.472 95.1775 167.603 94.4385 167.688 94.0095C167.784 93.5255 169.845 94.2962 170.197 94.4065Z" fill="black"/>
<path d="M194.927 110.562C195.04 110.57 195.152 110.538 195.242 110.47C195.281 110.419 195.31 110.361 195.327 110.299C195.344 110.237 195.348 110.172 195.34 110.108L195.331 106.817C194.384 106.366 193.325 106.221 192.286 106.082L187.438 105.434C187.549 105.449 186.679 107.522 186.813 107.799C187.048 108.287 188.844 108.72 189.35 108.95C191.112 109.751 192.943 110.631 194.927 110.562Z" fill="#A0616A"/>
<path d="M179.715 106.805C178.799 106.951 177.777 107.08 177.185 107.793C176.433 108.696 176.753 110.044 177.111 111.163C177.133 111.308 177.184 111.446 177.26 111.571C177.337 111.695 177.437 111.803 177.556 111.888C177.675 111.973 177.81 112.034 177.952 112.066C178.095 112.098 178.242 112.101 178.386 112.075C179.221 112.128 180.11 112.169 180.839 111.76C181.17 111.541 181.488 111.305 181.792 111.051C182.33 110.693 182.921 110.423 183.544 110.25C184.689 109.89 185.867 109.648 187.061 109.526C187.531 109.504 187.997 109.422 188.446 109.282C188.67 109.209 188.875 109.086 189.044 108.922C189.214 108.758 189.343 108.557 189.422 108.334C189.591 107.736 189.243 107.126 188.909 106.602C188.525 105.915 188.027 105.298 187.435 104.779C186.531 104.077 186.084 104.616 185.174 105.065C183.452 105.915 181.611 106.502 179.715 106.805Z" fill="#A0616A"/>
<path d="M177.322 107.63L171.509 105.912C170.812 105.669 170.084 105.528 169.346 105.493C168.977 105.478 168.609 105.541 168.266 105.68C167.923 105.818 167.614 106.029 167.359 106.296C166.909 106.825 166.78 107.548 166.667 108.234L166.427 109.701C166.267 110.441 166.221 111.201 166.292 111.954C166.331 112.331 166.455 112.694 166.655 113.016C166.855 113.337 167.126 113.609 167.447 113.81C168.252 114.249 169.237 114.035 170.135 113.851C171.949 113.481 173.793 113.283 175.644 113.261C176.34 113.252 177.069 113.261 177.684 112.935C178.041 112.724 178.341 112.428 178.558 112.074C178.774 111.721 178.901 111.319 178.928 110.905C179.042 109.652 178.624 108.015 177.322 107.63Z" fill="#2F2E41"/>
<path d="M197.213 106.133C197.966 106 198.631 105.572 199.353 105.319C200.37 104.964 201.471 104.964 202.548 104.967C202.944 104.931 203.342 105.011 203.693 105.197C204.168 105.513 204.289 106.145 204.37 106.709L204.856 110.112C204.987 110.747 205 111.401 204.896 112.04C204.753 112.671 204.323 113.279 203.698 113.442C202.938 113.639 202.192 113.154 201.475 112.835C199.681 112.038 197.596 112.241 195.725 111.645C195.546 111.61 195.377 111.536 195.229 111.43C195.081 111.324 194.956 111.188 194.865 111.03C194.801 110.841 194.778 110.641 194.798 110.442C194.83 109.348 194.599 107.854 194.928 106.809C195.225 105.868 196.371 106.133 197.213 106.133Z" fill="#2F2E41"/>
<path d="M209.514 89.7795C210.676 89.4882 211.88 89.4059 213.07 89.5365C214.021 89.6412 215 89.9058 215.694 90.5638C216.539 91.3646 216.811 92.6032 216.833 93.767C216.87 96.0851 216.101 98.3442 214.658 100.158C214.305 100.617 213.886 101.021 213.414 101.356C212.905 101.674 212.363 101.936 211.796 102.135L199.236 107.089C195.932 108.393 192.616 109.7 189.17 110.559C189.076 110.604 188.973 110.63 188.869 110.636C188.764 110.641 188.66 110.626 188.561 110.59C188.463 110.554 188.373 110.499 188.296 110.428C188.219 110.357 188.157 110.271 188.114 110.176C187.014 108.604 186.091 106.915 185.361 105.141C185.327 105.098 185.303 105.048 185.292 104.995C185.281 104.942 185.283 104.887 185.297 104.834C185.312 104.782 185.339 104.733 185.376 104.694C185.414 104.654 185.46 104.624 185.511 104.606L194.395 99.5012C195.046 99.1615 195.654 98.7431 196.203 98.2554C196.587 97.8833 196.902 97.4456 197.132 96.963C197.316 96.5784 197.333 95.6707 197.568 95.3864C197.798 95.1081 198.586 95.0859 198.95 94.9764C199.463 94.8192 199.966 94.6292 200.454 94.4077C202.442 93.5187 204.211 92.227 206.116 91.186C207.185 90.5751 208.327 90.1025 209.514 89.7795Z" fill="#2F2E41"/>
<path opacity="0.1" d="M204.478 93.5915C202.952 94.7378 200.975 95.7915 199.463 96.968C198.946 97.3696 190.34 102.208 190.219 102.851C191.63 103.088 200.619 96.7994 201.906 96.1719C203.192 95.5443 204.332 94.6594 205.462 93.781C205.75 93.5571 206.97 92.8841 206.143 92.634C205.678 92.4931 204.822 93.3623 204.478 93.5915Z" fill="black"/>
<path d="M193.976 56.2368H180.579C180.034 56.2368 179.512 56.4531 179.127 56.8379C178.742 57.2228 178.526 57.7448 178.526 58.2892V59.0407H178.381V60.7214H178.526V61.898H178.381V62.9064H178.526V75.3079C178.526 75.8522 178.742 76.3743 179.127 76.7591C179.512 77.144 180.034 77.3603 180.579 77.3603H193.976C194.52 77.3603 195.042 77.144 195.427 76.7591C195.812 76.3743 196.028 75.8522 196.028 75.3079V58.2891C196.028 57.7448 195.812 57.2228 195.427 56.8379C195.042 56.453 194.52 56.2368 193.976 56.2368Z" fill="#D0CDE1"/>
<path d="M196.105 40.3845L189.31 36.825L179.926 38.2811L177.985 46.8561L182.818 46.67L184.168 43.5198V46.6183L186.398 46.5325L187.692 41.5168L188.501 46.8561L196.429 46.6942L196.105 40.3845Z" fill="#2F2E41"/>
<path d="M173.024 88.669C173.332 89.1915 173.769 89.6261 174.293 89.9308C174.637 90.0879 175.012 90.1643 175.39 90.1541C175.768 90.144 176.138 90.0476 176.473 89.8724C177.142 89.5137 177.69 88.9647 178.047 88.2948C178.785 86.9907 178.938 85.4302 178.846 83.9343C178.754 82.4385 178.434 80.9656 178.293 79.4736C178.19 78.389 178.182 77.2979 178.174 76.2085C178.148 75.9794 178.196 75.7482 178.311 75.5482C178.508 75.3519 178.764 75.2243 179.039 75.1844C180.53 74.7416 181.519 73.3446 182.228 71.9609C182.702 71.037 183.114 70.027 183.023 68.9928C182.931 67.9586 182.188 66.9167 181.155 66.8112C180.303 66.7243 179.517 67.2651 178.903 67.8612C177.353 69.3744 176.358 71.3646 176.075 73.5119C175.941 74.5635 175.979 75.6437 175.693 76.6645C175.083 78.8442 173.172 80.1806 172.22 82.142C171.17 84.3032 171.749 86.7568 173.024 88.669Z" fill="#A0616A"/>
<path d="M201.142 80.3414C200.925 80.8469 200.608 81.3038 200.212 81.685C199.815 82.0663 199.346 82.3642 198.832 82.5611C198.193 82.8176 197.489 82.8608 196.824 82.6841C196.494 82.5926 196.19 82.4263 195.934 82.1981C195.679 81.9699 195.48 81.6859 195.353 81.3683C195.251 81.0483 195.195 80.7155 195.187 80.3799C195.091 78.91 195.128 77.3953 195.662 76.0224C195.868 75.4929 196.146 74.9907 196.308 74.4463C196.468 73.8176 196.55 73.1716 196.552 72.5229L196.727 68.5122C196.756 68.2211 196.736 67.9271 196.668 67.6426C196.493 67.0623 195.95 66.6851 195.453 66.3391C194.251 65.5033 193.063 64.528 192.481 63.1849C192.281 62.7806 192.209 62.3247 192.275 61.8784C192.44 61.082 193.243 60.5664 194.038 60.3927C194.557 60.2791 195.095 60.2718 195.617 60.3714C196.14 60.471 196.637 60.6753 197.079 60.9721C197.52 61.2689 197.897 61.6521 198.187 62.0984C198.476 62.5448 198.673 63.0451 198.764 63.5693C198.842 64.022 198.841 64.4843 198.887 64.9414C198.985 65.9109 199.292 66.8455 199.485 67.8008C199.959 70.1538 199.714 72.5861 200.183 74.9386C200.575 76.9057 202.053 78.1892 201.142 80.3414Z" fill="#A0616A"/>
<path d="M187.457 65.2594C188.385 65.2594 189.137 64.5069 189.137 63.5787C189.137 62.6504 188.385 61.8979 187.457 61.8979C186.528 61.8979 185.776 62.6504 185.776 63.5787C185.776 64.5069 186.528 65.2594 187.457 65.2594Z" fill="#3FD4F8"/>
<path d="M4.95848 123.985C7.69671 123.985 9.91647 121.765 9.91647 119.027C9.91647 116.289 7.69671 114.069 4.95848 114.069C2.22026 114.069 0.000488281 116.289 0.000488281 119.027C0.000488281 121.765 2.22026 123.985 4.95848 123.985Z" fill="#2F2E41"/>
<path d="M22.9303 133.746L20.4331 131.318L15.4185 132.876L15.9001 138.682L26.2108 138.203L23.0433 133.899L22.9303 133.746Z" fill="#FBBEBE"/>
<path d="M17.4686 133.696C21.8956 133.696 25.4843 130.107 25.4843 125.68C25.4843 121.253 21.8956 117.665 17.4686 117.665C13.0416 117.665 9.45288 121.253 9.45288 125.68C9.45288 130.107 13.0416 133.696 17.4686 133.696Z" fill="#FBBEBE"/>
<path d="M67.2307 144.034C67.2307 144.034 77.0781 160.957 79.4217 163.498C80.5362 164.748 81.7236 165.932 82.9777 167.042C82.9777 167.042 81.8757 170.696 80.121 170.566C79.1209 170.506 78.1401 170.264 77.2265 169.853C77.2265 169.853 76.4433 167.822 75.0772 166.932C73.7111 166.042 62.55 155.062 62.8109 151.552C63.0718 148.043 67.2307 144.034 67.2307 144.034Z" fill="#2F2E41"/>
<path d="M32.1609 168.184C32.1609 168.184 42.6605 176.333 56.9298 168.676L58.1595 167.771C58.1595 167.771 56.0843 172.439 55.8917 173.705C55.6685 175.173 50.2655 183.77 49.3839 184.181C48.5022 184.593 48.3079 184.973 48.3079 184.973L52.0495 189.092L53.4329 188.073C53.4329 188.073 58.8272 180.431 60.4049 179.033C61.9826 177.635 69.4996 163.217 69.4996 163.217C69.4996 163.217 72.3736 157.784 65.2011 157.376C58.0285 156.967 54.728 158.922 54.728 158.922L41.9985 160.944L32.1609 168.184Z" fill="#2F2E41"/>
<path d="M83.0995 166.241L88.4101 169.916C88.4101 169.916 95.1854 172.039 91.0119 173.451C86.8384 174.864 75.8403 175.375 75.5908 173.426C75.3413 171.477 76.0246 168.409 76.5733 168.577C77.1219 168.745 80.9302 169.734 83.0995 166.241Z" fill="#2F2E41"/>
<path d="M53.903 186.811L54.8859 192.209C54.8859 192.209 57.6809 197.554 54.3251 195.896C50.9692 194.237 44.0552 187.937 45.0762 186.617C46.0971 185.296 48.3505 183.863 48.5794 184.294C48.8082 184.724 50.5019 187.606 53.903 186.811Z" fill="#2F2E41"/>
<path d="M43.7765 162.716C43.7765 162.716 36.6392 171.049 32.306 169.025C27.9727 167.001 10.2448 143.555 12.269 139.222C14.2932 134.889 14.972 135.811 14.972 135.811L24.1255 136.658L21.4918 132.435C21.4918 132.435 22.7215 131.53 23.8933 132.8C25.0651 134.071 29.7696 137.243 31.4085 141.724C33.0474 146.205 37.859 145.982 37.859 145.982L43.7765 162.716Z" fill="white"/>
<path d="M72.5993 145.533L60.227 158.667L49.1438 139.099L59.6802 126.368L72.5993 145.533Z" fill="white"/>
<path d="M71.6655 145.391L60.491 156.932L50.365 139.148L59.6514 127.456L71.6655 145.391Z" fill="white"/>
<path d="M59.6207 158.165L60.2269 158.667L59.8381 159.427L42.5378 164.576L42.3743 163.983L43.1613 163.169L59.6207 158.165Z" fill="#B3B3B3"/>
<path d="M60.3807 158.554L42.4657 164.155L31.5449 143.519L49.1438 139.099L60.3807 158.554Z" fill="#D0CDE1"/>
<path d="M59.032 155.755L58.2633 156.32L49.7329 141.509L50.6145 141.097L59.032 155.755Z" fill="white"/>
<path d="M57.2686 156.578L49.6902 158.838L41.0872 143.606L48.5845 141.88L57.2686 156.578Z" fill="white"/>
<path d="M35.9187 145.277L37.4877 144.833C37.4877 144.833 46.238 143.844 46.3658 146.593C46.4935 149.343 36.3133 148.067 36.3133 148.067L34.9558 146.223L35.9187 145.277Z" fill="#FBBEBE"/>
<path d="M43.5934 157.638L45.7773 156.742C45.7773 156.742 52.3697 153.786 50.4786 151.86C48.5874 149.934 42.755 153.279 42.755 153.279L41.6384 154.337L43.5934 157.638Z" fill="#FBBEBE"/>
<path d="M41.647 153.383C41.647 153.383 45.203 156.927 44.3939 157.76C43.5847 158.592 30.3162 169.541 27.027 166.038C23.7379 162.535 7.71266 144.945 13.9483 143.436C20.184 141.928 21.8315 145.455 21.8315 145.455L30.0634 159.538L41.647 153.383Z" fill="white"/>
<path d="M30.9995 142.617L36.8408 144.598L36.7454 148.815L30.5676 148.149L30.9995 142.617Z" fill="white"/>
<path opacity="0.2" d="M36.2643 155.567L29.9708 159.251L22.7803 148.192L29.7212 157.302L36.2643 155.567Z" fill="black"/>
<path d="M13.9502 132.899C19.2204 132.899 23.4928 128.627 23.4928 123.357C23.4928 118.087 19.2204 113.814 13.9502 113.814C8.68005 113.814 4.40771 118.087 4.40771 123.357C4.40771 128.627 8.68005 132.899 13.9502 132.899Z" fill="#2F2E41"/>
<path d="M65.5108 146.366L58.8291 136.592L61.6615 133.086L68.6043 143.142L65.5108 146.366Z" fill="#3FD4F8"/>
<path d="M65.3226 150.296L55.1504 135.508L55.6521 134.902L65.7767 149.725L65.3226 150.296Z" fill="#E6E6E6"/>
<path d="M64.0118 151.735L53.8396 136.947L54.3413 136.34L64.4659 151.164L64.0118 151.735Z" fill="#E6E6E6"/>
<path d="M62.8951 152.793L52.7229 138.005L53.2246 137.399L63.3492 152.222L62.8951 152.793Z" fill="#E6E6E6"/>
<path d="M18.176 116.986H21.128C22.6226 116.986 24.0561 117.58 25.1129 118.636C26.1698 119.693 26.7636 121.127 26.7636 122.621H18.176V116.986Z" fill="#2F2E41"/>
<path d="M58.8391 113.399L58.304 113.36C58.2832 113.638 58.2684 113.918 58.2507 114.197L55.8486 114.117L58.3683 118.838L61.1982 114.296L58.7873 114.215C58.8045 113.943 58.8189 113.671 58.8391 113.399Z" fill="white"/>
<path d="M72.9282 74.9122L73.3549 75.238C73.9949 74.3998 74.6633 73.563 75.3416 72.7508L74.9297 72.4067C74.2463 73.2249 73.5729 74.0679 72.9282 74.9122Z" fill="white"/>
<path d="M77.0396 69.9919L77.4358 70.3538C78.1478 69.574 78.8871 68.7996 79.6329 68.0518L79.2529 67.6729C78.5015 68.426 77.7568 69.2064 77.0396 69.9919Z" fill="white"/>
<path d="M81.5654 65.4536L81.9284 65.8491C82.7071 65.134 83.5112 64.4278 84.3181 63.7498L83.9729 63.3389C83.16 64.0218 82.3499 64.7335 81.5654 65.4536Z" fill="white"/>
<path d="M69.2649 80.1777L69.7185 80.4644C70.2826 79.5719 70.8751 78.6791 71.4791 77.8108L71.0386 77.5042C70.4299 78.3791 69.8332 79.2785 69.2649 80.1777Z" fill="white"/>
<path d="M86.4707 61.332L86.7975 61.7576C87.6361 61.1137 88.4989 60.4811 89.3617 59.8773L89.0541 59.4375C88.1846 60.0459 87.3155 60.6832 86.4707 61.332Z" fill="white"/>
<path d="M66.0801 85.7483L66.5573 85.9936C67.0408 85.0533 67.5521 84.1112 68.0769 83.1935L67.611 82.927C67.0822 83.8516 66.5671 84.8008 66.0801 85.7483Z" fill="white"/>
<path d="M60.9029 100.856L60.3832 100.722C60.118 101.752 59.8724 102.802 59.6533 103.843L60.1785 103.954C60.396 102.92 60.6398 101.878 60.9029 100.856Z" fill="white"/>
<path d="M91.7178 57.6594L92.0058 58.1122C92.8954 57.5462 93.81 56.9923 94.7244 56.4659L94.4565 56.0007C93.5354 56.5312 92.6139 57.0891 91.7178 57.6594Z" fill="white"/>
<path d="M59.5928 107.081L59.0631 106.994C58.8908 108.042 58.7395 109.11 58.6133 110.168L59.1463 110.231C59.2715 109.181 59.4218 108.122 59.5928 107.081Z" fill="white"/>
<path d="M63.4009 91.583L63.898 91.7851C64.296 90.8056 64.7217 89.8212 65.1633 88.8596L64.6756 88.6355C64.2306 89.6045 63.8017 90.5962 63.4009 91.583Z" fill="white"/>
<path d="M61.2512 97.6365L61.7646 97.7932C62.0741 96.7804 62.4105 95.7615 62.7644 94.7647L62.2586 94.5852C61.9021 95.5893 61.5631 96.616 61.2512 97.6365Z" fill="white"/>
<path d="M128.024 46.9616C129.076 46.9252 130.148 46.9107 131.208 46.9206L131.212 46.3839C130.145 46.374 129.065 46.3885 128.006 46.4252L128.024 46.9616Z" fill="white"/>
<path d="M97.2654 54.4655L97.5123 54.942C98.4496 54.4564 99.409 53.9858 100.364 53.5433L100.139 53.0564C99.1763 53.5022 98.2096 53.9763 97.2654 54.4655Z" fill="white"/>
<path d="M140.724 47.6308C141.771 47.779 142.828 47.9525 143.865 48.1466L143.964 47.619C142.919 47.4235 141.854 47.2486 140.799 47.0994L140.724 47.6308Z" fill="white"/>
<path d="M146.98 48.8014C148.008 49.0414 149.045 49.3082 150.062 49.5943L150.208 49.0775C149.183 48.7893 148.138 48.5207 147.102 48.2788L146.98 48.8014Z" fill="white"/>
<path d="M153.106 50.5236C154.108 50.8542 155.117 51.2122 156.105 51.5878L156.296 51.0862C155.301 50.7077 154.284 50.347 153.274 50.0139L153.106 50.5236Z" fill="white"/>
<path d="M134.389 47.0184C135.446 47.0738 136.514 47.1535 137.564 47.2549L137.616 46.7208C136.558 46.6184 135.482 46.5382 134.418 46.4824L134.389 47.0184Z" fill="white"/>
<path d="M121.616 46.9274L121.682 47.4602C122.728 47.3315 123.793 47.2242 124.847 47.1413L124.805 46.6062C123.743 46.6897 122.67 46.7978 121.616 46.9274Z" fill="white"/>
<path d="M109.095 49.6127L109.254 50.1253C110.263 49.813 111.292 49.5193 112.314 49.2521L112.178 48.7329C111.149 49.0019 110.112 49.2979 109.095 49.6127Z" fill="white"/>
<path d="M103.07 51.7768L103.274 52.2734C104.25 51.873 105.247 51.4897 106.237 51.1339L106.055 50.6289C105.058 50.9872 104.053 51.3735 103.07 51.7768Z" fill="white"/>
<path d="M115.296 47.991L115.409 48.516C116.44 48.2949 117.491 48.0938 118.534 47.9183L118.445 47.3889C117.394 47.5658 116.335 47.7684 115.296 47.991Z" fill="white"/>
<path d="M164.114 54.9061L161.114 50.4736L160.06 52.6445C159.804 52.5305 159.551 52.414 159.296 52.3036L159.082 52.7963C159.331 52.9041 159.577 53.0171 159.825 53.1275L158.775 55.2881L164.114 54.9061Z" fill="white"/>
</g>
<defs>
<clipPath id="clip0_333_2662">
<rect width="243" height="196.215" fill="white"/>
</clipPath>
</defs>
</svg>
