<svg width="583" height="592" viewBox="0 0 583 592" fill="none" xmlns="http://www.w3.org/2000/svg">
<g opacity="0.5" clip-path="url(#clip0_270_1003)">
<path d="M310.377 531.225H14.0704C10.34 531.221 6.76358 529.738 4.12578 527.101C1.48797 524.464 0.00419833 520.888 0 517.159V115.016C0.00419834 111.287 1.48797 107.711 4.12578 105.074C6.76358 102.437 10.34 100.954 14.0704 100.949H310.377C314.108 100.954 317.684 102.437 320.322 105.074C322.96 107.711 324.444 111.287 324.448 115.016V517.159C324.444 520.888 322.96 524.464 320.322 527.101C317.684 529.738 314.108 531.221 310.377 531.225Z" fill="white"/>
<path d="M148.867 205.608C148.867 217.222 145.192 228.539 138.368 237.938C131.543 247.337 121.919 254.337 110.874 257.936C110.544 258.041 110.213 258.146 109.878 258.246C108.447 258.686 106.996 259.062 105.52 259.382C102.849 259.961 100.138 260.337 97.4105 260.507C96.225 260.587 95.0326 260.627 93.8334 260.627C87.6376 260.633 81.4854 259.592 75.6372 257.546C75.4672 257.486 75.2972 257.426 75.132 257.366C65.6566 253.945 57.3023 247.989 50.9793 240.148C44.6564 232.307 40.6074 222.882 39.2736 212.898C37.9398 202.915 39.3723 192.758 43.4151 183.533C47.4579 174.307 53.9559 166.368 62.2009 160.581C70.4459 154.793 80.1217 151.379 90.1739 150.711C100.226 150.042 110.269 152.144 119.208 156.789C128.148 161.433 135.64 168.441 140.87 177.05C146.1 185.658 148.866 195.536 148.867 205.608Z" fill="white"/>
<path d="M92.5142 242.06C107.302 242.06 119.29 230.076 119.29 215.292C119.29 200.508 107.302 188.523 92.5142 188.523C77.7263 188.523 65.7383 200.508 65.7383 215.292C65.7383 230.076 77.7263 242.06 92.5142 242.06Z" fill="#3FD4F8"/>
<path d="M100.122 252.714C100.193 252.386 100.23 252.05 100.232 251.714C100.23 250.454 99.7288 249.247 98.8379 248.356C97.947 247.466 96.7392 246.964 95.4793 246.962H88.475C87.2148 246.964 86.0065 247.465 85.1154 248.355C84.2243 249.246 83.7232 250.454 83.7221 251.714C83.7218 252.052 83.7587 252.389 83.832 252.719C81.1879 253.552 78.6886 254.789 76.4227 256.386C75.9822 256.691 75.5471 257.021 75.1318 257.366C75.297 257.426 75.467 257.486 75.6371 257.546C81.4853 259.591 87.6374 260.633 93.8332 260.627C95.0339 260.627 96.2263 260.587 97.4103 260.507C100.138 260.337 102.849 259.961 105.52 259.382C106.996 259.062 108.447 258.686 109.878 258.246C107.047 255.743 103.724 253.858 100.122 252.714Z" fill="#153C6B"/>
<path d="M99.2213 259.872C98.572 259.92 97.9471 260.139 97.4102 260.507C100.138 260.337 102.849 259.961 105.52 259.382L99.2213 259.872Z" fill="#153C6B"/>
<path d="M116.799 208.933L70.2834 191.92C69.785 191.738 69.3794 191.365 69.1558 190.884C68.9323 190.403 68.9092 189.853 69.0915 189.354L69.2489 188.61C72.8817 178.683 84.9225 172.435 94.8526 176.067L109.166 181.302C119.097 184.934 123.413 196.689 119.78 206.617L119.366 207.741C119.183 208.239 118.81 208.645 118.329 208.868C117.848 209.092 117.297 209.115 116.799 208.933Z" fill="#153C6B"/>
<path d="M119.304 209.877C54.471 212.268 48.8059 204.124 68.5601 191.318L72.7509 183.609L120.78 201.115L119.304 209.877Z" fill="#153C6B"/>
<path d="M106.591 180.081C106.949 178.89 105.416 177.377 103.167 176.701C100.917 176.025 98.8039 176.443 98.446 177.633C98.088 178.824 99.6212 180.337 101.87 181.012C104.12 181.688 106.233 181.271 106.591 180.081Z" fill="#153C6B"/>
<path d="M93.8325 262.128C87.4677 262.135 81.1475 261.064 75.14 258.962L74.6179 258.776C62.0342 254.23 51.4713 245.369 44.8077 233.769C38.1441 222.169 35.8117 208.582 38.2255 195.425C40.6392 182.268 47.6425 170.393 57.9899 161.912C68.3373 153.432 81.358 148.895 94.7365 149.109C108.115 149.323 120.984 154.273 131.055 163.081C141.126 171.888 147.746 183.981 149.737 197.208C151.729 210.436 148.963 223.941 141.932 235.322C134.901 246.703 124.06 255.221 111.337 259.363C110.981 259.476 110.647 259.583 110.307 259.684C108.886 260.121 107.378 260.514 105.838 260.848C103.092 261.443 100.306 261.83 97.5018 262.004C96.2973 262.086 95.0597 262.128 93.8325 262.128ZM93.8325 152.09C81.2354 152.091 69.0423 156.534 59.3978 164.635C49.7532 172.737 43.2749 183.979 41.1022 196.384C38.9295 208.789 41.2016 221.562 47.5188 232.458C53.836 243.354 63.7938 251.674 75.6408 255.955L76.1365 256.131C81.8238 258.121 87.807 259.134 93.8325 259.127C94.9925 259.127 96.1619 259.087 97.3084 259.01C99.9635 258.844 102.602 258.478 105.202 257.915C106.659 257.599 108.084 257.228 109.436 256.812C109.771 256.712 110.088 256.611 110.406 256.51C122.524 252.564 132.836 244.427 139.49 233.56C146.143 222.693 148.701 209.81 146.704 197.227C144.706 184.644 138.285 173.185 128.594 164.912C118.902 156.638 106.577 152.091 93.8325 152.09Z" fill="#CCCCCC"/>
<path d="M310.377 531.225H14.0704C10.34 531.221 6.76358 529.738 4.12578 527.101C1.48797 524.464 0.00419833 520.888 0 517.159V115.016C0.00419834 111.287 1.48797 107.711 4.12578 105.074C6.76358 102.437 10.34 100.954 14.0704 100.949H310.377C314.108 100.954 317.684 102.437 320.322 105.074C322.96 107.711 324.444 111.287 324.448 115.016V517.159C324.444 520.888 322.96 524.464 320.322 527.101C317.684 529.738 314.108 531.221 310.377 531.225ZM14.0704 102.604C10.7789 102.608 7.62325 103.917 5.29578 106.244C2.9683 108.571 1.65908 111.725 1.65535 115.016V517.159C1.65908 520.449 2.96827 523.604 5.29575 525.931C7.62322 528.258 10.7789 529.567 14.0704 529.57H310.377C313.669 529.567 316.825 528.258 319.152 525.931C321.48 523.604 322.789 520.449 322.793 517.159V115.016C322.789 111.725 321.48 108.571 319.152 106.244C316.825 103.917 313.669 102.608 310.377 102.604H14.0704Z" fill="#CCCCCC"/>
<path d="M253.016 205.394H169.172C167.414 205.392 165.729 204.692 164.487 203.449C163.245 202.205 162.547 200.52 162.547 198.763C162.547 197.005 163.245 195.32 164.487 194.077C165.729 192.833 167.414 192.134 169.172 192.131H253.016C253.888 192.13 254.752 192.301 255.557 192.634C256.363 192.967 257.095 193.455 257.712 194.071C258.329 194.687 258.818 195.418 259.152 196.223C259.486 197.028 259.658 197.891 259.658 198.763C259.658 199.634 259.486 200.497 259.152 201.302C258.818 202.107 258.329 202.839 257.712 203.455C257.095 204.07 256.363 204.559 255.557 204.892C254.752 205.224 253.888 205.395 253.016 205.394Z" fill="#E6E6E6"/>
<path d="M280.378 227.775H169.172C167.414 227.772 165.729 227.073 164.487 225.829C163.245 224.586 162.547 222.901 162.547 221.143C162.547 219.386 163.245 217.701 164.487 216.457C165.729 215.214 167.414 214.514 169.172 214.512H280.378C282.136 214.514 283.821 215.214 285.063 216.457C286.305 217.701 287.003 219.386 287.003 221.143C287.003 222.901 286.305 224.586 285.063 225.829C283.821 227.073 282.136 227.772 280.378 227.775Z" fill="#E6E6E6"/>
<path d="M252.894 313.614H44.071C43.1992 313.615 42.3358 313.444 41.5301 313.111C40.7244 312.778 39.9922 312.29 39.3754 311.674C38.7585 311.058 38.2692 310.327 37.9354 309.522C37.6015 308.717 37.4297 307.854 37.4297 306.982C37.4297 306.111 37.6015 305.248 37.9354 304.443C38.2692 303.638 38.7585 302.906 39.3754 302.29C39.9922 301.675 40.7244 301.186 41.5301 300.853C42.3358 300.521 43.1992 300.35 44.071 300.351H252.894C254.652 300.353 256.337 301.053 257.579 302.296C258.821 303.54 259.519 305.225 259.519 306.982C259.519 308.74 258.821 310.425 257.579 311.669C256.337 312.912 254.652 313.612 252.894 313.614Z" fill="#E6E6E6"/>
<path d="M280.256 335.994H44.071C43.1992 335.995 42.3358 335.825 41.5301 335.492C40.7244 335.159 39.9922 334.671 39.3754 334.055C38.7585 333.439 38.2692 332.708 37.9354 331.903C37.6015 331.098 37.4297 330.235 37.4297 329.363C37.4297 328.491 37.6015 327.629 37.9354 326.823C38.2692 326.018 38.7585 325.287 39.3754 324.671C39.9922 324.055 40.7244 323.567 41.5301 323.234C42.3358 322.901 43.1992 322.731 44.071 322.732H280.256C281.127 322.731 281.991 322.901 282.797 323.234C283.602 323.567 284.335 324.055 284.951 324.671C285.568 325.287 286.057 326.018 286.391 326.823C286.725 327.629 286.897 328.491 286.897 329.363C286.897 330.235 286.725 331.098 286.391 331.903C286.057 332.708 285.568 333.439 284.951 334.055C284.335 334.671 283.602 335.159 282.797 335.492C281.991 335.825 281.127 335.995 280.256 335.994Z" fill="#E6E6E6"/>
<path d="M252.894 387.434H44.0706C42.3114 387.434 40.6242 386.735 39.3803 385.491C38.1363 384.248 37.4375 382.561 37.4375 380.802C37.4375 379.044 38.1363 377.357 39.3803 376.113C40.6242 374.87 42.3114 374.171 44.0706 374.171H252.894C254.653 374.171 256.34 374.87 257.584 376.113C258.828 377.357 259.527 379.044 259.527 380.802C259.527 382.561 258.828 384.248 257.584 385.491C256.34 386.735 254.653 387.434 252.894 387.434Z" fill="#E6E6E6"/>
<path d="M280.255 409.814H44.0706C42.3114 409.814 40.6242 409.116 39.3803 407.872C38.1363 406.629 37.4375 404.942 37.4375 403.183C37.4375 401.424 38.1363 399.738 39.3803 398.494C40.6242 397.25 42.3114 396.552 44.0706 396.552H280.255C282.014 396.552 283.702 397.25 284.946 398.494C286.189 399.738 286.888 401.424 286.888 403.183C286.888 404.942 286.189 406.629 284.946 407.872C283.702 409.116 282.014 409.814 280.255 409.814Z" fill="#E6E6E6"/>
<path d="M252.894 461.254H44.0706C42.3114 461.254 40.6242 460.555 39.3803 459.312C38.1363 458.068 37.4375 456.381 37.4375 454.623C37.4375 452.864 38.1363 451.177 39.3803 449.933C40.6242 448.69 42.3114 447.991 44.0706 447.991H252.894C254.653 447.991 256.34 448.69 257.584 449.933C258.828 451.177 259.527 452.864 259.527 454.623C259.527 456.381 258.828 458.068 257.584 459.312C256.34 460.555 254.653 461.254 252.894 461.254Z" fill="#E6E6E6"/>
<path d="M280.255 483.634H44.0706C42.3114 483.634 40.6242 482.936 39.3803 481.692C38.1363 480.449 37.4375 478.762 37.4375 477.003C37.4375 475.244 38.1363 473.558 39.3803 472.314C40.6242 471.071 42.3114 470.372 44.0706 470.372H280.255C282.014 470.372 283.702 471.071 284.946 472.314C286.189 473.558 286.888 475.244 286.888 477.003C286.888 478.762 286.189 480.449 284.946 481.692C283.702 482.936 282.014 483.634 280.255 483.634Z" fill="#E6E6E6"/>
<path d="M696.073 430.276L399.766 430.276C396.036 430.272 392.459 428.789 389.821 426.151C387.184 423.514 385.7 419.939 385.696 416.209L385.695 14.067C385.7 10.3375 387.183 6.76204 389.821 4.12493C392.459 1.48782 396.035 0.00443273 399.766 0.000232815L696.073 0C699.803 0.00419453 703.38 1.48756 706.017 4.12467C708.655 6.76178 710.139 10.3373 710.143 14.0667L710.144 416.209C710.139 419.939 708.656 423.514 706.018 426.151C703.38 428.788 699.803 430.272 696.073 430.276Z" fill="white"/>
<path d="M696.073 430.276L399.766 430.276C396.036 430.272 392.459 428.789 389.821 426.151C387.184 423.514 385.7 419.939 385.696 416.209L385.695 14.067C385.7 10.3375 387.183 6.76204 389.821 4.12493C392.459 1.48782 396.035 0.00443273 399.766 0.000232815L696.073 0C699.803 0.00419453 703.38 1.48756 706.017 4.12467C708.655 6.76178 710.139 10.3373 710.143 14.0667L710.144 416.209C710.139 419.939 708.656 423.514 706.018 426.151C703.38 428.788 699.803 430.272 696.073 430.276ZM399.766 1.65514C396.474 1.65887 393.319 2.96775 390.991 5.29461C388.664 7.62147 387.354 10.7763 387.351 14.067L387.351 416.209C387.355 419.5 388.664 422.655 390.991 424.982C393.319 427.309 396.475 428.617 399.766 428.621L696.073 428.621C699.365 428.617 702.52 427.308 704.848 424.982C707.175 422.655 708.484 419.5 708.488 416.209L708.488 14.0667C708.484 10.776 707.175 7.62122 704.847 5.29436C702.52 2.9675 699.364 1.65863 696.073 1.65491L399.766 1.65514Z" fill="#CCCCCC"/>
<path d="M534.701 104.111C534.701 114.992 531.473 125.63 525.426 134.677C519.379 143.725 510.784 150.777 500.728 154.941C490.672 159.106 479.606 160.195 468.931 158.072C458.255 155.949 448.449 150.709 440.753 143.015C433.056 135.32 427.815 125.517 425.691 114.844C423.568 104.172 424.658 93.1091 428.823 83.0557C432.988 73.0023 440.042 64.4095 449.092 58.3639C458.143 52.3184 468.783 49.0916 479.667 49.0916C494.262 49.0961 508.257 54.8942 518.577 65.2113C528.897 75.5284 534.696 89.52 534.701 104.111Z" fill="white"/>
<path d="M505.104 113.525C504.502 148.713 452.148 148.707 451.552 113.524C452.153 78.3374 504.507 78.3429 505.104 113.525Z" fill="#3FD4F8"/>
<path d="M487.007 150.952C488.058 143.864 479.758 145.265 475.365 145.195C474.657 145.197 473.958 145.357 473.319 145.664C472.681 145.97 472.119 146.415 471.674 146.966C471.229 147.517 470.913 148.16 470.748 148.849C470.584 149.538 470.575 150.254 470.722 150.947C467.322 151.997 464.174 153.734 461.472 156.049C472.86 160.019 485.235 160.156 496.708 156.439C493.911 153.928 490.601 152.055 487.007 150.952Z" fill="#153C6B"/>
<path d="M465.739 100.864C470.701 97.9969 476.719 100.196 481.845 101.399C491.57 104.388 505.207 100.645 506.39 89.0635C507.621 78.2923 492.882 72.2892 488.171 83.0096L489.543 82.8304C474.265 60.1315 447.69 60.9924 447.865 92.1994C447.808 93.1634 449.309 93.1602 449.365 92.1988C448.803 73.809 460.977 61.2383 478.186 73.0563C482.029 76.0643 485.418 79.6114 488.247 83.5877C490.039 85.5956 490.429 76.9482 499.006 79.2132C508.447 82.8694 505.366 96.3834 496.929 99.3501C486.503 104.675 475.212 94.3506 464.981 99.5677C464.817 99.6717 464.699 99.8355 464.652 100.025C464.606 100.214 464.635 100.414 464.734 100.582C464.832 100.75 464.992 100.873 465.179 100.926C465.367 100.979 465.567 100.956 465.739 100.864Z" fill="#153C6B"/>
<path d="M479.668 160.63C465.456 160.618 451.771 155.251 441.342 145.599C430.913 135.946 424.506 122.719 423.4 108.554C422.294 94.3886 426.569 80.3272 435.373 69.1738C444.178 58.0205 456.864 50.5948 470.902 48.3779C484.94 46.1609 499.297 49.3156 511.112 57.2128C522.926 65.11 531.329 77.1692 534.644 90.9854C537.959 104.802 535.943 119.359 528.998 131.756C522.053 144.152 510.689 153.475 497.172 157.866C491.52 159.704 485.612 160.637 479.668 160.63ZM479.668 50.592C469.078 50.5905 458.725 53.7287 449.92 59.6096C441.114 65.4906 434.25 73.8501 430.197 83.6311C426.144 93.412 425.083 104.175 427.148 114.559C429.214 124.942 434.313 134.481 441.802 141.967C449.29 149.453 458.83 154.551 469.217 156.616C479.603 158.681 490.369 157.62 500.153 153.568C509.936 149.516 518.298 142.654 524.181 133.851C530.063 125.047 533.202 114.698 533.201 104.11C533.184 89.9214 527.539 76.3181 517.503 66.2849C507.468 56.2517 493.861 50.6081 479.668 50.592Z" fill="#CCCCCC"/>
<path d="M638.711 104.444L554.866 104.445C553.107 104.445 551.42 103.746 550.176 102.502C548.932 101.259 548.233 99.572 548.233 97.8132C548.233 96.0545 548.932 94.3678 550.176 93.1242C551.42 91.8806 553.107 91.1819 554.866 91.1819L638.711 91.1819C640.47 91.1819 642.157 91.8805 643.401 93.1241C644.645 94.3678 645.344 96.0545 645.344 97.8132C645.344 99.5719 644.645 101.259 643.401 102.502C642.157 103.746 640.47 104.444 638.711 104.444Z" fill="#E6E6E6"/>
<path d="M666.073 126.825L554.867 126.825C553.995 126.826 553.132 126.656 552.326 126.323C551.52 125.99 550.788 125.502 550.171 124.886C549.554 124.27 549.065 123.539 548.731 122.733C548.397 121.928 548.226 121.065 548.226 120.194C548.226 119.322 548.397 118.459 548.731 117.654C549.065 116.849 549.554 116.118 550.171 115.502C550.788 114.886 551.52 114.398 552.326 114.065C553.132 113.732 553.995 113.562 554.867 113.563L666.073 113.562C667.832 113.562 669.519 114.261 670.763 115.505C672.007 116.748 672.706 118.435 672.706 120.194C672.706 121.953 672.007 123.639 670.763 124.883C669.519 126.126 667.832 126.825 666.073 126.825Z" fill="#E6E6E6"/>
<path d="M638.59 212.664L429.766 212.664C428.009 212.662 426.324 211.963 425.081 210.719C423.839 209.476 423.142 207.79 423.142 206.033C423.142 204.276 423.839 202.59 425.081 201.347C426.324 200.104 428.009 199.404 429.766 199.402L638.59 199.402C640.349 199.402 642.036 200.1 643.28 201.344C644.524 202.587 645.223 204.274 645.223 206.033C645.223 207.792 644.524 209.478 643.28 210.722C642.036 211.966 640.349 212.664 638.59 212.664Z" fill="#E6E6E6"/>
<path d="M665.951 235.045L429.766 235.045C428.895 235.046 428.031 234.875 427.225 234.543C426.42 234.21 425.687 233.722 425.071 233.106C424.454 232.49 423.965 231.758 423.631 230.953C423.297 230.148 423.125 229.285 423.125 228.414C423.125 227.542 423.297 226.679 423.631 225.874C423.965 225.069 424.454 224.338 425.071 223.722C425.687 223.106 426.42 222.618 427.225 222.285C428.031 221.952 428.895 221.781 429.766 221.782L665.951 221.782C667.71 221.782 669.397 222.481 670.641 223.724C671.885 224.968 672.584 226.655 672.584 228.414C672.584 230.172 671.885 231.859 670.641 233.103C669.397 234.346 667.71 235.045 665.951 235.045Z" fill="#E6E6E6"/>
<path d="M638.59 286.484L429.766 286.484C428.009 286.482 426.324 285.783 425.081 284.539C423.839 283.296 423.142 281.61 423.142 279.853C423.142 278.096 423.839 276.41 425.081 275.167C426.324 273.924 428.009 273.224 429.766 273.222L638.59 273.222C640.349 273.222 642.036 273.92 643.28 275.164C644.524 276.408 645.223 278.094 645.223 279.853C645.223 281.612 644.524 283.298 643.28 284.542C642.036 285.786 640.349 286.484 638.59 286.484Z" fill="#E6E6E6"/>
<path d="M665.951 308.865L429.766 308.865C428.895 308.866 428.031 308.695 427.225 308.363C426.42 308.03 425.687 307.542 425.071 306.926C424.454 306.31 423.965 305.578 423.631 304.773C423.297 303.968 423.125 303.105 423.125 302.234C423.125 301.362 423.297 300.499 423.631 299.694C423.965 298.889 424.454 298.158 425.071 297.542C425.687 296.926 426.42 296.438 427.225 296.105C428.031 295.772 428.895 295.601 429.766 295.602L665.951 295.602C667.71 295.602 669.397 296.301 670.641 297.545C671.885 298.788 672.584 300.475 672.584 302.234C672.584 303.992 671.885 305.679 670.641 306.923C669.397 308.166 667.71 308.865 665.951 308.865Z" fill="#E6E6E6"/>
<path d="M638.589 360.304L429.766 360.305C428.007 360.305 426.32 359.606 425.076 358.362C423.832 357.119 423.133 355.432 423.133 353.673C423.133 351.915 423.832 350.228 425.076 348.984C426.32 347.741 428.007 347.042 429.766 347.042L638.589 347.042C640.348 347.042 642.036 347.74 643.279 348.984C644.523 350.228 645.222 351.914 645.222 353.673C645.222 355.432 644.523 357.119 643.279 358.362C642.036 359.606 640.348 360.304 638.589 360.304Z" fill="#E6E6E6"/>
<path d="M665.951 382.685L429.766 382.685C428.007 382.685 426.32 381.987 425.076 380.743C423.832 379.499 423.133 377.813 423.133 376.054C423.133 374.295 423.832 372.608 425.076 371.365C426.32 370.121 428.007 369.423 429.766 369.423L665.951 369.422C667.71 369.422 669.397 370.121 670.641 371.365C671.885 372.608 672.584 374.295 672.584 376.054C672.584 377.812 671.885 379.499 670.641 380.743C669.397 381.986 667.71 382.685 665.951 382.685Z" fill="#E6E6E6"/>
<path d="M517.295 603.214H220.988C217.258 603.21 213.682 601.726 211.044 599.089C208.406 596.452 206.922 592.877 206.918 589.147V187.005C206.922 183.275 208.406 179.7 211.044 177.063C213.682 174.426 217.258 172.942 220.988 172.938H517.295C521.026 172.942 524.602 174.426 527.24 177.063C529.878 179.7 531.362 183.275 531.366 187.005V589.147C531.362 592.877 529.878 596.452 527.24 599.089C524.602 601.726 521.026 603.21 517.295 603.214Z" fill="white"/>
<path d="M245.701 276.466C245.692 283.707 247.116 290.879 249.893 297.567C252.67 304.256 256.745 310.328 261.881 315.434C262.311 315.859 262.752 316.284 263.197 316.699C265.879 319.205 268.805 321.435 271.932 323.357C272.533 323.727 273.133 324.082 273.748 324.427C276.911 326.209 280.242 327.671 283.694 328.794C284.29 328.989 284.895 329.174 285.5 329.344C296.474 332.49 308.152 332.161 318.931 328.403C319.141 328.328 319.351 328.253 319.556 328.178C329.018 324.737 337.355 318.766 343.658 310.917C349.962 303.067 353.991 293.639 355.306 283.659C356.622 273.679 355.174 263.53 351.12 254.316C347.065 245.102 340.561 237.176 332.313 231.401C324.066 225.626 314.392 222.224 304.345 221.565C294.298 220.905 284.262 223.014 275.331 227.661C266.399 232.308 258.914 239.316 253.689 247.921C248.465 256.526 245.702 266.399 245.701 276.466Z" fill="white"/>
<path d="M289.113 303.433C289.14 307.695 287.568 311.813 284.708 314.975C281.879 318.079 277.666 320.138 273.415 319.286C269.5 318.502 266.319 315.081 266.716 310.944C266.782 310.047 267.043 309.176 267.48 308.391C267.917 307.606 268.52 306.925 269.247 306.397C269.974 305.869 270.808 305.505 271.69 305.332C272.572 305.159 273.481 305.18 274.354 305.394C278.073 306.359 279.554 311.717 276.456 314.232C275.712 314.835 274.644 313.78 275.394 313.171C275.857 312.748 276.206 312.215 276.41 311.622C276.614 311.029 276.665 310.395 276.56 309.777C276.455 309.159 276.196 308.577 275.808 308.085C275.42 307.592 274.914 307.205 274.338 306.959C273.657 306.741 272.936 306.681 272.229 306.783C271.522 306.885 270.847 307.147 270.256 307.548C269.665 307.949 269.172 308.479 268.817 309.099C268.461 309.718 268.251 310.411 268.202 311.123C267.957 314.612 270.63 317.239 273.908 317.857C277.454 318.526 280.97 316.712 283.372 314.207C286.126 311.299 287.646 307.437 287.612 303.433C287.618 303.238 287.7 303.053 287.84 302.918C287.981 302.783 288.168 302.707 288.362 302.707C288.557 302.707 288.744 302.783 288.884 302.918C289.024 303.053 289.106 303.238 289.113 303.433Z" fill="#153C6B"/>
<path d="M303.769 312.971C318.557 312.971 330.545 300.987 330.545 286.203C330.545 271.419 318.557 259.434 303.769 259.434C288.981 259.434 276.993 271.419 276.993 286.203C276.993 300.987 288.981 312.971 303.769 312.971Z" fill="#3FD4F8"/>
<path d="M285.501 329.344C296.474 332.49 308.153 332.162 318.932 328.404C319.142 328.328 319.352 328.253 319.557 328.178C317.017 326.22 314.144 324.735 311.077 323.797C311.294 323.028 311.29 322.213 311.067 321.446C310.763 320.474 310.153 319.625 309.329 319.027C308.504 318.428 307.508 318.112 306.489 318.125H299.965C298.948 318.111 297.953 318.427 297.13 319.024C296.307 319.622 295.699 320.47 295.397 321.441C295.174 322.21 295.17 323.026 295.387 323.797C292.685 324.624 290.132 325.875 287.823 327.503C287.357 327.828 286.907 328.168 286.472 328.524C286.142 328.789 285.816 329.064 285.501 329.344Z" fill="#153C6B"/>
<path d="M324.745 283.363C324.745 287.874 326.966 291.616 329.853 292.266C330.147 292.332 330.448 292.365 330.749 292.366C334.056 292.366 336.752 288.33 336.752 283.363C336.827 280.802 336.01 278.296 334.441 276.271C333.953 275.68 333.353 275.192 332.675 274.835C332.08 274.525 331.42 274.362 330.749 274.36C329.827 274.371 328.933 274.672 328.192 275.22C326.156 276.661 324.745 279.767 324.745 283.363Z" fill="#2F2E41"/>
<path d="M271.213 283.363C271.213 287.244 272.853 290.555 275.155 291.821C275.785 292.174 276.494 292.361 277.216 292.366C277.377 292.366 277.537 292.356 277.696 292.336C280.778 291.971 283.22 288.09 283.22 283.363C283.22 279.577 281.654 276.331 279.442 275.005C278.774 274.59 278.003 274.367 277.216 274.36C276.545 274.362 275.885 274.525 275.29 274.835C274.61 275.194 274.008 275.683 273.519 276.276C271.954 278.301 271.139 280.805 271.213 283.363Z" fill="#2F2E41"/>
<path d="M275.529 290.958C275.648 290.958 275.765 290.929 275.871 290.875C275.977 290.82 276.069 290.741 276.138 290.645C276.207 290.548 276.253 290.436 276.271 290.318C276.288 290.201 276.278 290.08 276.24 289.967C274.805 285.703 274.374 281.166 274.979 276.708C275.584 272.25 277.209 267.992 279.727 264.264C282.246 260.536 285.591 257.439 289.501 255.213C293.412 252.988 297.783 251.694 302.276 251.432C306.768 251.17 311.26 251.947 315.403 253.702C319.546 255.458 323.228 258.146 326.164 261.555C329.099 264.965 331.208 269.006 332.328 273.363C333.447 277.72 333.546 282.277 332.618 286.679C332.577 286.873 332.615 287.076 332.724 287.243C332.833 287.409 333.003 287.525 333.198 287.566C333.392 287.607 333.595 287.57 333.762 287.461C333.928 287.353 334.045 287.183 334.086 286.989C335.063 282.361 334.959 277.57 333.783 272.988C332.606 268.407 330.389 264.158 327.303 260.573C324.217 256.988 320.346 254.162 315.99 252.316C311.634 250.47 306.91 249.653 302.187 249.928C297.464 250.204 292.868 251.565 288.757 253.905C284.645 256.245 281.129 259.502 278.481 263.422C275.833 267.342 274.125 271.819 273.49 276.506C272.854 281.194 273.309 285.964 274.817 290.447C274.868 290.596 274.963 290.725 275.091 290.817C275.218 290.908 275.371 290.958 275.529 290.958Z" fill="#2F2E41"/>
<path d="M300.735 332.985C295.441 332.989 290.172 332.249 285.085 330.785C284.487 330.617 283.859 330.426 283.228 330.22C279.683 329.066 276.261 327.564 273.012 325.735C272.403 325.393 271.792 325.033 271.145 324.634C267.934 322.659 264.928 320.368 262.172 317.796C261.718 317.372 261.267 316.936 260.827 316.502C252.161 307.864 246.533 296.649 244.788 284.54C243.043 272.431 245.275 260.084 251.149 249.352C257.023 238.62 266.222 230.083 277.363 225.024C288.505 219.965 300.988 218.657 312.936 221.297C324.885 223.936 335.654 230.381 343.627 239.662C351.599 248.943 356.343 260.56 357.147 272.767C357.952 284.974 354.772 297.112 348.086 307.359C341.4 317.605 331.569 325.405 320.07 329.589C319.863 329.664 319.65 329.74 319.436 329.816C313.426 331.92 307.103 332.992 300.735 332.985ZM300.735 222.947C290.14 222.947 279.783 226.091 270.976 231.979C262.169 237.868 255.308 246.237 251.261 256.026C247.214 265.815 246.164 276.584 248.243 286.971C250.322 297.357 255.438 306.893 262.941 314.371C263.356 314.781 263.786 315.197 264.221 315.602C266.831 318.039 269.677 320.208 272.719 322.079C273.332 322.456 273.908 322.796 274.483 323.118C277.559 324.851 280.8 326.274 284.158 327.366C284.752 327.561 285.339 327.74 285.907 327.899C296.583 330.962 307.947 330.644 318.435 326.987L319.041 326.769C330.869 322.465 340.801 314.133 347.095 303.235C353.388 292.338 355.64 279.572 353.455 267.18C351.27 254.788 344.788 243.562 335.146 235.473C325.505 227.383 313.322 222.949 300.735 222.947Z" fill="#CCCCCC"/>
<path d="M517.295 603.214H220.988C217.258 603.21 213.682 601.726 211.044 599.089C208.406 596.452 206.922 592.877 206.918 589.147V187.005C206.922 183.275 208.406 179.7 211.044 177.063C213.682 174.426 217.258 172.942 220.988 172.938H517.295C521.026 172.942 524.602 174.426 527.24 177.063C529.878 179.7 531.362 183.275 531.366 187.005V589.147C531.362 592.877 529.878 596.452 527.24 599.089C524.602 601.726 521.026 603.21 517.295 603.214ZM220.988 174.593C217.697 174.597 214.541 175.905 212.214 178.232C209.886 180.559 208.577 183.714 208.573 187.005V589.147C208.577 592.438 209.886 595.593 212.214 597.919C214.541 600.246 217.697 601.555 220.988 601.559H517.295C520.587 601.555 523.743 600.246 526.07 597.919C528.398 595.593 529.707 592.438 529.71 589.147V187.005C529.707 183.714 528.398 180.559 526.07 178.232C523.743 175.905 520.587 174.597 517.295 174.593H220.988Z" fill="#2F2E41"/>
<path d="M459.934 277.383H376.089C374.33 277.383 372.643 276.684 371.399 275.44C370.155 274.197 369.456 272.51 369.456 270.751C369.456 268.992 370.155 267.306 371.399 266.062C372.643 264.819 374.33 264.12 376.089 264.12H459.934C461.693 264.12 463.38 264.819 464.624 266.062C465.868 267.306 466.567 268.992 466.567 270.751C466.567 272.51 465.868 274.197 464.624 275.44C463.38 276.684 461.693 277.383 459.934 277.383Z" fill="#3FD4F8"/>
<path d="M487.295 299.763H376.089C374.33 299.763 372.643 299.064 371.399 297.821C370.155 296.577 369.456 294.891 369.456 293.132C369.456 291.373 370.155 289.686 371.399 288.443C372.643 287.199 374.33 286.5 376.089 286.5H487.295C489.054 286.5 490.742 287.199 491.985 288.443C493.229 289.686 493.928 291.373 493.928 293.132C493.928 294.891 493.229 296.577 491.985 297.821C490.742 299.064 489.054 299.763 487.295 299.763Z" fill="#3FD4F8"/>
<path d="M459.812 385.602H250.989C249.229 385.602 247.542 384.904 246.298 383.66C245.054 382.416 244.355 380.73 244.355 378.971C244.355 377.212 245.054 375.525 246.298 374.282C247.542 373.038 249.229 372.34 250.989 372.34H459.812C461.571 372.34 463.258 373.038 464.502 374.282C465.746 375.525 466.445 377.212 466.445 378.971C466.445 380.73 465.746 382.416 464.502 383.66C463.258 384.904 461.571 385.602 459.812 385.602Z" fill="#CCCCCC"/>
<path d="M487.173 407.983H250.989C249.229 407.983 247.542 407.284 246.298 406.041C245.054 404.797 244.355 403.11 244.355 401.352C244.355 399.593 245.054 397.906 246.298 396.663C247.542 395.419 249.229 394.72 250.989 394.72H487.173C488.932 394.72 490.62 395.419 491.864 396.663C493.107 397.906 493.806 399.593 493.806 401.352C493.806 403.11 493.107 404.797 491.864 406.041C490.62 407.284 488.932 407.983 487.173 407.983Z" fill="#CCCCCC"/>
<path d="M459.812 459.422H250.989C249.231 459.42 247.546 458.72 246.304 457.477C245.062 456.234 244.364 454.548 244.364 452.791C244.364 451.034 245.062 449.348 246.304 448.105C247.546 446.862 249.231 446.162 250.989 446.16H459.812C461.572 446.16 463.259 446.858 464.503 448.102C465.747 449.346 466.446 451.032 466.446 452.791C466.446 454.55 465.747 456.236 464.503 457.48C463.259 458.724 461.572 459.422 459.812 459.422Z" fill="#CCCCCC"/>
<path d="M487.174 481.803H250.989C249.231 481.801 247.546 481.101 246.304 479.858C245.062 478.614 244.364 476.929 244.364 475.172C244.364 473.414 245.062 471.729 246.304 470.485C247.546 469.242 249.231 468.542 250.989 468.54H487.174C488.933 468.54 490.62 469.239 491.864 470.483C493.108 471.726 493.807 473.413 493.807 475.172C493.807 476.93 493.108 478.617 491.864 479.861C490.62 481.104 488.933 481.803 487.174 481.803Z" fill="#CCCCCC"/>
<path d="M459.812 533.242H250.989C249.229 533.242 247.542 532.543 246.298 531.3C245.054 530.056 244.355 528.37 244.355 526.611C244.355 524.852 245.054 523.165 246.298 521.922C247.542 520.678 249.229 519.979 250.989 519.979H459.812C461.571 519.979 463.258 520.678 464.502 521.922C465.746 523.165 466.445 524.852 466.445 526.611C466.445 528.37 465.746 530.056 464.502 531.3C463.258 532.543 461.571 533.242 459.812 533.242Z" fill="#CCCCCC"/>
<path d="M487.173 555.623H250.989C249.229 555.623 247.542 554.924 246.298 553.681C245.054 552.437 244.355 550.75 244.355 548.992C244.355 547.233 245.054 545.546 246.298 544.303C247.542 543.059 249.229 542.36 250.989 542.36H487.173C488.932 542.36 490.62 543.059 491.864 544.303C493.107 545.546 493.806 547.233 493.806 548.992C493.806 550.75 493.107 552.437 491.864 553.681C490.62 554.924 488.932 555.623 487.173 555.623Z" fill="#CCCCCC"/>
<path d="M513.857 511.643C505.269 511.633 496.763 513.316 488.826 516.595C480.888 519.874 473.675 524.685 467.599 530.753C461.523 536.821 456.702 544.027 453.413 551.958C450.125 559.89 448.432 568.391 448.432 576.978C448.432 585.564 450.124 594.066 453.413 601.997C456.702 609.929 461.522 617.135 467.599 623.202C473.675 629.27 480.888 634.081 488.825 637.361C496.763 640.64 505.269 642.323 513.857 642.313C531.169 642.282 547.763 635.385 559.994 623.136C572.225 610.887 579.095 594.286 579.095 576.978C579.095 559.67 572.225 543.069 559.994 530.82C547.763 518.57 531.17 511.673 513.857 511.643Z" fill="#3FD4F8"/>
<path d="M507.657 604.112C505.937 604.115 504.262 603.558 502.885 602.526L502.8 602.462L484.828 588.718C483.149 587.429 482.051 585.526 481.774 583.428C481.498 581.33 482.066 579.208 483.354 577.528C484.642 575.848 486.545 574.749 488.643 574.471C490.742 574.192 492.865 574.759 494.546 576.045L506.187 584.969L533.695 549.092C534.333 548.26 535.128 547.562 536.036 547.037C536.944 546.513 537.946 546.172 538.985 546.035C540.025 545.898 541.081 545.967 542.094 546.237C543.106 546.508 544.056 546.976 544.888 547.613L544.89 547.615L544.72 547.852L544.895 547.615C546.573 548.905 547.672 550.808 547.948 552.906C548.225 555.004 547.658 557.127 546.372 558.807L514.016 600.988C513.268 601.96 512.305 602.747 511.204 603.287C510.102 603.827 508.891 604.106 507.664 604.102L507.657 604.112Z" fill="white"/>
</g>
<defs>
<clipPath id="clip0_270_1003">
<rect width="583" height="592" fill="white"/>
</clipPath>
</defs>
</svg>
