<svg width="197" height="197" viewBox="0 0 197 197" fill="none" xmlns="http://www.w3.org/2000/svg">
<rect width="197" height="197" rx="6" fill="white"/>
<path opacity="0.5" d="M122 77C123.1 77 124 77.9 124 79V118.975L123.375 118.162L106.375 96.1625C105.812 95.425 104.925 95 104 95C103.075 95 102.2 95.425 101.625 96.1625L91.25 109.588L87.4375 104.25C86.875 103.462 85.975 103 85 103C84.025 103 83.125 103.463 82.5625 104.263L72.5625 118.263L72 119.037V119V79C72 77.9 72.9 77 74 77H122ZM74 71C69.5875 71 66 74.5875 66 79V119C66 123.412 69.5875 127 74 127H122C126.412 127 130 123.412 130 119V79C130 74.5875 126.412 71 122 71H74ZM84 95C84.7879 95 85.5681 94.8448 86.2961 94.5433C87.0241 94.2417 87.6855 93.7998 88.2426 93.2426C88.7998 92.6855 89.2417 92.0241 89.5433 91.2961C89.8448 90.5681 90 89.7879 90 89C90 88.2121 89.8448 87.4319 89.5433 86.7039C89.2417 85.9759 88.7998 85.3145 88.2426 84.7574C87.6855 84.2002 87.0241 83.7583 86.2961 83.4567C85.5681 83.1552 84.7879 83 84 83C83.2121 83 82.4319 83.1552 81.7039 83.4567C80.9759 83.7583 80.3145 84.2002 79.7574 84.7574C79.2002 85.3145 78.7583 85.9759 78.4567 86.7039C78.1552 87.4319 78 88.2121 78 89C78 89.7879 78.1552 90.5681 78.4567 91.2961C78.7583 92.0241 79.2002 92.6855 79.7574 93.2426C80.3145 93.7998 80.9759 94.2417 81.7039 94.5433C82.4319 94.8448 83.2121 95 84 95Z" fill="#0E1C2E"/>
</svg>
