<svg width="513" height="220" viewBox="0 0 513 220" fill="none" xmlns="http://www.w3.org/2000/svg">
<g filter="url(#filter0_d_215_62)">
<rect x="317" y="76" width="169" height="68" rx="34" fill="#3FD4F8"/>
<rect x="314.467" y="73.4667" width="174.067" height="73.0667" rx="36.5333" stroke="#06BDEA" stroke-width="5.06667"/>
</g>
<g filter="url(#filter1_d_215_62)">
<circle cx="459" cy="110" r="34" fill="white"/>
<circle cx="459" cy="110" r="36.5" stroke="#3FD4F8" stroke-width="5"/>
</g>
<circle cx="81.5" cy="146.5" r="24.5" fill="#3FD4F8"/>
<circle cx="125.5" cy="138.5" r="39.5" fill="#3FD4F8"/>
<circle cx="46" cy="139" r="32" fill="#3FD4F8"/>
<circle cx="81.5" cy="110.5" r="24.5" fill="#3FD4F8"/>
<circle cx="38" cy="86" r="8" fill="#3FD4F8"/>
<rect x="86.4922" y="14.2129" width="11" height="160.315" transform="rotate(15 86.4922 14.2129)" fill="#153C6B"/>
<rect x="85.9941" width="19.3185" height="32.0165" rx="5" transform="rotate(15 85.9941 0)" fill="#153C6B"/>
<path d="M9.4854 157.787C10.3278 156.08 12.0658 155 13.9688 155H122.031C123.934 155 125.672 156.08 126.515 157.787L132.439 169.787C134.079 173.11 131.661 177 127.955 177H8.04456C4.3387 177 1.92065 173.11 3.56116 169.787L9.4854 157.787Z" fill="#153C6B"/>
<g filter="url(#filter2_d_215_62)">
<path d="M132.296 67.0471C132.296 67.3194 131.819 67.8641 130.866 68.6811C129.913 69.4981 128.755 70.3831 127.394 71.3363C126.168 72.1533 124.875 72.9021 123.513 73.583C122.152 74.2638 121.062 74.6042 120.245 74.6042C119.701 74.6042 118.952 74.6042 117.999 74.6042C117.182 74.468 116.296 74.1957 115.343 73.7872C114.526 73.3787 113.777 72.8341 113.097 72.1532C112.416 71.3363 112.075 70.315 112.075 69.0896C112.075 67.1833 112.756 65.4132 114.118 63.7792C115.479 62.0091 117.25 61.124 119.428 61.124C119.837 61.124 120.722 61.3282 122.083 61.7367C123.581 62.0091 125.079 62.4176 126.577 62.9622C128.075 63.5069 129.368 64.1196 130.457 64.8004C131.683 65.4812 132.296 66.2301 132.296 67.0471ZM139.036 143.435C139.036 144.388 138.287 145.205 136.789 145.886C135.427 146.567 134.406 146.907 133.725 146.907C132.364 146.907 131.138 146.022 130.049 144.252C128.96 142.482 128.007 140.439 127.19 138.125C126.373 135.81 125.692 133.631 125.147 131.589C124.602 129.41 124.194 127.912 123.922 127.095C123.513 125.734 122.968 124.1 122.288 122.193C121.607 120.287 120.926 118.449 120.245 116.679C119.701 114.909 119.224 113.343 118.816 111.981C118.407 110.619 118.203 109.871 118.203 109.734C118.203 107.828 118.543 106.058 119.224 104.424C120.041 102.79 120.994 101.973 122.083 101.973C123.309 101.973 124.602 102.926 125.964 104.833C127.326 106.739 128.619 109.19 129.845 112.185C131.206 115.045 132.432 118.245 133.521 121.785C134.61 125.189 135.564 128.457 136.381 131.589C137.198 134.584 137.81 137.239 138.219 139.554C138.763 141.733 139.036 143.026 139.036 143.435ZM213.233 135.878C213.233 136.695 212.96 137.512 212.416 138.329C211.871 139.146 211.19 139.895 210.373 140.575C209.692 141.256 208.875 141.869 207.922 142.414C207.105 142.822 206.356 143.026 205.676 143.026C203.361 143.026 200.365 142.55 196.689 141.597C193.149 140.507 190.289 138.873 188.111 136.695C185.796 134.38 183.753 131.657 181.983 128.525C180.213 125.257 178.239 120.491 176.06 114.228C174.562 120.219 172.792 126.142 170.75 131.997C168.843 137.852 165.712 143.231 161.354 148.133C161.082 148.405 160.674 148.541 160.129 148.541C159.176 148.541 158.155 148.064 157.065 147.111C155.976 146.158 155.431 145.205 155.431 144.252C155.431 143.299 155.295 141.12 155.023 137.716C154.887 134.176 154.682 130.295 154.41 126.074C154.138 121.717 153.865 117.36 153.593 113.002C153.457 108.509 153.389 104.833 153.389 101.973C153.389 100.611 153.457 98.8413 153.593 96.6627C153.729 94.3479 154.138 92.3735 154.819 90.7396C154.955 90.4673 155.431 89.9226 156.248 89.1056C157.201 88.2886 158.223 87.8801 159.312 87.8801C160.265 87.8801 160.81 88.4929 160.946 89.7184C161.082 90.9438 161.15 92.3055 161.15 93.8033V126.074C161.15 126.755 161.218 127.708 161.354 128.933C161.627 130.159 161.967 131.044 162.376 131.589C163.873 128.321 165.235 124.508 166.461 120.151C167.822 115.658 169.116 111.436 170.341 107.488C171.567 103.403 172.792 99.9987 174.018 97.2754C175.243 94.416 176.469 92.9863 177.694 92.9863C179.056 92.9863 180.145 93.2586 180.962 93.8033C181.779 94.3479 182.46 95.4372 183.004 97.0712C183.685 101.02 184.23 104.56 184.638 107.692C185.047 110.688 185.523 113.411 186.068 115.862C186.749 118.313 187.634 120.627 188.723 122.806C189.949 124.849 191.583 126.755 193.625 128.525C195.531 130.295 197.642 131.589 199.957 132.406C202.408 133.223 204.518 133.631 206.288 133.631C207.105 133.631 207.99 133.495 208.944 133.223C209.897 132.814 210.578 132.61 210.986 132.61C211.531 132.61 212.007 133.086 212.416 134.04C212.96 134.993 213.233 135.605 213.233 135.878ZM235.815 67.0471C235.815 67.3194 235.338 67.8641 234.385 68.6811C233.432 69.4981 232.274 70.3831 230.913 71.3363C229.687 72.1533 228.394 72.9021 227.032 73.583C225.67 74.2638 224.581 74.6042 223.764 74.6042C223.219 74.6042 222.471 74.6042 221.517 74.6042C220.7 74.468 219.815 74.1957 218.862 73.7872C218.045 73.3787 217.296 72.8341 216.616 72.1532C215.935 71.3363 215.594 70.315 215.594 69.0896C215.594 67.1833 216.275 65.4132 217.637 63.7792C218.998 62.0091 220.769 61.124 222.947 61.124C223.356 61.124 224.241 61.3282 225.602 61.7367C227.1 62.0091 228.598 62.4176 230.096 62.9622C231.594 63.5069 232.887 64.1196 233.976 64.8004C235.202 65.4812 235.815 66.2301 235.815 67.0471ZM242.555 143.435C242.555 144.388 241.806 145.205 240.308 145.886C238.946 146.567 237.925 146.907 237.244 146.907C235.883 146.907 234.657 146.022 233.568 144.252C232.479 142.482 231.525 140.439 230.708 138.125C229.891 135.81 229.211 133.631 228.666 131.589C228.121 129.41 227.713 127.912 227.441 127.095C227.032 125.734 226.487 124.1 225.807 122.193C225.126 120.287 224.445 118.449 223.764 116.679C223.219 114.909 222.743 113.343 222.334 111.981C221.926 110.619 221.722 109.871 221.722 109.734C221.722 107.828 222.062 106.058 222.743 104.424C223.56 102.79 224.513 101.973 225.602 101.973C226.828 101.973 228.121 102.926 229.483 104.833C230.845 106.739 232.138 109.19 233.364 112.185C234.725 115.045 235.951 118.245 237.04 121.785C238.129 125.189 239.083 128.457 239.9 131.589C240.716 134.584 241.329 137.239 241.738 139.554C242.282 141.733 242.555 143.026 242.555 143.435ZM306.131 143.026C306.131 144.524 305.586 145.545 304.497 146.09C303.408 146.635 302.863 147.384 302.863 148.337C302.727 148.201 302.999 148.95 303.68 150.583C304.361 152.217 304.973 153.919 305.518 155.69C306.471 159.366 307.288 162.566 307.969 165.289C308.786 168.012 309.399 170.531 309.807 172.846C310.352 175.161 310.76 177.476 311.033 179.791C311.305 182.105 311.441 184.692 311.441 187.552C311.441 190.411 310.965 193.339 310.012 196.334C309.058 199.33 307.697 201.985 305.927 204.3C304.157 206.615 301.978 208.521 299.391 210.019C296.804 211.517 293.876 212.266 290.608 212.266C285.57 212.266 281.553 211.244 278.558 209.202C275.698 207.159 273.52 204.845 272.022 202.258C270.524 199.67 269.571 197.083 269.162 194.496C268.754 192.045 268.55 190.411 268.55 189.594C268.55 184.556 269.843 179.518 272.43 174.48C275.017 169.442 277.877 164.881 281.009 160.796C284.14 156.711 287 153.307 289.587 150.583C292.174 147.86 293.468 146.294 293.468 145.886L291.221 139.146C289.859 140.78 288.634 142.618 287.545 144.66C286.591 146.567 285.502 148.405 284.277 150.175C283.187 151.809 281.826 153.239 280.192 154.464C278.694 155.553 276.788 156.098 274.473 156.098C272.022 156.098 269.571 155.349 267.12 153.851C264.669 152.354 262.49 150.107 260.584 147.111C258.678 144.116 257.112 140.507 255.887 136.286C254.797 132.065 254.253 127.163 254.253 121.581C254.253 118.449 254.729 114.568 255.682 109.939C256.635 105.173 258.133 100.611 260.176 96.2542C262.218 91.897 264.737 88.2206 267.733 85.225C270.864 82.0932 274.473 80.5273 278.558 80.5273C280.873 80.5273 282.983 80.9358 284.889 81.7528C286.932 82.5698 287.953 83.591 287.953 84.8165C287.953 85.9058 287.749 86.7908 287.34 87.4717C286.932 88.1525 286.387 88.8333 285.706 89.5141C285.298 89.2418 284.821 88.9695 284.277 88.6971C283.868 88.4248 283.255 88.2886 282.438 88.2886C279.443 88.2886 276.72 89.6503 274.269 92.3735C271.954 94.9607 269.979 98.2286 268.345 102.177C266.712 105.99 265.418 110.007 264.465 114.228C263.648 118.449 263.239 122.125 263.239 125.257C263.239 132.201 264.397 137.512 266.712 141.188C269.026 144.728 271.477 146.499 274.064 146.499C275.29 146.499 276.583 145.614 277.945 143.843C279.443 141.937 280.804 139.895 282.03 137.716C283.392 135.401 284.549 133.223 285.502 131.18C286.455 129.138 287 127.912 287.136 127.504C287.408 126.142 287.545 124.576 287.545 122.806C287.545 121.308 287.476 119.674 287.34 117.904C287.34 115.998 287.34 114.092 287.34 112.185C287.34 108.645 287.613 105.718 288.157 103.403C288.702 100.952 290.064 99.7264 292.242 99.7264C294.421 99.7264 295.987 100.407 296.94 101.769C297.893 102.994 298.37 104.492 298.37 106.262C298.37 107.488 298.301 108.986 298.165 110.756C298.165 112.39 298.165 114.024 298.165 115.658C298.165 117.155 298.097 118.517 297.961 119.742C297.961 120.832 297.961 121.513 297.961 121.785C297.961 122.602 298.029 123.827 298.165 125.461C298.438 126.959 298.642 128.525 298.778 130.159C299.05 131.657 299.255 133.086 299.391 134.448C299.663 135.674 299.867 136.491 300.004 136.899C300.14 137.308 300.344 137.92 300.616 138.737C300.889 139.554 301.161 140.167 301.433 140.575C301.569 140.303 301.842 140.031 302.25 139.758C302.659 139.35 302.999 139.01 303.271 138.737C303.952 139.146 304.565 139.963 305.11 141.188C305.79 142.278 306.131 142.89 306.131 143.026ZM299.187 168.966C298.642 166.787 298.029 164.608 297.348 162.43C296.668 160.251 295.987 158.004 295.306 155.69C292.991 158.549 290.744 161.272 288.566 163.859C286.523 166.583 284.617 169.238 282.847 171.825C281.213 174.412 279.851 177.067 278.762 179.791C277.809 182.65 277.332 185.646 277.332 188.777C277.332 192.998 278.49 196.471 280.804 199.194C283.255 201.917 285.911 203.279 288.77 203.279C291.902 203.279 294.829 202.121 297.553 199.807C300.412 197.492 301.842 194.156 301.842 189.799C301.842 186.939 301.774 184.556 301.637 182.65C301.501 180.744 301.297 179.042 301.025 177.544C300.889 176.182 300.616 174.821 300.208 173.459C299.935 172.233 299.595 170.736 299.187 168.966Z" fill="#153C6B"/>
</g>
<path d="M492.894 63.4337L492.422 75.2612L492.394 75.9495L492.898 76.4189L501.385 84.3205L489.789 84.33L489.101 84.3305L488.652 84.8534L480.946 93.8381L481.418 82.0105L481.446 81.3222L480.941 80.8528L472.455 72.9513L484.05 72.9418L484.739 72.9412L485.188 72.4183L492.894 63.4337Z" fill="white" stroke="#3FD4F8" stroke-width="3"/>
<path d="M358.283 124.321C356.83 124.321 355.425 124.232 354.068 124.054C352.723 123.875 351.455 123.542 350.264 123.053C349.085 122.565 348.008 121.94 347.031 121.178C346.055 120.404 345.216 119.481 344.513 118.41C343.811 117.326 343.263 116.088 342.87 114.695C342.489 113.29 342.299 111.712 342.299 109.962C342.299 108.319 342.489 106.837 342.87 105.515C343.251 104.193 343.787 103.021 344.477 101.997C345.168 100.973 345.995 100.092 346.96 99.3534C347.936 98.6152 349.014 98.0139 350.193 97.5496C351.383 97.0733 352.657 96.7221 354.015 96.4959C355.384 96.2696 356.807 96.1565 358.283 96.1565C359.759 96.1565 361.182 96.2696 362.552 96.4959C363.921 96.7221 365.201 97.0733 366.391 97.5496C367.582 98.0259 368.66 98.6331 369.624 99.3713C370.6 100.11 371.434 100.991 372.124 102.015C372.815 103.039 373.351 104.211 373.732 105.533C374.113 106.843 374.303 108.319 374.303 109.962C374.303 112.534 373.881 114.743 373.035 116.588C372.202 118.422 371.059 119.922 369.606 121.089C368.154 122.256 366.457 123.089 364.516 123.589C362.575 124.077 360.498 124.321 358.283 124.321ZM358.283 104.318C357.521 104.318 356.878 104.42 356.354 104.622C355.842 104.813 355.414 105.069 355.068 105.39C354.735 105.712 354.479 106.075 354.3 106.48C354.122 106.884 353.985 107.295 353.89 107.712C353.806 108.129 353.759 108.533 353.747 108.926C353.735 109.319 353.729 109.665 353.729 109.962C353.729 110.26 353.735 110.605 353.747 110.998C353.759 111.391 353.806 111.802 353.89 112.23C353.985 112.647 354.122 113.064 354.3 113.481C354.479 113.897 354.735 114.272 355.068 114.606C355.414 114.927 355.842 115.189 356.354 115.392C356.878 115.594 357.521 115.695 358.283 115.695C359.045 115.695 359.682 115.594 360.194 115.392C360.718 115.189 361.153 114.927 361.498 114.606C361.843 114.272 362.105 113.897 362.284 113.481C362.474 113.064 362.611 112.647 362.694 112.23C362.778 111.802 362.825 111.391 362.837 110.998C362.861 110.605 362.873 110.26 362.873 109.962C362.873 109.665 362.861 109.319 362.837 108.926C362.825 108.533 362.778 108.129 362.694 107.712C362.611 107.295 362.474 106.884 362.284 106.48C362.105 106.075 361.843 105.712 361.498 105.39C361.153 105.069 360.718 104.813 360.194 104.622C359.682 104.42 359.045 104.318 358.283 104.318ZM386.162 110.623V115.802L388.448 116.231V124H377.018V116.249L379.304 115.802V104.765L377.018 104.318V96.5673H390.734L399.879 110.623V104.801L397.593 104.318V96.5673H409.023V104.318L406.737 104.765V115.802L409.023 116.249V124H395.289L386.162 110.623Z" fill="white"/>
<defs>
<filter id="filter0_d_215_62" x="307.934" y="70.9331" width="187.133" height="86.1338" filterUnits="userSpaceOnUse" color-interpolation-filters="sRGB">
<feFlood flood-opacity="0" result="BackgroundImageFix"/>
<feColorMatrix in="SourceAlpha" type="matrix" values="0 0 0 0 0 0 0 0 0 0 0 0 0 0 0 0 0 0 127 0" result="hardAlpha"/>
<feOffset dy="4"/>
<feGaussianBlur stdDeviation="2"/>
<feComposite in2="hardAlpha" operator="out"/>
<feColorMatrix type="matrix" values="0 0 0 0 0 0 0 0 0 0 0 0 0 0 0 0 0 0 0.25 0"/>
<feBlend mode="normal" in2="BackgroundImageFix" result="effect1_dropShadow_215_62"/>
<feBlend mode="normal" in="SourceGraphic" in2="effect1_dropShadow_215_62" result="shape"/>
</filter>
<filter id="filter1_d_215_62" x="405" y="61" width="98" height="98" filterUnits="userSpaceOnUse" color-interpolation-filters="sRGB">
<feFlood flood-opacity="0" result="BackgroundImageFix"/>
<feColorMatrix in="SourceAlpha" type="matrix" values="0 0 0 0 0 0 0 0 0 0 0 0 0 0 0 0 0 0 127 0" result="hardAlpha"/>
<feOffset dx="-5"/>
<feGaussianBlur stdDeviation="5"/>
<feComposite in2="hardAlpha" operator="out"/>
<feColorMatrix type="matrix" values="0 0 0 0 0.00392157 0 0 0 0 0.101961 0 0 0 0 0.223529 0 0 0 0.15 0"/>
<feBlend mode="normal" in2="BackgroundImageFix" result="effect1_dropShadow_215_62"/>
<feBlend mode="normal" in="SourceGraphic" in2="effect1_dropShadow_215_62" result="shape"/>
</filter>
<filter id="filter2_d_215_62" x="104.603" y="61.124" width="206.839" height="158.614" filterUnits="userSpaceOnUse" color-interpolation-filters="sRGB">
<feFlood flood-opacity="0" result="BackgroundImageFix"/>
<feColorMatrix in="SourceAlpha" type="matrix" values="0 0 0 0 0 0 0 0 0 0 0 0 0 0 0 0 0 0 127 0" result="hardAlpha"/>
<feOffset dx="-7.47239" dy="7.47239"/>
<feComposite in2="hardAlpha" operator="out"/>
<feColorMatrix type="matrix" values="0 0 0 0 0.247059 0 0 0 0 0.831373 0 0 0 0 0.972549 0 0 0 1 0"/>
<feBlend mode="normal" in2="BackgroundImageFix" result="effect1_dropShadow_215_62"/>
<feBlend mode="normal" in="SourceGraphic" in2="effect1_dropShadow_215_62" result="shape"/>
</filter>
</defs>
</svg>
