<svg width="34" height="38" viewBox="0 0 34 38" fill="none" xmlns="http://www.w3.org/2000/svg">
    <g clip-path="url(#clip0_279_2755)">
    <path d="M17.0076 10.4648C12.1808 10.4648 8.2875 14.2723 8.2875 18.9926C8.2875 23.7129 12.1808 27.5203 17.0076 27.5203C21.8344 27.5203 25.7277 23.7129 25.7277 18.9926C25.7277 14.2723 21.8344 10.4648 17.0076 10.4648ZM17.0076 24.5367C13.8884 24.5367 11.3384 22.0504 11.3384 18.9926C11.3384 15.9348 13.8808 13.4484 17.0076 13.4484C20.1344 13.4484 22.6768 15.9348 22.6768 18.9926C22.6768 22.0504 20.1268 24.5367 17.0076 24.5367ZM28.1183 10.116C28.1183 11.2219 27.2076 12.1051 26.0844 12.1051C24.9536 12.1051 24.0504 11.2144 24.0504 10.116C24.0504 9.01757 24.9612 8.12694 26.0844 8.12694C27.2076 8.12694 28.1183 9.01757 28.1183 10.116ZM33.8937 12.1348C33.7647 9.4703 33.1424 7.11014 31.1464 5.16561C29.158 3.22108 26.7446 2.61249 24.0201 2.47889C21.2121 2.32303 12.7955 2.32303 9.9875 2.47889C7.27054 2.60507 4.85714 3.21366 2.86116 5.15819C0.865179 7.10272 0.250447 9.46288 0.11384 12.1273C-0.0455353 14.8734 -0.0455353 23.1043 0.11384 25.8504C0.242858 28.5148 0.865179 30.875 2.86116 32.8195C4.85714 34.764 7.26295 35.3726 9.9875 35.5062C12.7955 35.6621 21.2121 35.6621 24.0201 35.5062C26.7446 35.3801 29.158 34.7715 31.1464 32.8195C33.1348 30.875 33.7571 28.5148 33.8937 25.8504C34.0531 23.1043 34.0531 14.8808 33.8937 12.1348ZM30.2661 28.7969C29.6741 30.2515 28.5281 31.3723 27.033 31.9586C24.7942 32.8269 19.4817 32.6266 17.0076 32.6266C14.5335 32.6266 9.21339 32.8195 6.98214 31.9586C5.49464 31.3797 4.34866 30.259 3.74911 28.7969C2.86116 26.6074 3.06607 21.4121 3.06607 18.9926C3.06607 16.573 2.86875 11.3703 3.74911 9.18827C4.34107 7.73358 5.48705 6.61288 6.98214 6.02655C9.22098 5.15819 14.5335 5.35858 17.0076 5.35858C19.4817 5.35858 24.8018 5.16561 27.033 6.02655C28.5205 6.60546 29.6665 7.72616 30.2661 9.18827C31.154 11.3777 30.9491 16.573 30.9491 18.9926C30.9491 21.4121 31.154 26.6148 30.2661 28.7969Z" fill="url(#paint0_linear_279_2755)"/>
    </g>
    <defs>
    <linearGradient id="paint0_linear_279_2755" x1="17.0038" y1="2.362" x2="17.0038" y2="35.6231" gradientUnits="userSpaceOnUse">
    <stop stop-color="#A83AB4"/>
    <stop offset="0.125" stop-color="#C13584" stop-opacity="0.875"/>
    <stop offset="0.28125" stop-color="#E1306C" stop-opacity="0.739583"/>
    <stop offset="0.421875" stop-color="#FD1D1D" stop-opacity="0.604167"/>
    <stop offset="0.572917" stop-color="#F56040" stop-opacity="0.5"/>
    <stop offset="0.697917" stop-color="#F77737" stop-opacity="0.5"/>
    <stop offset="0.859375" stop-color="#FCAF45" stop-opacity="0.5"/>
    <stop offset="1" stop-color="#FFDC80" stop-opacity="0.5"/>
    </linearGradient>
    <clipPath id="clip0_279_2755">
    <rect width="34" height="38" fill="white"/>
    </clipPath>
    </defs>
</svg> 