<svg width="458" height="446" viewBox="0 0 458 446" fill="none" xmlns="http://www.w3.org/2000/svg">
<g clip-path="url(#clip0_279_2945)">
<path d="M279.488 96.1006H160.963C158.262 96.1039 155.672 97.1784 153.762 99.0883C151.853 100.998 150.778 103.588 150.775 106.289V369.725L149.416 370.139L120.34 379.044C118.962 379.464 117.474 379.32 116.202 378.644C114.93 377.968 113.978 376.814 113.555 375.437L27.0672 92.9151C26.6463 91.537 26.7897 90.0482 27.466 88.7758C28.1423 87.5035 29.296 86.5517 30.6737 86.1297L75.48 72.4094L205.375 32.6478L250.181 18.9276C250.863 18.7177 251.579 18.6444 252.29 18.7118C253 18.7792 253.69 18.986 254.32 19.3203C254.95 19.6547 255.508 20.1101 255.962 20.6604C256.417 21.2107 256.758 21.8452 256.966 22.5274L279.074 94.7422L279.488 96.1006Z" fill="#F2F2F2"/>
<path d="M305.352 94.742L278.707 7.70667C278.264 6.2565 277.539 4.90789 276.575 3.73792C275.61 2.56795 274.424 1.59954 273.085 0.888026C271.746 0.176513 270.28 -0.264162 268.77 -0.408801C267.261 -0.55344 265.738 -0.399209 264.288 0.0450629L201.293 19.3281L71.4052 59.0965L8.41038 78.3864C5.48397 79.285 3.03365 81.3081 1.59726 84.0116C0.160871 86.7151 -0.144238 89.878 0.748918 92.8062L91.8147 390.257C92.5403 392.621 94.0043 394.69 95.9919 396.161C97.9795 397.631 100.386 398.426 102.859 398.428C104.003 398.429 105.141 398.257 106.234 397.919L149.417 384.701L150.775 384.28V382.861L149.417 383.275L105.833 396.622C103.25 397.409 100.46 397.14 98.0754 395.873C95.6906 394.606 93.9056 392.445 93.112 389.863L2.05324 92.4055C1.66005 91.1265 1.52301 89.7824 1.64997 88.4504C1.77693 87.1183 2.16538 85.8243 2.7931 84.6426C3.42082 83.4609 4.27548 82.4146 5.30812 81.5637C6.34076 80.7128 7.53109 80.0739 8.81098 79.6837L71.8058 60.3938L201.694 20.6322L264.689 1.34239C265.66 1.04611 266.669 0.895045 267.684 0.894099C269.862 0.89899 271.982 1.60127 273.732 2.89809C275.482 4.1949 276.771 6.0181 277.41 8.10063L303.932 94.742L304.354 96.1005H305.766L305.352 94.742Z" fill="#6C63FF"/>
<path d="M83.5641 86.3517C82.255 86.3507 80.9807 85.9303 79.9281 85.152C78.8755 84.3737 78.1 83.2786 77.7154 82.0273L68.9672 53.4513C68.7321 52.6837 68.6505 51.8773 68.7271 51.0781C68.8037 50.279 69.037 49.5028 69.4136 48.7938C69.7902 48.0849 70.3028 47.457 70.922 46.9462C71.5413 46.4354 72.2551 46.0516 73.0227 45.8167L192.519 9.23127C194.069 8.75821 195.743 8.91955 197.175 9.67987C198.606 10.4402 199.677 11.7374 200.153 13.2867L208.901 41.863C209.374 43.4133 209.213 45.0877 208.452 46.5191C207.692 47.9504 206.395 49.0217 204.846 49.498L85.35 86.0834C84.7713 86.261 84.1694 86.3514 83.5641 86.3517Z" fill="#153C6B"/>
<path d="M129.392 30.0673C136.895 30.0673 142.976 23.9853 142.976 16.4828C142.976 8.98039 136.895 2.89844 129.392 2.89844C121.89 2.89844 115.809 8.98039 115.809 16.4828C115.809 23.9853 121.89 30.0673 129.392 30.0673Z" fill="#153C6B"/>
<path d="M129.393 25.085C134.143 25.085 137.994 21.2337 137.994 16.4829C137.994 11.7321 134.143 7.88086 129.393 7.88086C124.642 7.88086 120.791 11.7321 120.791 16.4829C120.791 21.2337 124.642 25.085 129.393 25.085Z" fill="white"/>
<path d="M409.546 394.958H179.98C178.45 394.956 176.982 394.347 175.9 393.265C174.818 392.182 174.209 390.715 174.207 389.184V114.1C174.209 112.569 174.818 111.102 175.9 110.02C176.982 108.937 178.45 108.328 179.98 108.327H409.546C411.077 108.328 412.544 108.937 413.626 110.02C414.709 111.102 415.318 112.569 415.319 114.1V389.184C415.317 390.715 414.709 392.182 413.626 393.265C412.544 394.347 411.077 394.956 409.546 394.958Z" fill="#E6E6E6"/>
<path d="M303.932 94.7422H160.962C157.901 94.7465 154.967 95.9644 152.803 98.1289C150.638 100.293 149.42 103.228 149.416 106.289V383.275L150.774 382.861V106.289C150.778 103.588 151.852 100.998 153.762 99.0883C155.672 97.1784 158.261 96.1039 160.962 96.1006H304.353L303.932 94.7422ZM428.563 94.7422L160.962 94.7422C157.901 94.7465 154.967 95.9644 152.803 98.1289C150.638 100.293 149.42 103.228 149.416 106.289V417.372C149.42 420.433 150.638 423.367 152.803 425.532C154.967 427.697 157.901 428.914 160.962 428.919H428.563C431.624 428.914 434.558 427.697 436.723 425.532C438.887 423.367 440.105 420.433 440.109 417.372V106.289C440.105 103.228 438.887 100.293 436.723 98.1289C434.558 95.9644 431.624 94.7465 428.563 94.7422ZM438.751 417.372C438.747 420.073 437.673 422.663 435.763 424.573C433.853 426.483 431.264 427.557 428.563 427.56H160.962C158.261 427.557 155.672 426.483 153.762 424.573C151.852 422.663 150.778 420.073 150.774 417.372V106.289C150.778 103.588 151.852 100.998 153.762 99.0883C155.672 97.1784 158.261 96.1039 160.962 96.1006L428.563 96.1006C431.264 96.1039 433.853 97.1784 435.763 99.0883C437.673 100.998 438.747 103.588 438.751 106.289V417.372Z" fill="#6C63FF"/>
<path d="M357.248 124.628H232.277C230.656 124.626 229.102 123.981 227.956 122.835C226.81 121.689 226.166 120.136 226.164 118.515V88.6291C226.166 87.0084 226.811 85.4546 227.956 84.3086C229.102 83.1626 230.656 82.5179 232.277 82.5161H357.248C358.868 82.5179 360.422 83.1626 361.568 84.3086C362.714 85.4546 363.359 87.0084 363.36 88.6291V118.515C363.359 120.136 362.714 121.689 361.568 122.835C360.422 123.981 358.868 124.626 357.248 124.628Z" fill="#153C6B"/>
<path d="M294.762 84.5536C302.264 84.5536 308.345 78.4716 308.345 70.9692C308.345 63.4667 302.264 57.3848 294.762 57.3848C287.259 57.3848 281.178 63.4667 281.178 70.9692C281.178 78.4716 287.259 84.5536 294.762 84.5536Z" fill="#153C6B"/>
<path d="M294.762 79.2437C299.332 79.2437 303.036 75.5392 303.036 70.9695C303.036 66.3998 299.332 62.6953 294.762 62.6953C290.193 62.6953 286.488 66.3998 286.488 70.9695C286.488 75.5392 290.193 79.2437 294.762 79.2437Z" fill="white"/>
</g>
<defs>
<clipPath id="clip0_279_2945">
<rect width="458" height="446" fill="white"/>
</clipPath>
</defs>
</svg>
