<svg width="30" height="30" viewBox="0 0 30 30" fill="none" xmlns="http://www.w3.org/2000/svg">
    <circle cx="15" cy="15" r="15" fill="#00B2FF"/>
    <path d="M12.8311 7.72039C12.6055 7.17547 12.0107 6.88543 11.4424 7.0407L8.86426 7.74382C8.35449 7.88445 8 8.34734 8 8.87468C8 16.1227 13.877 21.9997 21.125 21.9997C21.6523 21.9997 22.1152 21.6452 22.2559 21.1354L22.959 18.5573C23.1143 17.9889 22.8242 17.3942 22.2793 17.1686L19.4668 15.9968C18.9893 15.7975 18.4355 15.9352 18.1104 16.3366L16.9268 17.7809C14.8643 16.8053 13.1943 15.1354 12.2188 13.0729L13.6631 11.8923C14.0645 11.5641 14.2021 11.0134 14.0029 10.5358L12.8311 7.72332V7.72039Z" fill="white"/>
</svg>