<svg width="205" height="205" viewBox="0 0 205 205" fill="none" xmlns="http://www.w3.org/2000/svg">
<g filter="url(#filter0_d_270_1067)">
<rect x="4" width="197" height="197" rx="6" fill="white"/>
<rect x="5" y="1" width="195" height="195" rx="5" stroke="#D9D9D9" stroke-width="2"/>
</g>
<path opacity="0.5" d="M126 77C127.1 77 128 77.9 128 79V118.975L127.375 118.162L110.375 96.1625C109.812 95.425 108.925 95 108 95C107.075 95 106.2 95.425 105.625 96.1625L95.25 109.588L91.4375 104.25C90.875 103.463 89.975 103 89 103C88.025 103 87.125 103.463 86.5625 104.263L76.5625 118.263L76 119.037V119V79C76 77.9 76.9 77 78 77H126ZM78 71C73.5875 71 70 74.5875 70 79V119C70 123.412 73.5875 127 78 127H126C130.412 127 134 123.412 134 119V79C134 74.5875 130.412 71 126 71H78ZM88 95C88.7879 95 89.5681 94.8448 90.2961 94.5433C91.0241 94.2417 91.6855 93.7998 92.2426 93.2426C92.7998 92.6855 93.2417 92.0241 93.5433 91.2961C93.8448 90.5681 94 89.7879 94 89C94 88.2121 93.8448 87.4319 93.5433 86.7039C93.2417 85.9759 92.7998 85.3145 92.2426 84.7574C91.6855 84.2002 91.0241 83.7583 90.2961 83.4567C89.5681 83.1552 88.7879 83 88 83C87.2121 83 86.4319 83.1552 85.7039 83.4567C84.9759 83.7583 84.3145 84.2002 83.7574 84.7574C83.2002 85.3145 82.7583 85.9759 82.4567 86.7039C82.1552 87.4319 82 88.2121 82 89C82 89.7879 82.1552 90.5681 82.4567 91.2961C82.7583 92.0241 83.2002 92.6855 83.7574 93.2426C84.3145 93.7998 84.9759 94.2417 85.7039 94.5433C86.4319 94.8448 87.2121 95 88 95Z" fill="#0E1C2E"/>
<defs>
<filter id="filter0_d_270_1067" x="0" y="0" width="205" height="205" filterUnits="userSpaceOnUse" color-interpolation-filters="sRGB">
<feFlood flood-opacity="0" result="BackgroundImageFix"/>
<feColorMatrix in="SourceAlpha" type="matrix" values="0 0 0 0 0 0 0 0 0 0 0 0 0 0 0 0 0 0 127 0" result="hardAlpha"/>
<feOffset dy="4"/>
<feGaussianBlur stdDeviation="2"/>
<feComposite in2="hardAlpha" operator="out"/>
<feColorMatrix type="matrix" values="0 0 0 0 0 0 0 0 0 0 0 0 0 0 0 0 0 0 0.1 0"/>
<feBlend mode="normal" in2="BackgroundImageFix" result="effect1_dropShadow_270_1067"/>
<feBlend mode="normal" in="SourceGraphic" in2="effect1_dropShadow_270_1067" result="shape"/>
</filter>
</defs>
</svg>
