<svg width="103" height="103" viewBox="0 0 103 103" fill="none" xmlns="http://www.w3.org/2000/svg">
<circle cx="51.2107" cy="51.2107" r="51.2107" fill="white"/>
<circle cx="47.2056" cy="66.6846" r="9.36085" fill="#3FD4F8"/>
<circle cx="64.0178" cy="63.6281" r="15.092" fill="#3FD4F8"/>
<circle cx="33.6424" cy="63.8192" r="12.2264" fill="#3FD4F8"/>
<circle cx="47.2056" cy="52.9302" r="9.36085" fill="#3FD4F8"/>
<circle cx="30.5859" cy="43.5693" r="3.0566" fill="#3FD4F8"/>
<rect x="49.1133" y="16.1411" width="4.20283" height="61.2524" transform="rotate(15 49.1133 16.1411)" fill="#153C6B"/>
<rect x="48.9229" y="10.7109" width="7.38111" height="12.2327" rx="1.91038" transform="rotate(15 48.9229 10.7109)" fill="#153C6B"/>
<path d="M19.6905 70.9973C20.0124 70.3453 20.6765 69.9326 21.4035 69.9326H62.6915C63.4186 69.9326 64.0827 70.3453 64.4045 70.9973L66.668 75.5822C67.2948 76.8518 66.371 78.3383 64.955 78.3383H19.14C17.7241 78.3383 16.8002 76.8518 17.427 75.5822L19.6905 70.9973Z" fill="#153C6B"/>
<g filter="url(#filter0_d_258_1532)">
<rect x="50.835" y="48.5469" width="38.906" height="15.6545" rx="7.82725" fill="#3FD4F8"/>
<rect x="50.2518" y="47.9637" width="40.0724" height="16.8209" rx="8.41045" stroke="#06BDEA" stroke-width="1.16641"/>
</g>
<g filter="url(#filter1_d_258_1532)">
<circle cx="83.5245" cy="56.3741" r="7.82725" fill="white"/>
<circle cx="83.5245" cy="56.3741" r="8.40278" stroke="#3FD4F8" stroke-width="1.15107"/>
</g>
<path d="M91.3281 45.6537L91.2194 48.3765L91.213 48.535L91.3291 48.643L93.2829 50.4621L90.6134 50.4643L90.4548 50.4644L90.3516 50.5848L88.5774 52.6532L88.6862 49.9303L88.6925 49.7718L88.5765 49.6638L86.6227 47.8447L89.2922 47.8426L89.4508 47.8424L89.554 47.7221L91.3281 45.6537Z" fill="white" stroke="#3FD4F8" stroke-width="0.690639"/>
<path d="M60.7817 59.5418C60.4473 59.5418 60.1238 59.5212 59.8113 59.4801C59.5016 59.439 59.2097 59.3622 58.9356 59.2499C58.6642 59.1375 58.4162 58.9936 58.1914 58.8181C57.9666 58.64 57.7734 58.4275 57.6117 58.1809C57.4499 57.9314 57.3238 57.6463 57.2334 57.3256C57.1457 57.0022 57.1018 56.639 57.1018 56.2361C57.1018 55.8578 57.1457 55.5166 57.2334 55.2123C57.3211 54.908 57.4445 54.6381 57.6034 54.4023C57.7624 54.1666 57.9529 53.9638 58.1749 53.7938C58.3997 53.6239 58.6478 53.4854 58.9191 53.3785C59.1932 53.2689 59.4865 53.188 59.799 53.136C60.1142 53.0839 60.4418 53.0578 60.7817 53.0578C61.1216 53.0578 61.4491 53.0839 61.7643 53.136C62.0796 53.188 62.3742 53.2689 62.6483 53.3785C62.9224 53.4882 63.1705 53.628 63.3925 53.7979C63.6173 53.9679 63.8092 54.1707 63.9681 54.4064C64.1271 54.6422 64.2505 54.9122 64.3382 55.2164C64.4259 55.5179 64.4698 55.8578 64.4698 56.2361C64.4698 56.8281 64.3724 57.3366 64.1778 57.7615C63.986 58.1836 63.7228 58.529 63.3884 58.7976C63.054 59.0662 62.6634 59.2581 62.2166 59.3732C61.7698 59.4856 61.2915 59.5418 60.7817 59.5418ZM60.7817 54.9368C60.6062 54.9368 60.4582 54.9601 60.3376 55.0067C60.2198 55.0506 60.1211 55.1095 60.0416 55.1835C59.9648 55.2575 59.9059 55.3411 59.8648 55.4343C59.8237 55.5275 59.7922 55.6221 59.7702 55.718C59.751 55.814 59.7401 55.9072 59.7373 55.9976C59.7346 56.0881 59.7332 56.1676 59.7332 56.2361C59.7332 56.3046 59.7346 56.3841 59.7373 56.4746C59.7401 56.565 59.751 56.6596 59.7702 56.7583C59.7922 56.8542 59.8237 56.9501 59.8648 57.0461C59.9059 57.142 59.9648 57.2283 60.0416 57.3051C60.1211 57.3791 60.2198 57.4394 60.3376 57.486C60.4582 57.5326 60.6062 57.5559 60.7817 57.5559C60.9571 57.5559 61.1037 57.5326 61.2216 57.486C61.3422 57.4394 61.4423 57.3791 61.5218 57.3051C61.6012 57.2283 61.6616 57.142 61.7027 57.0461C61.7465 56.9501 61.778 56.8542 61.7972 56.7583C61.8164 56.6596 61.8274 56.565 61.8301 56.4746C61.8356 56.3841 61.8383 56.3046 61.8383 56.2361C61.8383 56.1676 61.8356 56.0881 61.8301 55.9976C61.8274 55.9072 61.8164 55.814 61.7972 55.718C61.778 55.6221 61.7465 55.5275 61.7027 55.4343C61.6616 55.3411 61.6012 55.2575 61.5218 55.1835C61.4423 55.1095 61.3422 55.0506 61.2216 55.0067C61.1037 54.9601 60.9571 54.9368 60.7817 54.9368ZM67.1998 56.3882V57.5806L67.7261 57.6792V59.4678H65.0947V57.6834L65.621 57.5806V55.0396L65.0947 54.9368V53.1524H68.2524L70.3575 56.3882V55.0478L69.8312 54.9368V53.1524H72.4626V54.9368L71.9364 55.0396V57.5806L72.4626 57.6834V59.4678H69.3008L67.1998 56.3882Z" fill="white"/>
<defs>
<filter id="filter0_d_258_1532" x="48.7481" y="47.3804" width="43.08" height="19.829" filterUnits="userSpaceOnUse" color-interpolation-filters="sRGB">
<feFlood flood-opacity="0" result="BackgroundImageFix"/>
<feColorMatrix in="SourceAlpha" type="matrix" values="0 0 0 0 0 0 0 0 0 0 0 0 0 0 0 0 0 0 127 0" result="hardAlpha"/>
<feOffset dy="0.920853"/>
<feGaussianBlur stdDeviation="0.460426"/>
<feComposite in2="hardAlpha" operator="out"/>
<feColorMatrix type="matrix" values="0 0 0 0 0 0 0 0 0 0 0 0 0 0 0 0 0 0 0.25 0"/>
<feBlend mode="normal" in2="BackgroundImageFix" result="effect1_dropShadow_258_1532"/>
<feBlend mode="normal" in="SourceGraphic" in2="effect1_dropShadow_258_1532" result="shape"/>
</filter>
<filter id="filter1_d_258_1532" x="71.0927" y="45.0939" width="22.5613" height="22.5608" filterUnits="userSpaceOnUse" color-interpolation-filters="sRGB">
<feFlood flood-opacity="0" result="BackgroundImageFix"/>
<feColorMatrix in="SourceAlpha" type="matrix" values="0 0 0 0 0 0 0 0 0 0 0 0 0 0 0 0 0 0 127 0" result="hardAlpha"/>
<feOffset dx="-1.15107"/>
<feGaussianBlur stdDeviation="1.15107"/>
<feComposite in2="hardAlpha" operator="out"/>
<feColorMatrix type="matrix" values="0 0 0 0 0.00392157 0 0 0 0 0.101961 0 0 0 0 0.223529 0 0 0 0.15 0"/>
<feBlend mode="normal" in2="BackgroundImageFix" result="effect1_dropShadow_258_1532"/>
<feBlend mode="normal" in="SourceGraphic" in2="effect1_dropShadow_258_1532" result="shape"/>
</filter>
</defs>
</svg>
