<svg width="37" height="37" viewBox="0 0 37 37" fill="none" xmlns="http://www.w3.org/2000/svg">
    <g clip-path="url(#clip0_279_2436)">
    <path d="M18.5397 0.578125C8.42039 0.578125 0.578125 7.97379 0.578125 17.9631C0.578125 23.1879 2.72514 27.703 6.2199 30.822C6.82332 31.3647 6.69902 31.6791 6.80164 35.03C6.80972 35.2648 6.87511 35.4939 6.9921 35.6976C7.10909 35.9012 7.27413 36.0732 7.47282 36.1984C7.67151 36.3236 7.89783 36.3983 8.13202 36.416C8.36621 36.4336 8.60117 36.3937 8.81641 36.2997C12.64 34.616 12.6891 34.483 13.3373 34.6593C24.4149 37.7082 36.4219 30.6189 36.4219 17.9631C36.4219 7.97379 28.6598 0.578125 18.5397 0.578125ZM29.3247 13.9567L24.0493 22.3084C23.8501 22.6224 23.5881 22.892 23.2799 23.1001C22.9717 23.3082 22.6238 23.4503 22.258 23.5177C21.8923 23.5851 21.5165 23.5762 21.1544 23.4916C20.7922 23.407 20.4515 23.2485 20.1534 23.026L15.9563 19.8846C15.7686 19.7439 15.5404 19.6678 15.3059 19.6678C15.0713 19.6678 14.8431 19.7439 14.6555 19.8846L8.99201 24.1801C8.23611 24.7531 7.24607 23.8477 7.75555 23.0477L13.0309 14.6959C13.2301 14.3818 13.492 14.1122 13.8002 13.904C14.1084 13.6959 14.4564 13.5537 14.8221 13.4863C15.1879 13.4189 15.5637 13.4278 15.9258 13.5125C16.288 13.5972 16.6288 13.7558 16.9268 13.9783L21.1225 17.119C21.3102 17.2597 21.5384 17.3358 21.7729 17.3358C22.0075 17.3358 22.2357 17.2597 22.4233 17.119L28.0896 12.8279C28.8441 12.2512 29.8341 13.156 29.3247 13.9567Z" fill="#00B2FF"/>
    </g>
    <defs>
    <clipPath id="clip0_279_2436">
    <rect width="37" height="37" fill="white"/>
    </clipPath>
    </defs>
</svg>