<svg width="38" height="38" viewBox="0 0 38 38" fill="none" xmlns="http://www.w3.org/2000/svg">
<path d="M34.0939 11.2602C34.118 11.5977 34.118 11.9353 34.118 12.2729C34.118 22.5685 26.2817 34.4315 11.9594 34.4315C7.54693 34.4315 3.44798 33.1535 0 30.9353C0.626926 31.0076 1.22966 31.0317 1.8807 31.0317C5.5215 31.0317 8.87307 29.8021 11.5495 27.7044C8.12562 27.632 5.25632 25.3896 4.26773 22.3033C4.75 22.3756 5.2322 22.4238 5.73859 22.4238C6.43781 22.4238 7.1371 22.3274 7.78807 22.1587C4.21956 21.4353 1.54308 18.3008 1.54308 14.5152V14.4188C2.57984 14.9975 3.78553 15.3592 5.06335 15.4074C2.96563 14.0088 1.59132 11.6218 1.59132 8.9213C1.59132 7.47463 1.97704 6.14849 2.65221 4.99112C6.48598 9.717 12.2487 12.8032 18.7105 13.1409C18.59 12.5622 18.5177 11.9594 18.5177 11.3566C18.5177 7.06472 21.9898 3.56857 26.3057 3.56857C28.5481 3.56857 30.5735 4.50892 31.9961 6.02796C33.7562 5.69041 35.444 5.03937 36.939 4.14726C36.3602 5.95567 35.1306 7.47471 33.5151 8.4391C35.0824 8.27041 36.6014 7.8363 37.9999 7.23357C36.9391 8.77665 35.6129 10.151 34.0939 11.2602Z" fill="#00B2FF"/>
</svg>
